<<<<<<< Updated upstream
<mxfile host="app.diagrams.net" modified="2021-05-01T04:15:04.900Z" agent="5.0 (Windows NT 10.0; Win64; x64) AppleWebKit/537.36 (KHTML, like Gecko) Chrome/90.0.4430.93 Safari/537.36" etag="D9RlM9pXF4nI8PWVAgUB" version="14.6.9" type="github" pages="2">
  <diagram id="Y8R3UVB2cNtYBamJNuuW" name="System Diagram">
    <mxGraphModel dx="782" dy="437" grid="1" gridSize="10" guides="1" tooltips="1" connect="1" arrows="1" fold="1" page="1" pageScale="1" pageWidth="827" pageHeight="1169" math="0" shadow="0">
      <root>
        <mxCell id="0" />
        <mxCell id="1" parent="0" />
        <mxCell id="ZyRGwzsniOqlc5HnI02d-1" value="" style="rounded=0;whiteSpace=wrap;html=1;" parent="1" vertex="1">
          <mxGeometry x="10" y="160" width="310" height="560" as="geometry" />
        </mxCell>
        <mxCell id="ZyRGwzsniOqlc5HnI02d-3" value="Front-end" style="text;html=1;strokeColor=none;fillColor=none;align=center;verticalAlign=middle;whiteSpace=wrap;rounded=0;fontFamily=Tahoma;fontSize=18;" parent="1" vertex="1">
          <mxGeometry x="30" y="180" width="90" height="20" as="geometry" />
        </mxCell>
        <mxCell id="ZyRGwzsniOqlc5HnI02d-6" value="" style="verticalLabelPosition=bottom;verticalAlign=top;html=1;shadow=0;dashed=0;strokeWidth=2;shape=mxgraph.android.phone2;strokeColor=#c0c0c0;sketch=0;gradientColor=#ffffff;" parent="1" vertex="1">
          <mxGeometry x="90" y="290" width="120" height="220" as="geometry" />
        </mxCell>
        <mxCell id="ZyRGwzsniOqlc5HnI02d-7" value="App Ôn Thi GPLX" style="text;html=1;align=center;verticalAlign=middle;whiteSpace=wrap;rounded=1;fillColor=#ffffff;fontFamily=Tahoma;fontSize=16;strokeWidth=1;strokeColor=#000000;dashed=1;dashPattern=1 1;" parent="1" vertex="1">
          <mxGeometry x="85" y="530" width="130" height="50" as="geometry" />
        </mxCell>
        <mxCell id="ZyRGwzsniOqlc5HnI02d-8" value="" style="rounded=0;whiteSpace=wrap;html=1;shadow=0;sketch=0;fontFamily=Tahoma;fontSize=16;strokeWidth=2;fillColor=#ffffff;gradientColor=#ffffff;" parent="1" vertex="1">
          <mxGeometry x="360" y="160" width="280" height="560" as="geometry" />
        </mxCell>
        <mxCell id="ZyRGwzsniOqlc5HnI02d-9" value="Backend" style="text;html=1;strokeColor=none;fillColor=none;align=center;verticalAlign=middle;whiteSpace=wrap;rounded=0;fontFamily=Tahoma;fontSize=18;" parent="1" vertex="1">
          <mxGeometry x="374" y="180" width="80" height="20" as="geometry" />
        </mxCell>
        <mxCell id="ZyRGwzsniOqlc5HnI02d-10" value="" style="rounded=0;whiteSpace=wrap;html=1;shadow=0;sketch=0;fontFamily=Tahoma;fontSize=16;strokeWidth=2;fillColor=#ffffff;gradientColor=#ffffff;" parent="1" vertex="1">
          <mxGeometry x="680" y="160" width="280" height="560" as="geometry" />
        </mxCell>
        <mxCell id="ZyRGwzsniOqlc5HnI02d-30" value="Database" style="text;html=1;strokeColor=none;fillColor=none;align=center;verticalAlign=middle;whiteSpace=wrap;rounded=0;shadow=0;sketch=0;fontFamily=Tahoma;fontSize=18;" parent="1" vertex="1">
          <mxGeometry x="700" y="180" width="70" height="20" as="geometry" />
        </mxCell>
        <mxCell id="ZyRGwzsniOqlc5HnI02d-31" value="" style="strokeWidth=2;html=1;shape=mxgraph.flowchart.database;whiteSpace=wrap;rounded=1;shadow=0;sketch=0;fontFamily=Tahoma;fontSize=18;fillColor=#ffffff;gradientColor=#ffffff;flipH=0;flipV=0;spacing=3;spacingTop=0;verticalAlign=middle;" parent="1" vertex="1">
          <mxGeometry x="789" y="230" width="60" height="60" as="geometry" />
        </mxCell>
        <mxCell id="ZyRGwzsniOqlc5HnI02d-32" value="Questions DB" style="text;html=1;strokeColor=none;fillColor=none;align=center;verticalAlign=middle;whiteSpace=wrap;rounded=0;shadow=0;sketch=0;fontFamily=Tahoma;fontSize=16;flipH=0;flipV=0;spacing=3;spacingTop=0;" parent="1" vertex="1">
          <mxGeometry x="770" y="300" width="100" height="20" as="geometry" />
        </mxCell>
        <mxCell id="ZyRGwzsniOqlc5HnI02d-33" value="" style="strokeWidth=2;html=1;shape=mxgraph.flowchart.database;whiteSpace=wrap;rounded=1;shadow=0;sketch=0;fontFamily=Tahoma;fontSize=18;fillColor=#ffffff;gradientColor=#ffffff;flipH=0;flipV=0;spacing=3;spacingTop=-2;verticalAlign=middle;" parent="1" vertex="1">
          <mxGeometry x="789" y="350" width="60" height="60" as="geometry" />
        </mxCell>
        <mxCell id="ZyRGwzsniOqlc5HnI02d-34" value="Signs DB" style="text;html=1;strokeColor=none;fillColor=none;align=center;verticalAlign=middle;whiteSpace=wrap;rounded=0;shadow=0;sketch=0;fontFamily=Tahoma;fontSize=16;flipH=0;flipV=0;spacing=3;spacingTop=0;" parent="1" vertex="1">
          <mxGeometry x="786.5" y="420" width="67" height="20" as="geometry" />
        </mxCell>
        <mxCell id="ZyRGwzsniOqlc5HnI02d-35" value="" style="strokeWidth=2;html=1;shape=mxgraph.flowchart.database;whiteSpace=wrap;rounded=1;shadow=0;sketch=0;fontFamily=Tahoma;fontSize=18;fillColor=#ffffff;gradientColor=#ffffff;flipH=0;flipV=0;spacing=3;spacingTop=-2;verticalAlign=middle;" parent="1" vertex="1">
          <mxGeometry x="789" y="470" width="60" height="60" as="geometry" />
        </mxCell>
        <mxCell id="ZyRGwzsniOqlc5HnI02d-36" value="Exams DB" style="text;html=1;strokeColor=none;fillColor=none;align=center;verticalAlign=middle;whiteSpace=wrap;rounded=0;shadow=0;sketch=0;fontFamily=Tahoma;fontSize=16;flipH=0;flipV=0;spacing=3;spacingTop=0;" parent="1" vertex="1">
          <mxGeometry x="781.5" y="540" width="77" height="20" as="geometry" />
        </mxCell>
        <mxCell id="ZyRGwzsniOqlc5HnI02d-37" value="" style="strokeWidth=2;html=1;shape=mxgraph.flowchart.database;whiteSpace=wrap;rounded=1;shadow=0;sketch=0;fontFamily=Tahoma;fontSize=18;fillColor=#ffffff;gradientColor=#ffffff;flipH=0;flipV=0;spacing=3;spacingTop=-2;verticalAlign=middle;" parent="1" vertex="1">
          <mxGeometry x="789" y="590" width="60" height="60" as="geometry" />
        </mxCell>
        <mxCell id="ZyRGwzsniOqlc5HnI02d-38" value="Tips DB" style="text;html=1;strokeColor=none;fillColor=none;align=center;verticalAlign=middle;whiteSpace=wrap;rounded=0;shadow=0;sketch=0;fontFamily=Tahoma;fontSize=16;flipH=0;flipV=0;spacing=3;spacingTop=0;" parent="1" vertex="1">
          <mxGeometry x="790" y="660" width="60" height="20" as="geometry" />
        </mxCell>
        <mxCell id="ZyRGwzsniOqlc5HnI02d-41" value="" style="shape=image;imageAspect=0;aspect=fixed;verticalLabelPosition=bottom;verticalAlign=top;rounded=1;shadow=0;sketch=0;fontFamily=Tahoma;fontSize=16;strokeColor=#000000;strokeWidth=2;fillColor=#ffffff;gradientColor=#ffffff;image=data:image/png,iVBORw0KGgoAAAANSUhEUgAAAgAAAAIACAYAAAD0eNT6AAAABHNCSVQICAgIfAhkiAAAAAlwSFlzAAADUgAAA1IBEAAkSgAAABl0RVh0U29mdHdhcmUAd3d3Lmlua3NjYXBlLm9yZ5vuPBoAACAASURBVHic7d13uGV1fe/x93dAsCB2iQU7KiQ2EhEFFZJYUjS5EU0siBpLjPcSjMZooonRm4gmllxLYqyIvSViwSQWjIqigrFHqhU7VcrAwPf+sfcezpw556x99l5r/VZ5v55nP8MMZ/b6wpw5n8/5rd9aKzITSZLqFhF7AntPX7dY9c97AVuAXPFijZ+fDDwxM7e1N/k4hAVAkrSMiLgxcG/gYOAOXBX011nyrU8Bfj0zz13yfbSGXUscNCJuBDwbeElmfrvEDJKkxUTErYD7MAn9ezMJ/boZ/g1rfQVgGv4fBe4EXAq8GHhBZl7U6iCSpLlExB2BQ7kq8G/e8CEN/xa0WgBWhf9KPwCeBbwpPSchScVFxE2ARwCHA3dp8dCGf0taKwAbhP9KXwCOysxPtzKUJGm7iLgW8L+YhP6vAbu0PILh36JWCsCc4b/SO4BnZOZ3mptKkhQRW5iE/eFMwn+PQqMY/i1rvAAsEP4zlwL/ABzt/gBJqtf0a/NTgSOAmxYex/AvoNECsET4r3Q2k/0Bx7o/QJKWExE3AP4M+N/AtQqPA4Z/MY0VgJrCf6XPM9kfcGJN7ydJoxER1weeBhxJuWX+1Qz/ghopAA2E/0pvB/7c/QGSVC0irstkqf8oYM/C46x0MnA/w7+c2gtAw+E/cwmT/QEvdH+AJO1sehveo5iE/3ULj7Oa4d8BtRaAlsJ/JfcHSNIqEfFE4GjgeqVnWYPh3xG1FYAC4b+S+wMkjV5E3Bp4DZPL+rrI8O+QLXW8SeHwB7g78OmIeGtE3KLQDJJUREz8b+ArGP6a09IrAB0I/9XcHyBpNCJiH+B1TO7R31WGfwctVQA6GP4rfZ/J/oA3uz9A0tBM7+D3VOD5wDUKj7MRw7+jFi4AHQ//lT7HZH/AZ0oPIkl1iIh9gdcDB5aepcLJTK7zP6/0INrZQnsAehT+AAcAJ073B+xdehhJWkZEPILJDXQMfy1l0wWgZ+G/0sOBb0bE30TENUsPI0mbFRHPBd4CXL3wKFW+gOHfeZs6BdDj8F/t+8Azgbe4P0BS10XE1YE3AH9QepY5fIHJOX/Dv+PmLgADCv+VTmKyP+CzpQeRpLVExI2B99H9JX8w/HtlrlMAAw1/gHsw2R/wFvcHSOqaiPglJhuZDX/VrnIFYMDhv9rFwN8DL8rMi0sPI2ncIuKBwDvo1gN81mP499CGBWBE4b/S95jsD3ir+wMklTC9q9/LgF1KzzIHw7+n1j0FMNLwB7g58GbgMxHRh2U3SQMSEX8OvBzDXw1bcwVgxOG/WgJvBZ6Zmd8rPYykYZs+xe/VpeeYk+HfczsVAMN/TRcDLwL+3v0BkpoQEb/P5BuOWh7S1jDDfwB2KAARcQPg4xj+63F/gKTaRcRvMLnU72qlZ5nD54H7G/79t7ppXg78QolBemK2P+DEiLhH6WEk9V9EHAy8B8NfLduhAGTmBcCzC83SJwcy2SR4bETcvPQwkvopIu4KfIBuP81vxvAfmLX2AGwBvgjcuchE/TPbH/CizLyk9DCS+iEibg98Erhx6VnmYPgP0HpXARwKfKz9cXrtu0z2B7zN/QGSNjK98+ingFuUnmUOhv9ArXsjoIj4V+B32x1nEN6dmQ8tPYSkboqIqzEJ/wNKzzIHw3/ANioAtwW+DuzW6kT9dxlwXU8HSFpLRLwI+LPSc8zh80wu9Tu/9CBqxrrXm2bmGcA/tjjLUOwG3LP0EJK6JyIeADy99BxzMPxHoOqGE/8X+HEbgwzMIaUHkNQtEbEXcAwQpWepYPiPxIYFwMsCF3Zo6QEkdUdEBHAssFfpWSoY/iMyz+OAtwCnAHdpZaJhcB+ApO2mD/g5uvQcFT7HZMOf4T8SlfeczswrgaNamGVIdgPuVXoISeVN7xr6/NJzVDD8R2iuh05k5gnAvzY7yuB4GkAauYi4DvA2un2bX8N/pDbz1KmnA1ubGmSADik9gKTiXgXcuvQQGzD8R2zuApCZZ+JlgZtxQERcs/QQksqIiPsAjyg9xwYM/5Gr3AS4wwdHXBs4je7vZO2K+2fmf5YeQlK7prv+Pw/8culZ1mH4a1OnAMjMC/GywM04pPQAkoo4HMNfHbepFQDYflngycBdG5loWE7MzINKDyGpPdNTf6cCNys9yxoMf223qRUA8LLATbp7RFyr9BCSWvVnGP7qgU0XAIDM/ATwnppnGaKrAa4ASCMRETcFnlF6jjWchOGvVRYqAFN/hpcFzuOQ0gNIas3fAV27+udU4AGGv1ZbuABk5lnAS2ucZagOKT2ApOZFxP7Ao0vPscpW4A8Mf61lmRUAmLTdH9UxyIDdPSL2KD2EpMa9hO496e+FmfnF0kOom5YqANPLAv+yplmGalfcByANWkQcDNy39ByrXAm8tvQQ6q5lVwAA3gDYMDd2SOkBJDXqj0sPsIaPZeZ3Sw+h7lq6AHhZ4Fx8MJA0UBGxF3BY6TnW8I3SA6jb6lgBIDP/C3h3He81UL/sPgBpsJ5AN5/2d3bpAdRttRSAqWfgZYHr2RU4uPQQkuoVEbsATyo9xzrq/PquAartE2R6WeBL6nq/AfI0gDQ8vwPcvPQQ6/B27dpQ3Q3x74Af1vyeQ3FI6QEk1a6Lm/9m9i89gLqt1gKQmT8H/qLO9xyQX54+TlnSAETEHYFfKz3HBm4bEfuVHkLd1cQ5omOAUxp4377bBfcBSEPS5e/+Zx5WegB1V+0FwMsCN+Q+AGkApo/8PaL0HHN4aOkB1F2N7BLNzE8C72rivXvukNIDSKrFrwN7lh5iDvt5GkDrafIykWcAlzb4/n20f0T04YuGpI39RukBNsHTAFpTYwUgM7+FlwWutgtw79JDSFpanwqApwG0pqZvFPEC4AcNH6NvDik9gKTFRcS+wC1Lz7EJ+0XEL5YeQt3TaAHwssA1HVJ6AElL6dN3/zOuAmgnbdwq8hjg5BaO0xf7R8QtSg8haWEWAA1C4wUgMxMvC1xpC/D40kNI2ryIuBZwn9JzLMDTANpJKw+LyMxPAe9s41g98cSIuEHpISRt2q8Cu5UeYkGuAmgHbT4tyssCr7IX8OaIiNKDSNqU3yw9wBIsANpBawUgM78NvLit4/XAA4EXlh5C0qY8sPQAS/A0gHbQ9vOivSxwR38WES8oPYSkahGxF3Cr0nMsyVUAbddqAcjMi4BntXnMHnimJUDqhSHcUte7Amq7tlcAAN4EfKHAcbvMEiB13xCWz/f1NIBmWi8AXha4LkuA1G1DWAEATwNoqsQKAJn5aeAdJY7dcZYAqbuGUgA8DSAAYvINeYEDT+6G9z/ANYoM0G1HZ6Z7JaQOiYgfAzcqPUdNfikzv1Z6CJVVZAUAIDO/g5cFrseVAKlDIuKGDCf8wdMAomABmDoaOLvwDF1lCZC6YyjL/zOeBlDZAuBlgZUsAVI3DK0AeDWAiq8AABwLfL70EB1mCZDKG2JYugowcsULgJcFzsUSIJV1u9IDNMB9ACNXvAAAZOaJwNtKz9FxlgCpnGuXHqABngYYuU4UgKmnAs8BPgpcUniWrrIESGXsUXqAhngaYMSK3QdgIxGxG3AAcMj0dS+8X8BK3idAalFEnMYwTwN8IzOHtsFRc+pkAVhtRSE4lEkhuCcWAkuA1JKIOBu4Sek5GnKnzPxq6SHUvl4UgNWmheAeXLVCMNZCYAmQWhAR5wN7lp6jIc/LzL8uPYTaFRFP7mUBWG1FIVi5QnD1kjO1yBIgNSwitgG7lJ6jIZ4GGJmIeDLwykEUgNUiYnd2XiEYciGwBEgNiYirM/yNyZ4GGIlZ+AMxyAKw2opCMFshOJDhFQJLgNSAiLgB8NPSczTM0wAjsDL8oad7AJY1LQQHctUKwVAKgSVAqllE3BL4Vuk5GuZpgIFbHf4w0gKw2opCcD/g0cDeZSdaiiVAqlFE7AeM4dG5ngYYqLXCH7p1I6BiMnNrZn4iM58N3Ap4MPCdslMtzJsFSfXaVnqAlnhr4AFaL/zBArCTzLwyM98P3A04vvQ8C7IESPU5p/QALfGugAOzUfiDBWBdmXkO8CDgLaVnWZAlQKrHucAYzpXeMSJ+qfQQqkdV+IMFYEOZeQVwBJYAabSmXwcuKD1HSzwNMADzhD9whQWggiVAEp4GUE/MGf4AF1oA5mAJkEZvLAXA0wA9tonwB7jAAjAnS4A0amMpAOBpgF7aZPiDBWBzLAHSaI2pAHgaoGcWCH/wFMDmWQKkURpTAfA0QI8sGP7gCsBiLAHS6IypAICrAL2wRPgDnG8BWJAlQBqVoT8MaDX3AXTckuEPcLoFYAmWAGk0vl56gJZ5GqDDagh/gK9aAJZkCZBG4ZTSAxTgaYAOqin8Ab7m0wBrEhG7AMcAjyw9y4J8iqC0gYj4Dv1+Uuhm/U9m7lt6CF2lxvC/AriWKwA1cSVAGryxrQLcMSLuVHoITdQY/gCnZ+ZWC0CNLAHSoH2x9AAFuBmwA2oOf4CvgQ8Dqp0lQBqssa0AgAWguAbCHywAzbEESIM0xgLgaYCCGgp/sAA0yxIgDUtmfh/4Sek5CnAVoIAGwx8sAM2zBEiDM8ZVAAtAyxoO/23AqWABaJwlQBqUMRaAO0bEwaWHGIuGwx/gpMy8DCwArbAESIPx1dIDFPLKiNi19BBD10L4A3xo9g8WgJZYAqRB+FbpAQq5M3Bk6SGGrKXwhxUFwDsBtsw7Bkr9FRG3As4qPEYpPwf2y8zvlh5kaFoM/x9k5k1nP3EFoGWuBEi9dpPSAxS0B/CFiDi89CBD0mL4Axy/8icWgAIsAVJv3b70AIXdGHhTRHw8InxOwJJaDn9YsfwPFoBiLAFSL/126QE64hDgSxFxXEQcHhF7lh6obwqE/zbgP3eYwT0AZbknQOqHiLgJ8B3A3fA72wr8B/Au4H2ZeUHheTqtQPgDfCIzD1n5C64AFOZKgNQbL8HwX8/uwIOANwE/nq4MPMqVgZ0VCn9YtfwPrgB0hisBUndFxFHAS0vP0UOzlYF3AseNfWWgYPgD/FJmfm2HeSwA3WEJkLonIh7J5O/lLqVn6blRl4HC4f+FzLz76l+0AHSMJUDqDsO/MVuBf2eyZ2DwZaBw+AM8NjPfuPoXLQAdZAmQyjP8WzPoMtCB8P8ZcPPMvHT1v7AAdJQlQCrH8C9mUGWgA+EP8PeZ+Yy1/oUFoMMsAVL7DP/O6HUZ6Ej4XwncLjPXvH21BaDjLAFSewz/zpqVgXcC7+96GehI+AN8MDPXvXmVBaAHLAFS8wz/3uh0GehQ+AP8ZmYev96/tAD0hCVAao7h31udKgMdC/8zgH1yg5C3APSIJUCqn+E/GFuBD3PVnoEL2zx4x8If4OmZ+eKNPsAC0DOWAKk+hv9gtVoGOhj+5wK3yczzNvogC0APWQKk5Rn+o9FoGehg+AM8LTNfUvVBFoCesgRIizP8R6vWMtDR8D8D2C8zL6v6QAtAj1kCpM0z/DV1KTtuIJy7DEy/9j4X+Eu6Ff4AD83Md8/zgRaAnrMESPMz/LWOuctAROwLvAo4pJ3RNuXEzDxo3g+2AAyAJUCqZvhrTpcCHwFOAv4bOAe4KXBL4DDgwHKjVbpnZn523g+2AAyEJUBan+GvEXhHZv7BZn6DBWBALAHSzgx/jcBWYN/17vm/ni0NDaMCMvMK4AjgLaVnWdAzI+IFpYfQcBj+GomXbzb8wRWAQXIlQDL8NRrfAe6cmedv9je6AjBArgRo7Ax/jcSVwKMWCX+wAAyWJUBjZfhrRP4uMz+56G/2FMDAeTpAY2L4a0Q+C9w7M7ct+gYWgBGwBGgMDH+NyIXAXTPzzGXexFMAI+DpAA2d4a+Recqy4Q8WgNGwBGioDH+NzFsz89g63shTACPj6QANieGvkfkWcJfMvKCON3MFYGRcCdBQ9Dz8zwT87kubcRnwyLrCHywAo2QJUN/1PPxPAvYHnoIlQPO5Enh0Zp5Y55taAEbKEqC+GkD4PyAzz8/Mf8ISoPn8SWa+o+43tQCMmCVAfTOU8J/9giVAc/jbzHxFE2/sJkC5MVC9MLTwXykingy8EohWp1LXvS4zH9/Um1sABFgC1G1DDv8ZS4BWOQ74velKbSMsANrOEqAuGkP4z1gCNPUp4P6ZeUmTB7EAaAeWAHXJmMJ/xhIwel9lco//85o+kJsAtQM3Bqorxhj+4MbAkfsak8+bxsMfLABagyVApY01/GcsAaP0ceCgzDy7rQNaALQmS4BKGXv4z1gCRuWtwAPr+LzZDAuA1mUJUNsM/x1ZAkbhhcCjMvOytg/sJkBVcmOg2mD4r8+NgYN0BfB/piWvCAuA5mIJUJMM/2oR8Xbg95s8hlpzMfDwzDyu5BC7ljy4+iMzr4iII6Y/7WMJeGZEYAnoHsO/2nQF4GFNHkOt+Qnw25n5udKDuAdAc3NPgOpm+Fdz+X9QPg3cowvhDxYAbZIlQHUx/KsZ/oNxGfAXwH0y86zSw8y4B0ALcU+AlmH4VzP8B+OrwOGZ+d+lB1nNFQAtxJUALcrwr2b4D8KVwIuBX+li+IMrAFqSKwHaDMO/muE/CN8GjsjMT5QeZCOuAGgprgRoXoZ/NcN/EI4B7tz18AcLgGpgCVAVw7+a4d97X2JyO9/HZOYFpYeZhwVAtbAEaD2GfzXDv9fOYHIK9G6Z+e+lh9kM9wCoVu4J0EqGfzXDv7d+CDwfeE1mXl56mEVYAFQ7S4DA8J+H4d9L5wN/D7wsMy8qPcwyLABqhCVg3Az/aoZ/71wKvAJ4QWaeU3qYOlgA1BhLwDgZ/tUM/145HXgd8IbM/FHpYepkAVCjLAHjYvhXM/x7YSvwXuA1wAk50KC0AKhxloBxMPyrGf6d93UmoX9sZv6s9DBNswCoFZaAYTP8qxn+nXUB0+/2M/PE0sO0yQKg1lgChsnwr2b4d8o24LPAR4D/BD6XmdvKjlSGBUCtsgQMi+FfbQDhfyFwHJPl8bOA6wG3BPYF9gduVm60uX2DSdh/hMk5/QsLz9MJFgC1zhIwDIZ/tZ6H/wXAXzHZ/b7urW0j4sbA3ZiUgdnrNq1MuLMEvgucCnwT+Dzwkcz8fqF5Os0CoCIsAf1m+Ffrefh/GTgsM09b5DdHxHWBuzIpA/sBNwJuuOJ1PZb7/3IeV4X87MdvAqdl5iVLvO+oWABUjCWgnwz/aj0P/08Bv5GZP2/qANO/+zdg51KwDbgYuGTF6+LV/9z3O/B1hQVARVkC+sXwr2b4qy98GqCK8imC/WH4VzP81ScWABVnCeg+w7+a4a++sQCoEywB3WX4VzP81UcWAHWGJaB7DP9qhr/6ygKgTrEEdIfhX83wV59ZANQ5loDyDP9qhr/6zgKgTrIElGP4VzP8NQQWAHWWJaB9hn81w19DYQFQp1kC2mP4VzP8NSQWAHWeJaB5hn81w19DYwFQL1gCmmP4VzP8NUQWAPWGJaB+hn81w19DZQFQr1gC6mP4VzP8NWQWAPWOJWB5hn81w19DZwFQL1kCFmf4VzP8NQYWAPWWJWDzDP9qhr/GIjKz9AzSUiJiFyah9sjSsyzojzPzn5o+iOFfzfDXmLgCoN7r+UrAScBbmz6I4V/N8NfYWAA0CD0tAW0Fm+FfwfDXGFkANBg9KwGGfzXDv5rhr4VZADQoPSkBhn81w7+a4a+lWAA0OB0vAYZ/NcO/muGvpVkANEgdLQGGfzXDv5rhr1pYADRYHSsBhn81w7+a4a/aWAA0aB0pAYZ/NcO/muGvWlkANHiFS4DhX83wr2b4q3YWAI1CoRJg+Fcz/KsZ/mqEBUCj0XIJMPyrGf7VDH81xgKgUWmpBBj+1Qz/aoa/GmUB0Og0XAIM/2qGfzXDX42zAGiUGioBhn81w7+a4a9WWAA0WjWXAMO/muFfzfBXaywAGrWaSoDhX83wr2b4q1UWAI3ekiXA8K9m+Fcz/NU6C4DEwiXA8K9m+Fcz/FWEBUCa2mQJMPyrGf7VDH8VYwGQVpizBBj+1Qz/aoa/irIASKtUlADDv5rhX83wV3EWAGkN65QAw7+a4V/N8FcnRGaWnkHqrIjYhUkY3w7Dv4rhX83wV2dYAKQK0xJwjaa/aBv+1Qx/qT4WAKkDDP9qhr9UL/cASIUZ/tUMf6l+FgCpIMO/muEvNcMCIBVi+Fcz/KXmWACkAgz/aoa/1CwLgNQyw7+a4S81zwIgtcjwr2b4S+2wAEgtMfyrGf5SeywAUgsM/2qGv9QuC4DUMMO/muEvtc8CIDXI8K9m+EtlWACkhhj+1Qx/qRwLgNQAw7+a4S+VZQGQamb4VzP8pfIsAFKNDP9qhr/UDRYAqSaGfzXDX+oOC4BUA8O/muEvdYsFQFqS4V/N8Je6xwIgLcHwr2b4S91kAZAWZPhXM/yl7rIASAsw/KsZ/lK3WQCkTTL8qxn+UvdZAKRNMPyrGf5SP1gApDkZ/tUMf6k/LADSHAz/aoa/1C8WAKmC4V/N8Jf6xwIgbcDwr2b4S/1kAZDWYfhXM/yl/rIASGsw/KsZ/lK/WQCkVQz/aoa/1H8WAGkFw7+a4S8NgwVAmjL8qxn+0nBYACQM/3kY/tKwWAA0eoZ/NcNfGh4LgEbN8K9m+FeLiCMj4oFNHkOqmwVAo2X4VzP8q0XEUcA/Av9mCVCfWAA0SoZ/NcO/2jT8Xzr96e5YAtQjFgCNjuFfzfCvtir8ZywB6g0LgEbF8K9m+FdbJ/xnLAHqBQuARsPwr2b4V6sI/xlLgDrPAqBRMPyrGf7V5gz/GUuAOs0CoMEz/KsZ/tU2Gf4zlgB1lgVAg2b4VzP8qy0Y/jOWAHWSBUCDZfhXM/yrLRn+M5YAdY4FQINk+Fcz/KvVFP4zlgB1igVAg2P4VzP8q9Uc/jOWAHWGBUCDYvhXM/yrNRT+M5YAdYIFQINh+Fcz/Ks1HP4zlgAVF5lZegZpaYZ/NcO/Wkvhv9JW4F6ZeUqLx5QAVwA0AIZ/NcO/WoHwBzgT+EbLx5QAC4B6zvCvZvhXKxT+24DDM/OSlo8rARYA9ZjhX83wr1Yo/AGel5knFziuBLgHQD1l+Fcz/KsVDP+TgIMy84oCx5YAC4B6yPCvZvhXKxj+AL/sxj+V5ikA9YrhX83wr1Y4/P/L8FcXWADUG4Z/NcO/WuHwp/Cxpe08BaBeMPyrGf7VOhD+ZwL7ZOaVBWeQAFcA1AOGfzXDv1oHwh/g5Ya/usIVAHWa4V/N8K/WkfAHuFlmnl16CAlcAVCHGf7VDP9qHQr/Mw1/dYkFQJ1k+Fcz/Kt1KPxh8t8sdYYFQJ1j+Fcz/Kt1LPzBAqCOsQCoUwz/aoZ/tQ6GP1gA1DFuAlRnGP7VDP9qHQ1/gF299a+6xBUAdYLhX83wr9bh8N9q+KtrLAAqzvCvZvhX63D4A1xUegBpNQuAijL8qxn+1Toe/mABUAdZAFSM4V/N8K/Wg/AHuLj0ANJqFgAVYfhXM/yr9ST8wa+16iCvAlDrDP9qhn+1HoU/wFbgmj4HQF1iK1WrDP9qhn+1noU/wO7AzUoPIa1kAVBrDP9qhn+1Hob/zG1LDyCtZAFQKwz/aoZ/tR6HP8BtSg8grWQBUOMM/2qGf7Wehz/AnUoPIK3kJkA1yvCvZvhXG0D4A3w7M29VeghpxhUANcbwr2b4VxtI+APcMiJ+pfQQ0owFQI0w/KsZ/tUGFP4zh5UeQJrxFIBqZ/hXM/yrDTD8AU7PzH1KDyGBKwCqmeFfzfCvNtDwB7hdRNy79BASWABUI8O/muFfbcDhP3N06QEksACoJoZ/NcO/2gjCH+BeEfF7pYeQ3AOgpRn+1Qz/aiMJ/5lTgV/MzG2lB9F4uQKgpRj+1Qz/aiMLf4DbA08sPYTGzRUALczwr2b4Vxth+M9cCNwrM79aehCNkwVACzH8qxn+1UYc/jNnAQdk5k9LD6Lx8RSANs3wr2b4VzP8Abg18J6IuFrpQTQ+FgBtiuFfzfCvZvjv4D7Aq0oPofGxAGhuhn81w7+a4b+mx0fEP0ZEH/9uqafcA6C5GP7VDP9qhn+ljwAPy8xzSw8yExHXafrvjspwBUCVDP9qhn81w38uvw58LiL2LT1IROwaEc8Bvh8RDy49j+rnCoA2ZPhXM/yrGf6bdgHwpMx8e4mDR8QdgGOBu09/6TLgoZl5XIl51AxXALQuw7+a4V/N8F/InsDbIuLEiLhXWweNiF0i4k+AL3JV+APsBrwrIh7U1ixqnisAWpPhX83wr2b41+bdwDMz84wm3jwi9gQeDxwJ3HKDD70MOCwz39/EHGqXBUA7MfyrGf7VDP/aXQ4cD7wXeH9mnrPsG0bErZiE/h8yWXWYhyVgICwA2oHhX83wr2b4N24bcAKTMvA54Mx5rhyIiNsBBwH3mv64H4t9HlsCBsACoO0M/2qGfzXDv5hzgTOnrwuBawN7rPjxZsCNajyeJaDnLAACDP95GP7VDP/RsQT0mFcByPCfg+FfzfAfpd2Ad3t1QD9ZAEbO8K9m+Fcz/EfNEtBTFoARM/yrGf7VDH9hCeglC8BIGf7VDP9qhr9WsAT0jAVghAz/aoZ/NcNfa7AE9IgFYGQM/2qGfzXDXxuwBPSElwHWJCJuBOw9ff0CcA3g6tPX7iv+eTfgIibX7J4LnLfWj5l5YQMzPgp4I4b/ugz/aoa/5uQlgh1nAdiEiLgBsP/0tR9XBf7NmYR7na5gUgi+yeTBHLPX1zLzss28UUTsChwNPK3mGdti+Fcz/NVFloAOswCsIyKuy+R2mfuveG30kIy2XA58jR1LwZfWWjGIiN2AhwF/CtytzSFrZPhXM/zVZZaAjrIATE2/Sz4AuP/0dQD9WSpP4Izp69vTX7s9cGfg+qWGqoHhX83wVx9YAjpo1AUgIm4M/B7wAOBQ4DplJ9IKhn81w199chnwkMz8QOlBNDG6AhAR1wR+BzgcuB+wa9mJtAbDv5rhrz6yBHTIKApARGxh8h3+4Uy+PiBeZgAAHANJREFU47922Ym0AcO/muGvPrMEdMSgC0BE7AE8HjiKbmzg08YM/2qGv4bAEtABgywAEXFT4EjgScB1C4+j+Rj+1Qx/DYkloLBBFYCIuBOTa90fzuSGO+oHw79aW+G/H/AVvEuo2mEJKGgQf8kj4rYR8XbgS8ARGP59YvhXayX8ATLz60xOm13Z9LEkJl+r3xMRv116kDHq9QrA9DK+vwKeCFyt8DjaPMO/Wmvhv1JEPBZ4LQP5JkGd50pAAb0sANPNfU8Dng7sUXgcLcbwr1Yk/Gci4jHA67AEqB2WgJb1rgBMH2jzD8BepWfRwgz/akXDf8YSoJZZAlrUmwIQETcH/hn4rdKzaCmGf7VOhP9MRBwBvB5LgNphCWhJL/5CR8QTmDwAx/DvN8O/WqfCHyAzjwEehxsD1Q43Brak0ysAEXFrJhuRfrX0LFqa4V+tc+G/UkQ8GngDPfnGQb3nSkDDOlsApl9sXgVcq/QsWprhX63T4T/TQAk4F/gc8FPg58CF0x8vAm4E3Ba4zfTlw7rGxxLQoM4VgIi4OvByJtciq/8M/2q9CP+ZiDgceCOLlYDvAScw+W/+FPD1nPOLUETcADgEeAiT04F7LnB89Y8loCGdKgARsQ/wLuAupWdRLQz/ar0K/5kFSsAngJcBx2Xm0nsJImJ34NeBw5jc+XP3Zd9TnWYJaEBnCkBEHMbkciNb/TAY/tV6Gf4z00tyj2H9EnAZ8HbgZZn5xQbnuBXwAuD36efngeZjCahZ8c08EbElIl7M5Dt/w384XmH4b6jX4Q+QmW9mcuvttb6jPwm4U2Ye0WT4T+f4VmY+HDgQ+GSTxyoogb9nsj9irGZXB3g1WF0ys9iLybLdO5l8cvsa1msr8OAGP3eezCR4Sv93LvL6JLBHyb97Nf9ZPBLYNv1vuwx4NrBL4Xku6sCfc12vK4HHTf/bDmayUbL0TCVfW4HfKv15P4RXsVMAEXEd4H3AfYsMoDZcBjw0M4+r8039zr97IuKRwJ8Dj8nMUzowz92YfH3Zu/QsS0rg8Zn5+tkvRMTBwPGM+zbolwG/l5kfLD1InxUpABFxM+DDwC+1fnC1rdYSYPh3V0RElvqOYg0RsRfwHuCg0rMsaKfwn7EEAJaApbW+ByAifhH4DIb/WOwGvCsiHrzsGxn+3dal8AfIzB8xuYnYm0rPsoB1wx8gMz8F/AbuCXivewIW1+oKQETcick1wNdv7aDqiqVWAgx/LSoidgE+ADyw9Cxz2jD8V3IlAHAlYGGtFYCIuAPwX8CNWzmgumihEmD4a1nTPUefBe5YepYKc4f/jCUAsAQspJVTANN7+n8Uw3/sNn06wPBXHXJySeqDgHNKz7KBTYc/eDpgytMBC2i8AEw3/H0UuFnTx1IvzF0CDH/VKTNPBx7K5JLFrlko/Lf/ZksAWAI2rdECEBE3ZhL+t27yOOqdyhJg+KsJmfkx4NWl51hlqfDf/iaWALAEbEpjewAi4ppMvhDerZEDaAjW3BNg+KtJ029MTgeuXXoWagr/ldwTALgnYC6NrABERDC5R7jhr43stBJg+Ktpmflj4EWl56CB8AdXAqZcCZhDIysAEfHXwHNrf2MN1WVMzs3eDMNfLZiuUJ4G3LTQCI2E/0quBACuBGyo9gIQEQ9h8mCfPn4RVzmXA7vSz88bw7+HIuKPmRTOEs4BDsrM/2nyIJYAwBKwrloLQETcBfg0cK3a3lTqNsO/pyLiBsAPmRTPEn4IHGoJaIUlYA217QGIiBsCx2H4azwM/x7LzJ8xuTNpKb8AfDwiGr05kXsCAB8lvKY6NwH+C3CLGt9P6jLDfxjeXfj4loD27M6kBPxm6UG6opZTABHxWKCxzSxSxxj+AzG9JPAHFHgw2io/BA7JzG82eRBPBwCwlcnpgA+VHqS0pQvA9Da/X6Ib19RKTTP8ByYiPg3cq/QcWALaZAlgydY7fcrWsRj+GgfDf5i+UXqAqdnpgDs0eRBPBwCT0wHvHfvpgGWXvf4cOKiOQaSOM/yH6/TSA6xwEywBbRl9CVi4AEwv+XtufaNInWX4D1uXCgBYAto06hKwzArAK4Cr1TWI1FGG//B1rQCAJaBNoy0BCxWAiHgkcHDNs0hdY/iPw1mlB1iHJaA9oywBm74KICL2AL5JuXtoS20w/EciIq4P/Kz0HBv4AZM7Bnp1QPNGdXXAIisAz8Hw17AZ/uPS9auYXAloz6hWAjZVAKafgE9taBapCwz/8enDd7yzEnD7Jg9iCQBGVAI2uwLwUtz4p+Ey/Mep6ysAMzcBTrAEtGIUJWDuAhARBzL5pJCGyPAfr74UALAEtGnwJWAzKwDPaWwKqSzDf9zuXHqATbIEtGfQJWCuAhAR+wOD/B+g0TP81cdLmt0T0J7BloB5VwD+stEppDIMf0F/b2d+UywBbRlkCai8D0BE/CLwFSBamUhqh+Gv2ZVN/1N6jiWdzeQ+Aac2eRDvEwAM7D4B86wA/CWGv4bF8NdMH5f/V3MloD2zlYBBbIjfcAUgIvZmcpvMXVqbqBsSeCDw5dKDbMLVgP8CblV4jq4z/LVdRHwCuE/pOWriSkB7tgL/KzOPLz3IMqoKwF8zzif+vTEzH1t6iM2KiN8B/q30HB1m+Gu76ebmk0vPUTNvG9ye3peAdQtARGwBvgXs3eZAHXAecIfM/HHpQRYRER/EKzbWYvhrBxHxJuDw0nM0wBLQnl6XgI32ADyA8YU/wHP6Gv5TRzL5pNRVDH/tICJ+Afj90nM0xGcHtGd34F/7uidgowLwhNam6I7/Bv6p9BDLyMwzgBeVnqNDDH+t5Uhgt9JDNMgS0J7eloA1TwFM2/F3gV1bn6icBA7KzM+UHmRZEXEN4Ou4IdDw104i4k7AFxh2AZjxdEB7enc6YL0VgMcwrvCHyca/3oc/QGZeAvxJ6TkK+zbwO4a/VoqIqwHHMo7wB1cC2tS7lYD1CsDDW52ivPOAPy89RJ0y8zhgEDerWMA24CGZeU7pQdQ5zwXuUnqIllkC2tOrErBTAYiIW9K/h2Ms69mZ+ZPSQzRgrBsC/y0zh3Z5l5Y0faLpoIr+JlgC2tObErDWCsCDWp+irC8C/1x6iCZMNwS+sPQcBbyy9ADqpL2Y7PUZK0tAe3pRAnbaBBgR/wHcr8w4rRvMxr/1TDcEfg24delZWrINuEZmbis9iLonIg4D3sb49jit9APgEO8Y2IpObwzcYQUgIvYE7ltolhLeMOTwh1FuCDzL8Nd6MvPdTPY4jflz5CbACT47oBWdXglYfQrgAYxnd+y5wDNLD9GGzHw/8MHSc7TkvNIDqNssAYAloE2dLQGrC8CDi0xRxlA3/q3nSODS0kO04BalB1D3TUvAI7AEWALa0ckSsLoA/FqRKdp3CgPd+LeezDyTcWwIvHFEXLP0EOq+zHwXlgBLQHs6VwK2F4CIuAWTT4ahS+ApmXll6UEKOJrJ452HLIBfLj2E+sESAFgC2tSpErByBeCexaZo1xsy87OlhyghMy9lHBsCDyg9gPrDEgBYAto0KwEPLD3I2ArAuYz3RiDA9g2BHyg9R8PuUXoA9YslALAEtGl34N9Kl4CVBeDAYlO05y8z86elh+iAP2HYGwItANo0SwBw1c2CLAHNK14CtgBExO7A3UoN0ZJTgFeXHqILphsCjy49R4NuMX2ipbQplgAAbooloC1FS8BsBWB/hn39fwJ/PNKNf+t5IXBm6SEa5D4ALcQSAFgC2lSsBMwKwNCfjvX6zDyp9BBdMoINgRYALWxaAh6JJcAS0I4iJWBWAPZp86AtO4eR3PFvszLzA8D7S8/RkEYfeKLhy8x3YgmwBLSn9RIwKwC3a+uABbjxb2ND3RA4locfqUGWAMAS0KZWS8DQC8DJwL+UHqLLMvMs4AWl52jAbUoPoGGwBACWgDa1VgJi+roYuHrTB2tZAgdm5udKD9J1EXF1Jo8MHlpoXjczzy89hIYhIh4GvIVxP0r4bOBQHyXciq3A72bmh5s6wBbg5gwv/AFeZ/jPZ7oh8MjSczRgaIVGBa1YCbii9CwFuRLQnsZXArYwzOX/c4BnlR6iTzLzg8BxpeeomfsAVKtpCXgElgBLQDsaLQGzFYCh+Qs3/i3kT4BLSg9RI1cAVDtLAGAJaFNjJWALcJ2637SwLwCvKT1EH2XmtxjWHQJvWHoADZOnAwBLQJsaKQFbgD3rfMPCxvyo37q8EDij9BA1GdLntjomM9+BJWBWAhq9l4wlAGigBAxtBeC1bvxbTmZuZTgbAq9degANmyUAmJSAEywBrai1BAypALjxryaZ+SHgfaXnqIErAGqcJQCwBLSpthIwpFMAz8rMn5UeYkCOov8bAl0BUCssAYAloE2zEnDoMm8ylBWAzwOvLT3EkEw3BPb9DoEWALXGEgBYAto0KwF3W/QNtgDXqG+eIq7EjX9NeRFweukhljCU1S31hCUAsAS0aU/g+Ii47SK/eQv9v7/1f2Tm50sPMUTTDYH/UHqOJexSegCNjyUAsAS0aS/gwxGx22Z/4xbg8vrnadWvNn0d6lhFxBbgiaXnWMLW0gNonKYl4FFYAiwBzUvgBZl52WZ/4xBWAHYDXl56iIF6ErB/6SGWsOm/EFJdMvPtWAIsAc1K4PGZ+fpFfvMQVgAA7h8RDyk9xJBExA2Bvy09x5JcAVBRlgDAEtCUpcIfhrECMPPSiLhm6SEG5GjgeqWHWJIFQMVZAgBLQN2WDn8YzgoAwN7As0sPMQQRcSDwuNJz1MACoE6wBACWgLrUEv4wKQB9v9nLSk9zQ+Byphv/XglE6Vlq4B4AdYYlALAELKu28IdJAfhRHW/UEW4IXF7fN/6tdH7pAaSVLAGADxBaVK3hD5MC8MO63qwj3BC4oIi4Ef3f+LfS90sPIK02LQGHM+4ScDMsAZtRe/jDMAsAuCFwUUPY+LeSBUCdlJlvwxJgCZhPI+EPwy0AbgjcpOnGv8eWnqNm3ys9gLQeSwBgCajSWPjDcAsAuCFwbgPb+LeSKwDqNEsAYAlYT6PhD8MuAG4InN8fMZyNfytZANR5lgDAErBaAk9oMvwBIjOJiHMY1rnflQ7LzPeUHqKrphv/vsnw/vyvBHbPzKHc6EoDFxEPB45l3A+x+j5waGae1uRBIuJg4HhgjyaPs6BZ+L+u6QNtmf74taYPVNBLI+JapYfosKFt/Jv5juGvPnElAHAloLXwh3EUADcErmOgG/9mvlJ6AGmzLAHAVSXgdk0epIMloNXwh6sKwFfbOmAhfxoRdyg9RJcMeOPfzJdKDyAtYloCHo0l4IQRlYDWwx/GUwDcELizoW78m/ly6QGkRWXmW7EEjKUEtBL+EXGdiHjVDr823QR4Q+AnTR68I9wQyKA3/q10x8z8ZukhpGVExCOAN+HGwEMy8/QmD1JoY2Br4Q/8O3AAcPPMPBumKwCZ+VOG9UyA9bghcGKoG/9mLgEa3UUstcGVAGC4KwFth/89mJzy/a3Zv9uy4uO+2OQQHTH6DYED3/g387XMvLL0EFIdLAHA8EpAW+G/J1eF/8yaBeCEJgfpkNFuCJxu/HsVw934N3NS6QGkOlkCgHZLwHOaPATthf9/sGP4A/x6ROwOOxaAjzc5TIeMeUPgHwF3Kz1ECz5aegCpbpYAoIUSMN0L8PyG3r50+ANcCzgUdiwAJwMXNjlUh9wvIg4rPUSbphv//m/pOVpwJeNZzdLITEvAEVgCGikBEXFvmtsImMATC4f/zG/BigKQmVcAn2xysI55ycg2BA5949/MKZl5bukhpKZk5luwBNReAloK/9c28N7bzRn+AL8JO64AwHhOA8CINgSOZOPfzMdKDyA1zRIA1FgCIuI+TMK/iW8Kuxb+ALeJiGuvLgAn1D5Vtw1+Q+CINv7NeP5fo2AJAGooAdPw/xDjCf+Z260uAKcw3McDr2UMGwLHsvEP4DLgU6WHkNpiCQCWKAERcV/GGf4A++xQAKbXTr+7rsF6YrAbAke08W/m3zPz4tJDSG2yBAALlIBp+H+QcYY/rLECAPDO5UbqpaFuCHwh49j4N/O20gNIJawoAWO+AdbcTxGMiEMYRvivvsnPZuyzVgH4FJN7L4/J4DYERsQ9gceUnqNFFwHHlR5CKmVaAh7NuEvAzakoAQML/wOXeJudC0BmJvCuJd60rwazIXAEj/pdy3GZeVHpIaSSXAkANigBK8L/mg0ct0/hD+ucAoBxngYY0obAJzOejX8zLv9LQGa+GUvATiUgIg7F8F9pr5h8w7/TQQI4C7hlDQfpm4dmZm83Qk43/p0KXLf0LC06F/iFzLys9CBSV0TEo4Bj2Pl+L2PyPSa3vd0b+ACG/w7W/MSYngb4l7oO0jN93xD4QsYV/gDvNPylHbkSAExWAv6LZsP/SX0Mf4A1VwCmB7wR8F1g9zoP2BNHZ+azSg+xWdONf59mXOf+Ae6cmV8pPYTURa4ENGYW/q9p8iBNhT9s8AmRmT8B3lH3AXuidxsCI2IXxrfxD+Djhr+0PlcCGtH78IcNVgCmB/8V4PNNHLgHLgW2lh5iE7YA1y49RAG/m5nvKz2E1HWuBNRmEOEPFQVgOsRnmhxAWsJZwO2md7CUVMESsLTBhD/M90kwlEvjNDyvMPyl+U1PBzwGTwcsYlDhD/OtAFwNOI1xXhKo7roIuFlmnl96EKlvIuJw4I24EjCvwYU/zPGHn5mXA89rYRZpM15u+EuLycxjcSVgXoMMf+CHlSsAABGxK/B1YJ/GR5KqnQvcJjPPKz2I1GeuBFRqM/w/DNyzyeOs8sm5/tAzcxvwNw0PI83raMNfWp4rARsacvgDnDbXCgBsf8DMV4D9Gh1J2tjZTHb+X1J6EGkoXAnYydDDH+CZc/9hT3db/1WDw0jz+BvDX6qXKwE7SOCPBh7+sJkVANj+kKCTgLs3NpK0vlOBX5yekpJUs4h4NPAGxrsSMAv/Rp+FExHXZrLhr1T4A9x5U3/I04cEPRlbosp4uuEvNScz3wQ8lnF+jR9T+Cdw+qZbXmaezOSe81Kb3pOZ7y89hDR0Iy0BYwp/gG9k5iWLLvM8G/hBndNIG7gAOLL0ENJYjKwEjC38AT4EC57nycwLgKNqHUda319k5tmlh5DGZCQlYIzhD/BBmONWwBuJiA8DD6hrImkNJwH38p7/UhkD3hg41vC/ALhhZl6+7B/oU4Cf1zCQtJZtwBMNf6mcga4EjDX8Af5jeov/5RpdZp7BpARITXheZn659BDS2A2sBIw5/GG6/A9LngLY/iYRbwIOX/qNpKt8FLi/3/1L3RERRwCvp7+nA8Ye/gncJDN/BPUVgD2AU/BhQarHj4C7ZuYPSw8iaUc9LgFjD3+Az2XmPWY/qeUPMDN/Dvw+cFkd76dRuxJ4pOEvdVNmHgM8jn6dDkjgyS2Ff8nb+1bZ4R4+tTW4zPwi8Iy63k+j9beZ+dHSQ0haX89KwCz8X93kQVaE/72aPM4SzgbevvIXal3Cycx/BN5R53tqVE7Ax05LvdCTEmD4X+XlmbnDKn0tewB2eMOIqwMfo7tLIOqm04B7ZubPSg8iaX4d3hNg+F/lImDvzDx35S/W/geWmZcCvwOcVfd7a7B+Cvym4S/1T0dXAgz/Hb1+dfhDAysA2984Yl/gROC6jRxAQ3EJ8GuZ+ZnSg0haXEQ8Bngd5VcCDP8dXQHcPjPPXP0vGvuDysxvAA8BLm/qGOq9K4FHGf5S/2XmG4E/pOxKgOG/s39dK/yh4aaWmR8DnsTkD0Va7emZ+d7SQ0iqR+ESYPjv7GI2uDqv8aWazHwD8GQsAdrR32XmS0sPIalehUqA4b+2v8rMdffjNbYHYKcDRTwR+GcgWjmguux5mfnXpYeQ1JwW9wQY/ms7GbhHZl6x3ge0VgAAIuIJwKuxBIzZX2Xm80sPIal5LZQAw39t24C7Z+Z/b/RBre7WzMzXAE/A0wFj9SzDXxqPhk8HJPDHhv+a/qEq/KHlFYDtB414HPAvwC6tH1ylPD0zX1x6CEnti4jHAq+lvm86Z+H/zzW935p6Gv6nA3ea3pNnQ0Wu18zM1wMPBi4scXy1ahvwRMNfGq/pZvDHU89KQJvhfzz9Cv9twOPmCX8oeMOGzPwQcDDw3VIzqHHnAPefnvqRNGI1lYC2w/+gJo/TgD/KzE/O+8FF79iUmV8GDgA+X3IONeKbwIGZ+fHSg0jqhiVLgOG/sRdk5us28xuK7AHYaYiIawBvAg4rPYtq8Z/AwzLzvNKDSOqeBfYEGP4bewfw8NxkoJe+ZzMAmXkJ8DDgeXTrgRLavFcyebCP4S9pTZtcCTD8N3Yi8JjNhj90ZAVgpYi4L3AssHfpWbQp5wJPysx3lR5EUj/MsRLQVvjvwWS3f9/C/wwmp1p/ushv7sQKwEqZ+QngLsC7S8+iuZ0A3Nnwl7QZ05WAP2TyxLqd/jWG/0Z+yGS1daHwhw4WAIDMPDczH8rkE+Oi0vNoXZcDz2LyON/vlR5GUv9Mbxb0ECaPBt/+yxj+G/kqk9v8nrrMm3TuFMBqEbEP8GYmVwuoO04FHpGZJ5ceRFL/RcRBwPuB6wJPycx/avh4fQ3//wQOy8wLln2jzhcAgIjYwuSJgn8LXKfwOGN3GfAPwN9m5sWlh5E0HBGxH3DAdFWgyeP0Nfxfy+TZB9vqeLNeFICZiNiLSfg8qvQsI/Vh4MjMPK30IJK0iJ6GfwJ/kZlH1/mmvSoAMxFxKJPLzfYtPctIfAt4amb+W+lBJGlRPQ3/S5hc5vfOut+4k5sAq0zvLncX4JlMLj9TMy4Bng/sZ/hL6rOehv9HmTzYp/bwh56uAKwUEXsCRwFPZbJ5RMu7CPhnJo+U/GHpYSRpGdPwP57J82f64GfA0zLzmCYP0vsCMBMR12FSAo7CjYKLupDJqZWXZOZPSg8jScvqYfi/hckp18a/Bg+mAMxExPWAPwWeAlyv8Dh9cT7w/4CXZeY5pYeRpDr0LPy/xeRpfv/e1gEHVwBmpg8YehiTywfvUXicrvoyk6X+N2fmhaWHkaS69Cj8zwBeCrx++lyc1gy2AKwUEXcF/gh4JLBH4XFKu5TJk6NenZmfKT2MJNWtJ+F/EpPL2t+bmUUegjeKAjAzfdrTI4CHAvcFdi07Uau+BLwROCYzvXJC0iB1PPwTOI7JButPlR5mVAVgpYi4PvBg4PeA+wFXLztR7bYBnwDeBxyXmd8uPI8kNS4i7sDk1O9vA7ctPA5MQv8U4IPAW5a9f3+dRlsAVpo2xt8AHsRkZeAWZSda2M+AjzAJ/eMz87zC80hSMdMy8NvT18G0t+p7AZN79n8I+FBXL6e2AKwhIm4J3GfF6/ZlJ1rXqcCnV7y+mf6BStJOppeKP4DJ1/R9pq9bALss+dYXM9nIdzrwP0y+CftkZl6+5Ps2zgIwh+kzCA5gcuvhO05f+9LejYfOZxL2s9eXgBO9Vl+SFhcRuwG3ZlIGbjf98fpMlu3Xel0J/Ag4jUngnw6c3ddvvCwAS5gWg32BWwE3BG40fd1wxY/XBmLFa8uKf94KnLPq9bPpj2czCfvTMvPHbf03SZLG4f8DvRFtdljjBKgAAAAASUVORK5CYII=;" parent="1" vertex="1">
          <mxGeometry x="474" y="248" width="52" height="52" as="geometry" />
        </mxCell>
        <mxCell id="ZyRGwzsniOqlc5HnI02d-42" value="" style="shape=image;imageAspect=0;aspect=fixed;verticalLabelPosition=bottom;verticalAlign=top;rounded=1;shadow=0;sketch=0;fontFamily=Tahoma;fontSize=16;strokeColor=#000000;strokeWidth=2;fillColor=#ffffff;gradientColor=#ffffff;image=data:image/png,iVBORw0KGgoAAAANSUhEUgAAAgAAAAIACAYAAAD0eNT6AAAABHNCSVQICAgIfAhkiAAAAAlwSFlzAAADUgAAA1IBEAAkSgAAABl0RVh0U29mdHdhcmUAd3d3Lmlua3NjYXBlLm9yZ5vuPBoAACAASURBVHic7d13uGV1fe/x93dAsCB2iQU7KiQ2EhEFFZJYUjS5EU0siBpLjPcSjMZooonRm4gmllxLYqyIvSViwSQWjIqigrFHqhU7VcrAwPf+sfcezpw556x99l5r/VZ5v55nP8MMZ/b6wpw5n8/5rd9aKzITSZLqFhF7AntPX7dY9c97AVuAXPFijZ+fDDwxM7e1N/k4hAVAkrSMiLgxcG/gYOAOXBX011nyrU8Bfj0zz13yfbSGXUscNCJuBDwbeElmfrvEDJKkxUTErYD7MAn9ezMJ/boZ/g1rfQVgGv4fBe4EXAq8GHhBZl7U6iCSpLlExB2BQ7kq8G/e8CEN/xa0WgBWhf9KPwCeBbwpPSchScVFxE2ARwCHA3dp8dCGf0taKwAbhP9KXwCOysxPtzKUJGm7iLgW8L+YhP6vAbu0PILh36JWCsCc4b/SO4BnZOZ3mptKkhQRW5iE/eFMwn+PQqMY/i1rvAAsEP4zlwL/ABzt/gBJqtf0a/NTgSOAmxYex/AvoNECsET4r3Q2k/0Bx7o/QJKWExE3AP4M+N/AtQqPA4Z/MY0VgJrCf6XPM9kfcGJN7ydJoxER1weeBhxJuWX+1Qz/ghopAA2E/0pvB/7c/QGSVC0irstkqf8oYM/C46x0MnA/w7+c2gtAw+E/cwmT/QEvdH+AJO1sehveo5iE/3ULj7Oa4d8BtRaAlsJ/JfcHSNIqEfFE4GjgeqVnWYPh3xG1FYAC4b+S+wMkjV5E3Bp4DZPL+rrI8O+QLXW8SeHwB7g78OmIeGtE3KLQDJJUREz8b+ArGP6a09IrAB0I/9XcHyBpNCJiH+B1TO7R31WGfwctVQA6GP4rfZ/J/oA3uz9A0tBM7+D3VOD5wDUKj7MRw7+jFi4AHQ//lT7HZH/AZ0oPIkl1iIh9gdcDB5aepcLJTK7zP6/0INrZQnsAehT+AAcAJ073B+xdehhJWkZEPILJDXQMfy1l0wWgZ+G/0sOBb0bE30TENUsPI0mbFRHPBd4CXL3wKFW+gOHfeZs6BdDj8F/t+8Azgbe4P0BS10XE1YE3AH9QepY5fIHJOX/Dv+PmLgADCv+VTmKyP+CzpQeRpLVExI2B99H9JX8w/HtlrlMAAw1/gHsw2R/wFvcHSOqaiPglJhuZDX/VrnIFYMDhv9rFwN8DL8rMi0sPI2ncIuKBwDvo1gN81mP499CGBWBE4b/S95jsD3ir+wMklTC9q9/LgF1KzzIHw7+n1j0FMNLwB7g58GbgMxHRh2U3SQMSEX8OvBzDXw1bcwVgxOG/WgJvBZ6Zmd8rPYykYZs+xe/VpeeYk+HfczsVAMN/TRcDLwL+3v0BkpoQEb/P5BuOWh7S1jDDfwB2KAARcQPg4xj+63F/gKTaRcRvMLnU72qlZ5nD54H7G/79t7ppXg78QolBemK2P+DEiLhH6WEk9V9EHAy8B8NfLduhAGTmBcCzC83SJwcy2SR4bETcvPQwkvopIu4KfIBuP81vxvAfmLX2AGwBvgjcuchE/TPbH/CizLyk9DCS+iEibg98Erhx6VnmYPgP0HpXARwKfKz9cXrtu0z2B7zN/QGSNjK98+ingFuUnmUOhv9ArXsjoIj4V+B32x1nEN6dmQ8tPYSkboqIqzEJ/wNKzzIHw3/ANioAtwW+DuzW6kT9dxlwXU8HSFpLRLwI+LPSc8zh80wu9Tu/9CBqxrrXm2bmGcA/tjjLUOwG3LP0EJK6JyIeADy99BxzMPxHoOqGE/8X+HEbgwzMIaUHkNQtEbEXcAwQpWepYPiPxIYFwMsCF3Zo6QEkdUdEBHAssFfpWSoY/iMyz+OAtwCnAHdpZaJhcB+ApO2mD/g5uvQcFT7HZMOf4T8SlfeczswrgaNamGVIdgPuVXoISeVN7xr6/NJzVDD8R2iuh05k5gnAvzY7yuB4GkAauYi4DvA2un2bX8N/pDbz1KmnA1ubGmSADik9gKTiXgXcuvQQGzD8R2zuApCZZ+JlgZtxQERcs/QQksqIiPsAjyg9xwYM/5Gr3AS4wwdHXBs4je7vZO2K+2fmf5YeQlK7prv+Pw/8culZ1mH4a1OnAMjMC/GywM04pPQAkoo4HMNfHbepFQDYflngycBdG5loWE7MzINKDyGpPdNTf6cCNys9yxoMf223qRUA8LLATbp7RFyr9BCSWvVnGP7qgU0XAIDM/ATwnppnGaKrAa4ASCMRETcFnlF6jjWchOGvVRYqAFN/hpcFzuOQ0gNIas3fAV27+udU4AGGv1ZbuABk5lnAS2ucZagOKT2ApOZFxP7Ao0vPscpW4A8Mf61lmRUAmLTdH9UxyIDdPSL2KD2EpMa9hO496e+FmfnF0kOom5YqANPLAv+yplmGalfcByANWkQcDNy39ByrXAm8tvQQ6q5lVwAA3gDYMDd2SOkBJDXqj0sPsIaPZeZ3Sw+h7lq6AHhZ4Fx8MJA0UBGxF3BY6TnW8I3SA6jb6lgBIDP/C3h3He81UL/sPgBpsJ5AN5/2d3bpAdRttRSAqWfgZYHr2RU4uPQQkuoVEbsATyo9xzrq/PquAartE2R6WeBL6nq/AfI0gDQ8vwPcvPQQ6/B27dpQ3Q3x74Af1vyeQ3FI6QEk1a6Lm/9m9i89gLqt1gKQmT8H/qLO9xyQX54+TlnSAETEHYFfKz3HBm4bEfuVHkLd1cQ5omOAUxp4377bBfcBSEPS5e/+Zx5WegB1V+0FwMsCN+Q+AGkApo/8PaL0HHN4aOkB1F2N7BLNzE8C72rivXvukNIDSKrFrwN7lh5iDvt5GkDrafIykWcAlzb4/n20f0T04YuGpI39RukBNsHTAFpTYwUgM7+FlwWutgtw79JDSFpanwqApwG0pqZvFPEC4AcNH6NvDik9gKTFRcS+wC1Lz7EJ+0XEL5YeQt3TaAHwssA1HVJ6AElL6dN3/zOuAmgnbdwq8hjg5BaO0xf7R8QtSg8haWEWAA1C4wUgMxMvC1xpC/D40kNI2ryIuBZwn9JzLMDTANpJKw+LyMxPAe9s41g98cSIuEHpISRt2q8Cu5UeYkGuAmgHbT4tyssCr7IX8OaIiNKDSNqU3yw9wBIsANpBawUgM78NvLit4/XAA4EXlh5C0qY8sPQAS/A0gHbQ9vOivSxwR38WES8oPYSkahGxF3Cr0nMsyVUAbddqAcjMi4BntXnMHnimJUDqhSHcUte7Amq7tlcAAN4EfKHAcbvMEiB13xCWz/f1NIBmWi8AXha4LkuA1G1DWAEATwNoqsQKAJn5aeAdJY7dcZYAqbuGUgA8DSAAYvINeYEDT+6G9z/ANYoM0G1HZ6Z7JaQOiYgfAzcqPUdNfikzv1Z6CJVVZAUAIDO/g5cFrseVAKlDIuKGDCf8wdMAomABmDoaOLvwDF1lCZC6YyjL/zOeBlDZAuBlgZUsAVI3DK0AeDWAiq8AABwLfL70EB1mCZDKG2JYugowcsULgJcFzsUSIJV1u9IDNMB9ACNXvAAAZOaJwNtKz9FxlgCpnGuXHqABngYYuU4UgKmnAs8BPgpcUniWrrIESGXsUXqAhngaYMSK3QdgIxGxG3AAcMj0dS+8X8BK3idAalFEnMYwTwN8IzOHtsFRc+pkAVhtRSE4lEkhuCcWAkuA1JKIOBu4Sek5GnKnzPxq6SHUvl4UgNWmheAeXLVCMNZCYAmQWhAR5wN7lp6jIc/LzL8uPYTaFRFP7mUBWG1FIVi5QnD1kjO1yBIgNSwitgG7lJ6jIZ4GGJmIeDLwykEUgNUiYnd2XiEYciGwBEgNiYirM/yNyZ4GGIlZ+AMxyAKw2opCMFshOJDhFQJLgNSAiLgB8NPSczTM0wAjsDL8oad7AJY1LQQHctUKwVAKgSVAqllE3BL4Vuk5GuZpgIFbHf4w0gKw2opCcD/g0cDeZSdaiiVAqlFE7AeM4dG5ngYYqLXCH7p1I6BiMnNrZn4iM58N3Ap4MPCdslMtzJsFSfXaVnqAlnhr4AFaL/zBArCTzLwyM98P3A04vvQ8C7IESPU5p/QALfGugAOzUfiDBWBdmXkO8CDgLaVnWZAlQKrHucAYzpXeMSJ+qfQQqkdV+IMFYEOZeQVwBJYAabSmXwcuKD1HSzwNMADzhD9whQWggiVAEp4GUE/MGf4AF1oA5mAJkEZvLAXA0wA9tonwB7jAAjAnS4A0amMpAOBpgF7aZPiDBWBzLAHSaI2pAHgaoGcWCH/wFMDmWQKkURpTAfA0QI8sGP7gCsBiLAHS6IypAICrAL2wRPgDnG8BWJAlQBqVoT8MaDX3AXTckuEPcLoFYAmWAGk0vl56gJZ5GqDDagh/gK9aAJZkCZBG4ZTSAxTgaYAOqin8Ab7m0wBrEhG7AMcAjyw9y4J8iqC0gYj4Dv1+Uuhm/U9m7lt6CF2lxvC/AriWKwA1cSVAGryxrQLcMSLuVHoITdQY/gCnZ+ZWC0CNLAHSoH2x9AAFuBmwA2oOf4CvgQ8Dqp0lQBqssa0AgAWguAbCHywAzbEESIM0xgLgaYCCGgp/sAA0yxIgDUtmfh/4Sek5CnAVoIAGwx8sAM2zBEiDM8ZVAAtAyxoO/23AqWABaJwlQBqUMRaAO0bEwaWHGIuGwx/gpMy8DCwArbAESIPx1dIDFPLKiNi19BBD10L4A3xo9g8WgJZYAqRB+FbpAQq5M3Bk6SGGrKXwhxUFwDsBtsw7Bkr9FRG3As4qPEYpPwf2y8zvlh5kaFoM/x9k5k1nP3EFoGWuBEi9dpPSAxS0B/CFiDi89CBD0mL4Axy/8icWgAIsAVJv3b70AIXdGHhTRHw8InxOwJJaDn9YsfwPFoBiLAFSL/126QE64hDgSxFxXEQcHhF7lh6obwqE/zbgP3eYwT0AZbknQOqHiLgJ8B3A3fA72wr8B/Au4H2ZeUHheTqtQPgDfCIzD1n5C64AFOZKgNQbL8HwX8/uwIOANwE/nq4MPMqVgZ0VCn9YtfwPrgB0hisBUndFxFHAS0vP0UOzlYF3AseNfWWgYPgD/FJmfm2HeSwA3WEJkLonIh7J5O/lLqVn6blRl4HC4f+FzLz76l+0AHSMJUDqDsO/MVuBf2eyZ2DwZaBw+AM8NjPfuPoXLQAdZAmQyjP8WzPoMtCB8P8ZcPPMvHT1v7AAdJQlQCrH8C9mUGWgA+EP8PeZ+Yy1/oUFoMMsAVL7DP/O6HUZ6Ej4XwncLjPXvH21BaDjLAFSewz/zpqVgXcC7+96GehI+AN8MDPXvXmVBaAHLAFS8wz/3uh0GehQ+AP8ZmYev96/tAD0hCVAao7h31udKgMdC/8zgH1yg5C3APSIJUCqn+E/GFuBD3PVnoEL2zx4x8If4OmZ+eKNPsAC0DOWAKk+hv9gtVoGOhj+5wK3yczzNvogC0APWQKk5Rn+o9FoGehg+AM8LTNfUvVBFoCesgRIizP8R6vWMtDR8D8D2C8zL6v6QAtAj1kCpM0z/DV1KTtuIJy7DEy/9j4X+Eu6Ff4AD83Md8/zgRaAnrMESPMz/LWOuctAROwLvAo4pJ3RNuXEzDxo3g+2AAyAJUCqZvhrTpcCHwFOAv4bOAe4KXBL4DDgwHKjVbpnZn523g+2AAyEJUBan+GvEXhHZv7BZn6DBWBALAHSzgx/jcBWYN/17vm/ni0NDaMCMvMK4AjgLaVnWdAzI+IFpYfQcBj+GomXbzb8wRWAQXIlQDL8NRrfAe6cmedv9je6AjBArgRo7Ax/jcSVwKMWCX+wAAyWJUBjZfhrRP4uMz+56G/2FMDAeTpAY2L4a0Q+C9w7M7ct+gYWgBGwBGgMDH+NyIXAXTPzzGXexFMAI+DpAA2d4a+Recqy4Q8WgNGwBGioDH+NzFsz89g63shTACPj6QANieGvkfkWcJfMvKCON3MFYGRcCdBQ9Dz8zwT87kubcRnwyLrCHywAo2QJUN/1PPxPAvYHnoIlQPO5Enh0Zp5Y55taAEbKEqC+GkD4PyAzz8/Mf8ISoPn8SWa+o+43tQCMmCVAfTOU8J/9giVAc/jbzHxFE2/sJkC5MVC9MLTwXykingy8EohWp1LXvS4zH9/Um1sABFgC1G1DDv8ZS4BWOQ74velKbSMsANrOEqAuGkP4z1gCNPUp4P6ZeUmTB7EAaAeWAHXJmMJ/xhIwel9lco//85o+kJsAtQM3Bqorxhj+4MbAkfsak8+bxsMfLABagyVApY01/GcsAaP0ceCgzDy7rQNaALQmS4BKGXv4z1gCRuWtwAPr+LzZDAuA1mUJUNsM/x1ZAkbhhcCjMvOytg/sJkBVcmOg2mD4r8+NgYN0BfB/piWvCAuA5mIJUJMM/2oR8Xbg95s8hlpzMfDwzDyu5BC7ljy4+iMzr4iII6Y/7WMJeGZEYAnoHsO/2nQF4GFNHkOt+Qnw25n5udKDuAdAc3NPgOpm+Fdz+X9QPg3cowvhDxYAbZIlQHUx/KsZ/oNxGfAXwH0y86zSw8y4B0ALcU+AlmH4VzP8B+OrwOGZ+d+lB1nNFQAtxJUALcrwr2b4D8KVwIuBX+li+IMrAFqSKwHaDMO/muE/CN8GjsjMT5QeZCOuAGgprgRoXoZ/NcN/EI4B7tz18AcLgGpgCVAVw7+a4d97X2JyO9/HZOYFpYeZhwVAtbAEaD2GfzXDv9fOYHIK9G6Z+e+lh9kM9wCoVu4J0EqGfzXDv7d+CDwfeE1mXl56mEVYAFQ7S4DA8J+H4d9L5wN/D7wsMy8qPcwyLABqhCVg3Az/aoZ/71wKvAJ4QWaeU3qYOlgA1BhLwDgZ/tUM/145HXgd8IbM/FHpYepkAVCjLAHjYvhXM/x7YSvwXuA1wAk50KC0AKhxloBxMPyrGf6d93UmoX9sZv6s9DBNswCoFZaAYTP8qxn+nXUB0+/2M/PE0sO0yQKg1lgChsnwr2b4d8o24LPAR4D/BD6XmdvKjlSGBUCtsgQMi+FfbQDhfyFwHJPl8bOA6wG3BPYF9gduVm60uX2DSdh/hMk5/QsLz9MJFgC1zhIwDIZ/tZ6H/wXAXzHZ/b7urW0j4sbA3ZiUgdnrNq1MuLMEvgucCnwT+Dzwkcz8fqF5Os0CoCIsAf1m+Ffrefh/GTgsM09b5DdHxHWBuzIpA/sBNwJuuOJ1PZb7/3IeV4X87MdvAqdl5iVLvO+oWABUjCWgnwz/aj0P/08Bv5GZP2/qANO/+zdg51KwDbgYuGTF6+LV/9z3O/B1hQVARVkC+sXwr2b4qy98GqCK8imC/WH4VzP81ScWABVnCeg+w7+a4a++sQCoEywB3WX4VzP81UcWAHWGJaB7DP9qhr/6ygKgTrEEdIfhX83wV59ZANQ5loDyDP9qhr/6zgKgTrIElGP4VzP8NQQWAHWWJaB9hn81w19DYQFQp1kC2mP4VzP8NSQWAHWeJaB5hn81w19DYwFQL1gCmmP4VzP8NUQWAPWGJaB+hn81w19DZQFQr1gC6mP4VzP8NWQWAPWOJWB5hn81w19DZwFQL1kCFmf4VzP8NQYWAPWWJWDzDP9qhr/GIjKz9AzSUiJiFyah9sjSsyzojzPzn5o+iOFfzfDXmLgCoN7r+UrAScBbmz6I4V/N8NfYWAA0CD0tAW0Fm+FfwfDXGFkANBg9KwGGfzXDv5rhr4VZADQoPSkBhn81w7+a4a+lWAA0OB0vAYZ/NcO/muGvpVkANEgdLQGGfzXDv5rhr1pYADRYHSsBhn81w7+a4a/aWAA0aB0pAYZ/NcO/muGvWlkANHiFS4DhX83wr2b4q3YWAI1CoRJg+Fcz/KsZ/mqEBUCj0XIJMPyrGf7VDH81xgKgUWmpBBj+1Qz/aoa/GmUB0Og0XAIM/2qGfzXDX42zAGiUGioBhn81w7+a4a9WWAA0WjWXAMO/muFfzfBXaywAGrWaSoDhX83wr2b4q1UWAI3ekiXA8K9m+Fcz/NU6C4DEwiXA8K9m+Fcz/FWEBUCa2mQJMPyrGf7VDH8VYwGQVpizBBj+1Qz/aoa/irIASKtUlADDv5rhX83wV3EWAGkN65QAw7+a4V/N8FcnRGaWnkHqrIjYhUkY3w7Dv4rhX83wV2dYAKQK0xJwjaa/aBv+1Qx/qT4WAKkDDP9qhr9UL/cASIUZ/tUMf6l+FgCpIMO/muEvNcMCIBVi+Fcz/KXmWACkAgz/aoa/1CwLgNQyw7+a4S81zwIgtcjwr2b4S+2wAEgtMfyrGf5SeywAUgsM/2qGv9QuC4DUMMO/muEvtc8CIDXI8K9m+EtlWACkhhj+1Qx/qRwLgNQAw7+a4S+VZQGQamb4VzP8pfIsAFKNDP9qhr/UDRYAqSaGfzXDX+oOC4BUA8O/muEvdYsFQFqS4V/N8Je6xwIgLcHwr2b4S91kAZAWZPhXM/yl7rIASAsw/KsZ/lK3WQCkTTL8qxn+UvdZAKRNMPyrGf5SP1gApDkZ/tUMf6k/LADSHAz/aoa/1C8WAKmC4V/N8Jf6xwIgbcDwr2b4S/1kAZDWYfhXM/yl/rIASGsw/KsZ/lK/WQCkVQz/aoa/1H8WAGkFw7+a4S8NgwVAmjL8qxn+0nBYACQM/3kY/tKwWAA0eoZ/NcNfGh4LgEbN8K9m+FeLiCMj4oFNHkOqmwVAo2X4VzP8q0XEUcA/Av9mCVCfWAA0SoZ/NcO/2jT8Xzr96e5YAtQjFgCNjuFfzfCvtir8ZywB6g0LgEbF8K9m+FdbJ/xnLAHqBQuARsPwr2b4V6sI/xlLgDrPAqBRMPyrGf7V5gz/GUuAOs0CoMEz/KsZ/tU2Gf4zlgB1lgVAg2b4VzP8qy0Y/jOWAHWSBUCDZfhXM/yrLRn+M5YAdY4FQINk+Fcz/KvVFP4zlgB1igVAg2P4VzP8q9Uc/jOWAHWGBUCDYvhXM/yrNRT+M5YAdYIFQINh+Fcz/Ks1HP4zlgAVF5lZegZpaYZ/NcO/Wkvhv9JW4F6ZeUqLx5QAVwA0AIZ/NcO/WoHwBzgT+EbLx5QAC4B6zvCvZvhXKxT+24DDM/OSlo8rARYA9ZjhX83wr1Yo/AGel5knFziuBLgHQD1l+Fcz/KsVDP+TgIMy84oCx5YAC4B6yPCvZvhXKxj+AL/sxj+V5ikA9YrhX83wr1Y4/P/L8FcXWADUG4Z/NcO/WuHwp/Cxpe08BaBeMPyrGf7VOhD+ZwL7ZOaVBWeQAFcA1AOGfzXDv1oHwh/g5Ya/usIVAHWa4V/N8K/WkfAHuFlmnl16CAlcAVCHGf7VDP9qHQr/Mw1/dYkFQJ1k+Fcz/Kt1KPxh8t8sdYYFQJ1j+Fcz/Kt1LPzBAqCOsQCoUwz/aoZ/tQ6GP1gA1DFuAlRnGP7VDP9qHQ1/gF299a+6xBUAdYLhX83wr9bh8N9q+KtrLAAqzvCvZvhX63D4A1xUegBpNQuAijL8qxn+1Toe/mABUAdZAFSM4V/N8K/Wg/AHuLj0ANJqFgAVYfhXM/yr9ST8wa+16iCvAlDrDP9qhn+1HoU/wFbgmj4HQF1iK1WrDP9qhn+1noU/wO7AzUoPIa1kAVBrDP9qhn+1Hob/zG1LDyCtZAFQKwz/aoZ/tR6HP8BtSg8grWQBUOMM/2qGf7Wehz/AnUoPIK3kJkA1yvCvZvhXG0D4A3w7M29VeghpxhUANcbwr2b4VxtI+APcMiJ+pfQQ0owFQI0w/KsZ/tUGFP4zh5UeQJrxFIBqZ/hXM/yrDTD8AU7PzH1KDyGBKwCqmeFfzfCvNtDwB7hdRNy79BASWABUI8O/muFfbcDhP3N06QEksACoJoZ/NcO/2gjCH+BeEfF7pYeQ3AOgpRn+1Qz/aiMJ/5lTgV/MzG2lB9F4uQKgpRj+1Qz/aiMLf4DbA08sPYTGzRUALczwr2b4Vxth+M9cCNwrM79aehCNkwVACzH8qxn+1UYc/jNnAQdk5k9LD6Lx8RSANs3wr2b4VzP8Abg18J6IuFrpQTQ+FgBtiuFfzfCvZvjv4D7Aq0oPofGxAGhuhn81w7+a4b+mx0fEP0ZEH/9uqafcA6C5GP7VDP9qhn+ljwAPy8xzSw8yExHXafrvjspwBUCVDP9qhn81w38uvw58LiL2LT1IROwaEc8Bvh8RDy49j+rnCoA2ZPhXM/yrGf6bdgHwpMx8e4mDR8QdgGOBu09/6TLgoZl5XIl51AxXALQuw7+a4V/N8F/InsDbIuLEiLhXWweNiF0i4k+AL3JV+APsBrwrIh7U1ixqnisAWpPhX83wr2b41+bdwDMz84wm3jwi9gQeDxwJ3HKDD70MOCwz39/EHGqXBUA7MfyrGf7VDP/aXQ4cD7wXeH9mnrPsG0bErZiE/h8yWXWYhyVgICwA2oHhX83wr2b4N24bcAKTMvA54Mx5rhyIiNsBBwH3mv64H4t9HlsCBsACoO0M/2qGfzXDv5hzgTOnrwuBawN7rPjxZsCNajyeJaDnLAACDP95GP7VDP/RsQT0mFcByPCfg+FfzfAfpd2Ad3t1QD9ZAEbO8K9m+Fcz/EfNEtBTFoARM/yrGf7VDH9hCeglC8BIGf7VDP9qhr9WsAT0jAVghAz/aoZ/NcNfa7AE9IgFYGQM/2qGfzXDXxuwBPSElwHWJCJuBOw9ff0CcA3g6tPX7iv+eTfgIibX7J4LnLfWj5l5YQMzPgp4I4b/ugz/aoa/5uQlgh1nAdiEiLgBsP/0tR9XBf7NmYR7na5gUgi+yeTBHLPX1zLzss28UUTsChwNPK3mGdti+Fcz/NVFloAOswCsIyKuy+R2mfuveG30kIy2XA58jR1LwZfWWjGIiN2AhwF/CtytzSFrZPhXM/zVZZaAjrIATE2/Sz4AuP/0dQD9WSpP4Izp69vTX7s9cGfg+qWGqoHhX83wVx9YAjpo1AUgIm4M/B7wAOBQ4DplJ9IKhn81w199chnwkMz8QOlBNDG6AhAR1wR+BzgcuB+wa9mJtAbDv5rhrz6yBHTIKApARGxh8h3+4Uy+PiBeZgAAHANJREFU47922Ym0AcO/muGvPrMEdMSgC0BE7AE8HjiKbmzg08YM/2qGv4bAEtABgywAEXFT4EjgScB1C4+j+Rj+1Qx/DYkloLBBFYCIuBOTa90fzuSGO+oHw79aW+G/H/AVvEuo2mEJKGgQf8kj4rYR8XbgS8ARGP59YvhXayX8ATLz60xOm13Z9LEkJl+r3xMRv116kDHq9QrA9DK+vwKeCFyt8DjaPMO/Wmvhv1JEPBZ4LQP5JkGd50pAAb0sANPNfU8Dng7sUXgcLcbwr1Yk/Gci4jHA67AEqB2WgJb1rgBMH2jzD8BepWfRwgz/akXDf8YSoJZZAlrUmwIQETcH/hn4rdKzaCmGf7VOhP9MRBwBvB5LgNphCWhJL/5CR8QTmDwAx/DvN8O/WqfCHyAzjwEehxsD1Q43Brak0ysAEXFrJhuRfrX0LFqa4V+tc+G/UkQ8GngDPfnGQb3nSkDDOlsApl9sXgVcq/QsWprhX63T4T/TQAk4F/gc8FPg58CF0x8vAm4E3Ba4zfTlw7rGxxLQoM4VgIi4OvByJtciq/8M/2q9CP+ZiDgceCOLlYDvAScw+W/+FPD1nPOLUETcADgEeAiT04F7LnB89Y8loCGdKgARsQ/wLuAupWdRLQz/ar0K/5kFSsAngJcBx2Xm0nsJImJ34NeBw5jc+XP3Zd9TnWYJaEBnCkBEHMbkciNb/TAY/tV6Gf4z00tyj2H9EnAZ8HbgZZn5xQbnuBXwAuD36efngeZjCahZ8c08EbElIl7M5Dt/w384XmH4b6jX4Q+QmW9mcuvttb6jPwm4U2Ye0WT4T+f4VmY+HDgQ+GSTxyoogb9nsj9irGZXB3g1WF0ys9iLybLdO5l8cvsa1msr8OAGP3eezCR4Sv93LvL6JLBHyb97Nf9ZPBLYNv1vuwx4NrBL4Xku6sCfc12vK4HHTf/bDmayUbL0TCVfW4HfKv15P4RXsVMAEXEd4H3AfYsMoDZcBjw0M4+r8039zr97IuKRwJ8Dj8nMUzowz92YfH3Zu/QsS0rg8Zn5+tkvRMTBwPGM+zbolwG/l5kfLD1InxUpABFxM+DDwC+1fnC1rdYSYPh3V0RElvqOYg0RsRfwHuCg0rMsaKfwn7EEAJaApbW+ByAifhH4DIb/WOwGvCsiHrzsGxn+3dal8AfIzB8xuYnYm0rPsoB1wx8gMz8F/AbuCXivewIW1+oKQETcick1wNdv7aDqiqVWAgx/LSoidgE+ADyw9Cxz2jD8V3IlAHAlYGGtFYCIuAPwX8CNWzmgumihEmD4a1nTPUefBe5YepYKc4f/jCUAsAQspJVTANN7+n8Uw3/sNn06wPBXHXJySeqDgHNKz7KBTYc/eDpgytMBC2i8AEw3/H0UuFnTx1IvzF0CDH/VKTNPBx7K5JLFrlko/Lf/ZksAWAI2rdECEBE3ZhL+t27yOOqdyhJg+KsJmfkx4NWl51hlqfDf/iaWALAEbEpjewAi4ppMvhDerZEDaAjW3BNg+KtJ029MTgeuXXoWagr/ldwTALgnYC6NrABERDC5R7jhr43stBJg+Ktpmflj4EWl56CB8AdXAqZcCZhDIysAEfHXwHNrf2MN1WVMzs3eDMNfLZiuUJ4G3LTQCI2E/0quBACuBGyo9gIQEQ9h8mCfPn4RVzmXA7vSz88bw7+HIuKPmRTOEs4BDsrM/2nyIJYAwBKwrloLQETcBfg0cK3a3lTqNsO/pyLiBsAPmRTPEn4IHGoJaIUlYA217QGIiBsCx2H4azwM/x7LzJ8xuTNpKb8AfDwiGr05kXsCAB8lvKY6NwH+C3CLGt9P6jLDfxjeXfj4loD27M6kBPxm6UG6opZTABHxWKCxzSxSxxj+AzG9JPAHFHgw2io/BA7JzG82eRBPBwCwlcnpgA+VHqS0pQvA9Da/X6Ib19RKTTP8ByYiPg3cq/QcWALaZAlgydY7fcrWsRj+GgfDf5i+UXqAqdnpgDs0eRBPBwCT0wHvHfvpgGWXvf4cOKiOQaSOM/yH6/TSA6xwEywBbRl9CVi4AEwv+XtufaNInWX4D1uXCgBYAto06hKwzArAK4Cr1TWI1FGG//B1rQCAJaBNoy0BCxWAiHgkcHDNs0hdY/iPw1mlB1iHJaA9oywBm74KICL2AL5JuXtoS20w/EciIq4P/Kz0HBv4AZM7Bnp1QPNGdXXAIisAz8Hw17AZ/uPS9auYXAloz6hWAjZVAKafgE9taBapCwz/8enDd7yzEnD7Jg9iCQBGVAI2uwLwUtz4p+Ey/Mep6ysAMzcBTrAEtGIUJWDuAhARBzL5pJCGyPAfr74UALAEtGnwJWAzKwDPaWwKqSzDf9zuXHqATbIEtGfQJWCuAhAR+wOD/B+g0TP81cdLmt0T0J7BloB5VwD+stEppDIMf0F/b2d+UywBbRlkCai8D0BE/CLwFSBamUhqh+Gv2ZVN/1N6jiWdzeQ+Aac2eRDvEwAM7D4B86wA/CWGv4bF8NdMH5f/V3MloD2zlYBBbIjfcAUgIvZmcpvMXVqbqBsSeCDw5dKDbMLVgP8CblV4jq4z/LVdRHwCuE/pOWriSkB7tgL/KzOPLz3IMqoKwF8zzif+vTEzH1t6iM2KiN8B/q30HB1m+Gu76ebmk0vPUTNvG9ye3peAdQtARGwBvgXs3eZAHXAecIfM/HHpQRYRER/EKzbWYvhrBxHxJuDw0nM0wBLQnl6XgI32ADyA8YU/wHP6Gv5TRzL5pNRVDH/tICJ+Afj90nM0xGcHtGd34F/7uidgowLwhNam6I7/Bv6p9BDLyMwzgBeVnqNDDH+t5Uhgt9JDNMgS0J7eloA1TwFM2/F3gV1bn6icBA7KzM+UHmRZEXEN4Ou4IdDw104i4k7AFxh2AZjxdEB7enc6YL0VgMcwrvCHyca/3oc/QGZeAvxJ6TkK+zbwO4a/VoqIqwHHMo7wB1cC2tS7lYD1CsDDW52ivPOAPy89RJ0y8zhgEDerWMA24CGZeU7pQdQ5zwXuUnqIllkC2tOrErBTAYiIW9K/h2Ms69mZ+ZPSQzRgrBsC/y0zh3Z5l5Y0faLpoIr+JlgC2tObErDWCsCDWp+irC8C/1x6iCZMNwS+sPQcBbyy9ADqpL2Y7PUZK0tAe3pRAnbaBBgR/wHcr8w4rRvMxr/1TDcEfg24delZWrINuEZmbis9iLonIg4D3sb49jit9APgEO8Y2IpObwzcYQUgIvYE7ltolhLeMOTwh1FuCDzL8Nd6MvPdTPY4jflz5CbACT47oBWdXglYfQrgAYxnd+y5wDNLD9GGzHw/8MHSc7TkvNIDqNssAYAloE2dLQGrC8CDi0xRxlA3/q3nSODS0kO04BalB1D3TUvAI7AEWALa0ckSsLoA/FqRKdp3CgPd+LeezDyTcWwIvHFEXLP0EOq+zHwXlgBLQHs6VwK2F4CIuAWTT4ahS+ApmXll6UEKOJrJ452HLIBfLj2E+sESAFgC2tSpErByBeCexaZo1xsy87OlhyghMy9lHBsCDyg9gPrDEgBYAto0KwEPLD3I2ArAuYz3RiDA9g2BHyg9R8PuUXoA9YslALAEtGl34N9Kl4CVBeDAYlO05y8z86elh+iAP2HYGwItANo0SwBw1c2CLAHNK14CtgBExO7A3UoN0ZJTgFeXHqILphsCjy49R4NuMX2ipbQplgAAbooloC1FS8BsBWB/hn39fwJ/PNKNf+t5IXBm6SEa5D4ALcQSAFgC2lSsBMwKwNCfjvX6zDyp9BBdMoINgRYALWxaAh6JJcAS0I4iJWBWAPZp86AtO4eR3PFvszLzA8D7S8/RkEYfeKLhy8x3YgmwBLSn9RIwKwC3a+uABbjxb2ND3RA4locfqUGWAMAS0KZWS8DQC8DJwL+UHqLLMvMs4AWl52jAbUoPoGGwBACWgDa1VgJi+roYuHrTB2tZAgdm5udKD9J1EXF1Jo8MHlpoXjczzy89hIYhIh4GvIVxP0r4bOBQHyXciq3A72bmh5s6wBbg5gwv/AFeZ/jPZ7oh8MjSczRgaIVGBa1YCbii9CwFuRLQnsZXArYwzOX/c4BnlR6iTzLzg8BxpeeomfsAVKtpCXgElgBLQDsaLQGzFYCh+Qs3/i3kT4BLSg9RI1cAVDtLAGAJaFNjJWALcJ2637SwLwCvKT1EH2XmtxjWHQJvWHoADZOnAwBLQJsaKQFbgD3rfMPCxvyo37q8EDij9BA1GdLntjomM9+BJWBWAhq9l4wlAGigBAxtBeC1bvxbTmZuZTgbAq9degANmyUAmJSAEywBrai1BAypALjxryaZ+SHgfaXnqIErAGqcJQCwBLSpthIwpFMAz8rMn5UeYkCOov8bAl0BUCssAYAloE2zEnDoMm8ylBWAzwOvLT3EkEw3BPb9DoEWALXGEgBYAto0KwF3W/QNtgDXqG+eIq7EjX9NeRFweukhljCU1S31hCUAsAS0aU/g+Ii47SK/eQv9v7/1f2Tm50sPMUTTDYH/UHqOJexSegCNjyUAsAS0aS/gwxGx22Z/4xbg8vrnadWvNn0d6lhFxBbgiaXnWMLW0gNonKYl4FFYAiwBzUvgBZl52WZ/4xBWAHYDXl56iIF6ErB/6SGWsOm/EFJdMvPtWAIsAc1K4PGZ+fpFfvMQVgAA7h8RDyk9xJBExA2Bvy09x5JcAVBRlgDAEtCUpcIfhrECMPPSiLhm6SEG5GjgeqWHWJIFQMVZAgBLQN2WDn8YzgoAwN7As0sPMQQRcSDwuNJz1MACoE6wBACWgLrUEv4wKQB9v9nLSk9zQ+Byphv/XglE6Vlq4B4AdYYlALAELKu28IdJAfhRHW/UEW4IXF7fN/6tdH7pAaSVLAGADxBaVK3hD5MC8MO63qwj3BC4oIi4Ef3f+LfS90sPIK02LQGHM+4ScDMsAZtRe/jDMAsAuCFwUUPY+LeSBUCdlJlvwxJgCZhPI+EPwy0AbgjcpOnGv8eWnqNm3ys9gLQeSwBgCajSWPjDcAsAuCFwbgPb+LeSKwDqNEsAYAlYT6PhD8MuAG4InN8fMZyNfytZANR5lgDAErBaAk9oMvwBIjOJiHMY1rnflQ7LzPeUHqKrphv/vsnw/vyvBHbPzKHc6EoDFxEPB45l3A+x+j5waGae1uRBIuJg4HhgjyaPs6BZ+L+u6QNtmf74taYPVNBLI+JapYfosKFt/Jv5juGvPnElAHAloLXwh3EUADcErmOgG/9mvlJ6AGmzLAHAVSXgdk0epIMloNXwh6sKwFfbOmAhfxoRdyg9RJcMeOPfzJdKDyAtYloCHo0l4IQRlYDWwx/GUwDcELizoW78m/ly6QGkRWXmW7EEjKUEtBL+EXGdiHjVDr823QR4Q+AnTR68I9wQyKA3/q10x8z8ZukhpGVExCOAN+HGwEMy8/QmD1JoY2Br4Q/8O3AAcPPMPBumKwCZ+VOG9UyA9bghcGKoG/9mLgEa3UUstcGVAGC4KwFth/89mJzy/a3Zv9uy4uO+2OQQHTH6DYED3/g387XMvLL0EFIdLAHA8EpAW+G/J1eF/8yaBeCEJgfpkNFuCJxu/HsVw934N3NS6QGkOlkCgHZLwHOaPATthf9/sGP4A/x6ROwOOxaAjzc5TIeMeUPgHwF3Kz1ECz5aegCpbpYAoIUSMN0L8PyG3r50+ANcCzgUdiwAJwMXNjlUh9wvIg4rPUSbphv//m/pOVpwJeNZzdLITEvAEVgCGikBEXFvmtsImMATC4f/zG/BigKQmVcAn2xysI55ycg2BA5949/MKZl5bukhpKZk5luwBNReAloK/9c28N7bzRn+AL8JO64AwHhOA8CINgSOZOPfzMdKDyA1zRIA1FgCIuI+TMK/iW8Kuxb+ALeJiGuvLgAn1D5Vtw1+Q+CINv7NeP5fo2AJAGooAdPw/xDjCf+Z260uAKcw3McDr2UMGwLHsvEP4DLgU6WHkNpiCQCWKAERcV/GGf4A++xQAKbXTr+7rsF6YrAbAke08W/m3zPz4tJDSG2yBAALlIBp+H+QcYY/rLECAPDO5UbqpaFuCHwh49j4N/O20gNIJawoAWO+AdbcTxGMiEMYRvivvsnPZuyzVgH4FJN7L4/J4DYERsQ9gceUnqNFFwHHlR5CKmVaAh7NuEvAzakoAQML/wOXeJudC0BmJvCuJd60rwazIXAEj/pdy3GZeVHpIaSSXAkANigBK8L/mg0ct0/hD+ucAoBxngYY0obAJzOejX8zLv9LQGa+GUvATiUgIg7F8F9pr5h8w7/TQQI4C7hlDQfpm4dmZm83Qk43/p0KXLf0LC06F/iFzLys9CBSV0TEo4Bj2Pl+L2PyPSa3vd0b+ACG/w7W/MSYngb4l7oO0jN93xD4QsYV/gDvNPylHbkSAExWAv6LZsP/SX0Mf4A1VwCmB7wR8F1g9zoP2BNHZ+azSg+xWdONf59mXOf+Ae6cmV8pPYTURa4ENGYW/q9p8iBNhT9s8AmRmT8B3lH3AXuidxsCI2IXxrfxD+Djhr+0PlcCGtH78IcNVgCmB/8V4PNNHLgHLgW2lh5iE7YA1y49RAG/m5nvKz2E1HWuBNRmEOEPFQVgOsRnmhxAWsJZwO2md7CUVMESsLTBhD/M90kwlEvjNDyvMPyl+U1PBzwGTwcsYlDhD/OtAFwNOI1xXhKo7roIuFlmnl96EKlvIuJw4I24EjCvwYU/zPGHn5mXA89rYRZpM15u+EuLycxjcSVgXoMMf+CHlSsAABGxK/B1YJ/GR5KqnQvcJjPPKz2I1GeuBFRqM/w/DNyzyeOs8sm5/tAzcxvwNw0PI83raMNfWp4rARsacvgDnDbXCgBsf8DMV4D9Gh1J2tjZTHb+X1J6EGkoXAnYydDDH+CZc/9hT3db/1WDw0jz+BvDX6qXKwE7SOCPBh7+sJkVANj+kKCTgLs3NpK0vlOBX5yekpJUs4h4NPAGxrsSMAv/Rp+FExHXZrLhr1T4A9x5U3/I04cEPRlbosp4uuEvNScz3wQ8lnF+jR9T+Cdw+qZbXmaezOSe81Kb3pOZ7y89hDR0Iy0BYwp/gG9k5iWLLvM8G/hBndNIG7gAOLL0ENJYjKwEjC38AT4EC57nycwLgKNqHUda319k5tmlh5DGZCQlYIzhD/BBmONWwBuJiA8DD6hrImkNJwH38p7/UhkD3hg41vC/ALhhZl6+7B/oU4Cf1zCQtJZtwBMNf6mcga4EjDX8Af5jeov/5RpdZp7BpARITXheZn659BDS2A2sBIw5/GG6/A9LngLY/iYRbwIOX/qNpKt8FLi/3/1L3RERRwCvp7+nA8Ye/gncJDN/BPUVgD2AU/BhQarHj4C7ZuYPSw8iaUc9LgFjD3+Az2XmPWY/qeUPMDN/Dvw+cFkd76dRuxJ4pOEvdVNmHgM8jn6dDkjgyS2Ff8nb+1bZ4R4+tTW4zPwi8Iy63k+j9beZ+dHSQ0haX89KwCz8X93kQVaE/72aPM4SzgbevvIXal3Cycx/BN5R53tqVE7Ax05LvdCTEmD4X+XlmbnDKn0tewB2eMOIqwMfo7tLIOqm04B7ZubPSg8iaX4d3hNg+F/lImDvzDx35S/W/geWmZcCvwOcVfd7a7B+Cvym4S/1T0dXAgz/Hb1+dfhDAysA2984Yl/gROC6jRxAQ3EJ8GuZ+ZnSg0haXEQ8Bngd5VcCDP8dXQHcPjPPXP0vGvuDysxvAA8BLm/qGOq9K4FHGf5S/2XmG4E/pOxKgOG/s39dK/yh4aaWmR8DnsTkD0Va7emZ+d7SQ0iqR+ESYPjv7GI2uDqv8aWazHwD8GQsAdrR32XmS0sPIalehUqA4b+2v8rMdffjNbYHYKcDRTwR+GcgWjmguux5mfnXpYeQ1JwW9wQY/ms7GbhHZl6x3ge0VgAAIuIJwKuxBIzZX2Xm80sPIal5LZQAw39t24C7Z+Z/b/RBre7WzMzXAE/A0wFj9SzDXxqPhk8HJPDHhv+a/qEq/KHlFYDtB414HPAvwC6tH1ylPD0zX1x6CEnti4jHAq+lvm86Z+H/zzW935p6Gv6nA3ea3pNnQ0Wu18zM1wMPBi4scXy1ahvwRMNfGq/pZvDHU89KQJvhfzz9Cv9twOPmCX8oeMOGzPwQcDDw3VIzqHHnAPefnvqRNGI1lYC2w/+gJo/TgD/KzE/O+8FF79iUmV8GDgA+X3IONeKbwIGZ+fHSg0jqhiVLgOG/sRdk5us28xuK7AHYaYiIawBvAg4rPYtq8Z/AwzLzvNKDSOqeBfYEGP4bewfw8NxkoJe+ZzMAmXkJ8DDgeXTrgRLavFcyebCP4S9pTZtcCTD8N3Yi8JjNhj90ZAVgpYi4L3AssHfpWbQp5wJPysx3lR5EUj/MsRLQVvjvwWS3f9/C/wwmp1p/ushv7sQKwEqZ+QngLsC7S8+iuZ0A3Nnwl7QZ05WAP2TyxLqd/jWG/0Z+yGS1daHwhw4WAIDMPDczH8rkE+Oi0vNoXZcDz2LyON/vlR5GUv9Mbxb0ECaPBt/+yxj+G/kqk9v8nrrMm3TuFMBqEbEP8GYmVwuoO04FHpGZJ5ceRFL/RcRBwPuB6wJPycx/avh4fQ3//wQOy8wLln2jzhcAgIjYwuSJgn8LXKfwOGN3GfAPwN9m5sWlh5E0HBGxH3DAdFWgyeP0Nfxfy+TZB9vqeLNeFICZiNiLSfg8qvQsI/Vh4MjMPK30IJK0iJ6GfwJ/kZlH1/mmvSoAMxFxKJPLzfYtPctIfAt4amb+W+lBJGlRPQ3/S5hc5vfOut+4k5sAq0zvLncX4JlMLj9TMy4Bng/sZ/hL6rOehv9HmTzYp/bwh56uAKwUEXsCRwFPZbJ5RMu7CPhnJo+U/GHpYSRpGdPwP57J82f64GfA0zLzmCYP0vsCMBMR12FSAo7CjYKLupDJqZWXZOZPSg8jScvqYfi/hckp18a/Bg+mAMxExPWAPwWeAlyv8Dh9cT7w/4CXZeY5pYeRpDr0LPy/xeRpfv/e1gEHVwBmpg8YehiTywfvUXicrvoyk6X+N2fmhaWHkaS69Cj8zwBeCrx++lyc1gy2AKwUEXcF/gh4JLBH4XFKu5TJk6NenZmfKT2MJNWtJ+F/EpPL2t+bmUUegjeKAjAzfdrTI4CHAvcFdi07Uau+BLwROCYzvXJC0iB1PPwTOI7JButPlR5mVAVgpYi4PvBg4PeA+wFXLztR7bYBnwDeBxyXmd8uPI8kNS4i7sDk1O9vA7ctPA5MQv8U4IPAW5a9f3+dRlsAVpo2xt8AHsRkZeAWZSda2M+AjzAJ/eMz87zC80hSMdMy8NvT18G0t+p7AZN79n8I+FBXL6e2AKwhIm4J3GfF6/ZlJ1rXqcCnV7y+mf6BStJOppeKP4DJ1/R9pq9bALss+dYXM9nIdzrwP0y+CftkZl6+5Ps2zgIwh+kzCA5gcuvhO05f+9LejYfOZxL2s9eXgBO9Vl+SFhcRuwG3ZlIGbjf98fpMlu3Xel0J/Ag4jUngnw6c3ddvvCwAS5gWg32BWwE3BG40fd1wxY/XBmLFa8uKf94KnLPq9bPpj2czCfvTMvPHbf03SZLG4f8DvRFtdljjBKgAAAAASUVORK5CYII=;" parent="1" vertex="1">
          <mxGeometry x="474" y="361" width="52" height="52" as="geometry" />
        </mxCell>
        <mxCell id="ZyRGwzsniOqlc5HnI02d-43" value="" style="shape=image;imageAspect=0;aspect=fixed;verticalLabelPosition=bottom;verticalAlign=top;rounded=1;shadow=0;sketch=0;fontFamily=Tahoma;fontSize=16;strokeColor=#000000;strokeWidth=2;fillColor=#ffffff;gradientColor=#ffffff;image=data:image/png,iVBORw0KGgoAAAANSUhEUgAAAgAAAAIACAYAAAD0eNT6AAAABHNCSVQICAgIfAhkiAAAAAlwSFlzAAADUgAAA1IBEAAkSgAAABl0RVh0U29mdHdhcmUAd3d3Lmlua3NjYXBlLm9yZ5vuPBoAACAASURBVHic7d13uGV1fe/x93dAsCB2iQU7KiQ2EhEFFZJYUjS5EU0siBpLjPcSjMZooonRm4gmllxLYqyIvSViwSQWjIqigrFHqhU7VcrAwPf+sfcezpw556x99l5r/VZ5v55nP8MMZ/b6wpw5n8/5rd9aKzITSZLqFhF7AntPX7dY9c97AVuAXPFijZ+fDDwxM7e1N/k4hAVAkrSMiLgxcG/gYOAOXBX011nyrU8Bfj0zz13yfbSGXUscNCJuBDwbeElmfrvEDJKkxUTErYD7MAn9ezMJ/boZ/g1rfQVgGv4fBe4EXAq8GHhBZl7U6iCSpLlExB2BQ7kq8G/e8CEN/xa0WgBWhf9KPwCeBbwpPSchScVFxE2ARwCHA3dp8dCGf0taKwAbhP9KXwCOysxPtzKUJGm7iLgW8L+YhP6vAbu0PILh36JWCsCc4b/SO4BnZOZ3mptKkhQRW5iE/eFMwn+PQqMY/i1rvAAsEP4zlwL/ABzt/gBJqtf0a/NTgSOAmxYex/AvoNECsET4r3Q2k/0Bx7o/QJKWExE3AP4M+N/AtQqPA4Z/MY0VgJrCf6XPM9kfcGJN7ydJoxER1weeBhxJuWX+1Qz/ghopAA2E/0pvB/7c/QGSVC0irstkqf8oYM/C46x0MnA/w7+c2gtAw+E/cwmT/QEvdH+AJO1sehveo5iE/3ULj7Oa4d8BtRaAlsJ/JfcHSNIqEfFE4GjgeqVnWYPh3xG1FYAC4b+S+wMkjV5E3Bp4DZPL+rrI8O+QLXW8SeHwB7g78OmIeGtE3KLQDJJUREz8b+ArGP6a09IrAB0I/9XcHyBpNCJiH+B1TO7R31WGfwctVQA6GP4rfZ/J/oA3uz9A0tBM7+D3VOD5wDUKj7MRw7+jFi4AHQ//lT7HZH/AZ0oPIkl1iIh9gdcDB5aepcLJTK7zP6/0INrZQnsAehT+AAcAJ073B+xdehhJWkZEPILJDXQMfy1l0wWgZ+G/0sOBb0bE30TENUsPI0mbFRHPBd4CXL3wKFW+gOHfeZs6BdDj8F/t+8Azgbe4P0BS10XE1YE3AH9QepY5fIHJOX/Dv+PmLgADCv+VTmKyP+CzpQeRpLVExI2B99H9JX8w/HtlrlMAAw1/gHsw2R/wFvcHSOqaiPglJhuZDX/VrnIFYMDhv9rFwN8DL8rMi0sPI2ncIuKBwDvo1gN81mP499CGBWBE4b/S95jsD3ir+wMklTC9q9/LgF1KzzIHw7+n1j0FMNLwB7g58GbgMxHRh2U3SQMSEX8OvBzDXw1bcwVgxOG/WgJvBZ6Zmd8rPYykYZs+xe/VpeeYk+HfczsVAMN/TRcDLwL+3v0BkpoQEb/P5BuOWh7S1jDDfwB2KAARcQPg4xj+63F/gKTaRcRvMLnU72qlZ5nD54H7G/79t7ppXg78QolBemK2P+DEiLhH6WEk9V9EHAy8B8NfLduhAGTmBcCzC83SJwcy2SR4bETcvPQwkvopIu4KfIBuP81vxvAfmLX2AGwBvgjcuchE/TPbH/CizLyk9DCS+iEibg98Erhx6VnmYPgP0HpXARwKfKz9cXrtu0z2B7zN/QGSNjK98+ingFuUnmUOhv9ArXsjoIj4V+B32x1nEN6dmQ8tPYSkboqIqzEJ/wNKzzIHw3/ANioAtwW+DuzW6kT9dxlwXU8HSFpLRLwI+LPSc8zh80wu9Tu/9CBqxrrXm2bmGcA/tjjLUOwG3LP0EJK6JyIeADy99BxzMPxHoOqGE/8X+HEbgwzMIaUHkNQtEbEXcAwQpWepYPiPxIYFwMsCF3Zo6QEkdUdEBHAssFfpWSoY/iMyz+OAtwCnAHdpZaJhcB+ApO2mD/g5uvQcFT7HZMOf4T8SlfeczswrgaNamGVIdgPuVXoISeVN7xr6/NJzVDD8R2iuh05k5gnAvzY7yuB4GkAauYi4DvA2un2bX8N/pDbz1KmnA1ubGmSADik9gKTiXgXcuvQQGzD8R2zuApCZZ+JlgZtxQERcs/QQksqIiPsAjyg9xwYM/5Gr3AS4wwdHXBs4je7vZO2K+2fmf5YeQlK7prv+Pw/8culZ1mH4a1OnAMjMC/GywM04pPQAkoo4HMNfHbepFQDYflngycBdG5loWE7MzINKDyGpPdNTf6cCNys9yxoMf223qRUA8LLATbp7RFyr9BCSWvVnGP7qgU0XAIDM/ATwnppnGaKrAa4ASCMRETcFnlF6jjWchOGvVRYqAFN/hpcFzuOQ0gNIas3fAV27+udU4AGGv1ZbuABk5lnAS2ucZagOKT2ApOZFxP7Ao0vPscpW4A8Mf61lmRUAmLTdH9UxyIDdPSL2KD2EpMa9hO496e+FmfnF0kOom5YqANPLAv+yplmGalfcByANWkQcDNy39ByrXAm8tvQQ6q5lVwAA3gDYMDd2SOkBJDXqj0sPsIaPZeZ3Sw+h7lq6AHhZ4Fx8MJA0UBGxF3BY6TnW8I3SA6jb6lgBIDP/C3h3He81UL/sPgBpsJ5AN5/2d3bpAdRttRSAqWfgZYHr2RU4uPQQkuoVEbsATyo9xzrq/PquAartE2R6WeBL6nq/AfI0gDQ8vwPcvPQQ6/B27dpQ3Q3x74Af1vyeQ3FI6QEk1a6Lm/9m9i89gLqt1gKQmT8H/qLO9xyQX54+TlnSAETEHYFfKz3HBm4bEfuVHkLd1cQ5omOAUxp4377bBfcBSEPS5e/+Zx5WegB1V+0FwMsCN+Q+AGkApo/8PaL0HHN4aOkB1F2N7BLNzE8C72rivXvukNIDSKrFrwN7lh5iDvt5GkDrafIykWcAlzb4/n20f0T04YuGpI39RukBNsHTAFpTYwUgM7+FlwWutgtw79JDSFpanwqApwG0pqZvFPEC4AcNH6NvDik9gKTFRcS+wC1Lz7EJ+0XEL5YeQt3TaAHwssA1HVJ6AElL6dN3/zOuAmgnbdwq8hjg5BaO0xf7R8QtSg8haWEWAA1C4wUgMxMvC1xpC/D40kNI2ryIuBZwn9JzLMDTANpJKw+LyMxPAe9s41g98cSIuEHpISRt2q8Cu5UeYkGuAmgHbT4tyssCr7IX8OaIiNKDSNqU3yw9wBIsANpBawUgM78NvLit4/XAA4EXlh5C0qY8sPQAS/A0gHbQ9vOivSxwR38WES8oPYSkahGxF3Cr0nMsyVUAbddqAcjMi4BntXnMHnimJUDqhSHcUte7Amq7tlcAAN4EfKHAcbvMEiB13xCWz/f1NIBmWi8AXha4LkuA1G1DWAEATwNoqsQKAJn5aeAdJY7dcZYAqbuGUgA8DSAAYvINeYEDT+6G9z/ANYoM0G1HZ6Z7JaQOiYgfAzcqPUdNfikzv1Z6CJVVZAUAIDO/g5cFrseVAKlDIuKGDCf8wdMAomABmDoaOLvwDF1lCZC6YyjL/zOeBlDZAuBlgZUsAVI3DK0AeDWAiq8AABwLfL70EB1mCZDKG2JYugowcsULgJcFzsUSIJV1u9IDNMB9ACNXvAAAZOaJwNtKz9FxlgCpnGuXHqABngYYuU4UgKmnAs8BPgpcUniWrrIESGXsUXqAhngaYMSK3QdgIxGxG3AAcMj0dS+8X8BK3idAalFEnMYwTwN8IzOHtsFRc+pkAVhtRSE4lEkhuCcWAkuA1JKIOBu4Sek5GnKnzPxq6SHUvl4UgNWmheAeXLVCMNZCYAmQWhAR5wN7lp6jIc/LzL8uPYTaFRFP7mUBWG1FIVi5QnD1kjO1yBIgNSwitgG7lJ6jIZ4GGJmIeDLwykEUgNUiYnd2XiEYciGwBEgNiYirM/yNyZ4GGIlZ+AMxyAKw2opCMFshOJDhFQJLgNSAiLgB8NPSczTM0wAjsDL8oad7AJY1LQQHctUKwVAKgSVAqllE3BL4Vuk5GuZpgIFbHf4w0gKw2opCcD/g0cDeZSdaiiVAqlFE7AeM4dG5ngYYqLXCH7p1I6BiMnNrZn4iM58N3Ap4MPCdslMtzJsFSfXaVnqAlnhr4AFaL/zBArCTzLwyM98P3A04vvQ8C7IESPU5p/QALfGugAOzUfiDBWBdmXkO8CDgLaVnWZAlQKrHucAYzpXeMSJ+qfQQqkdV+IMFYEOZeQVwBJYAabSmXwcuKD1HSzwNMADzhD9whQWggiVAEp4GUE/MGf4AF1oA5mAJkEZvLAXA0wA9tonwB7jAAjAnS4A0amMpAOBpgF7aZPiDBWBzLAHSaI2pAHgaoGcWCH/wFMDmWQKkURpTAfA0QI8sGP7gCsBiLAHS6IypAICrAL2wRPgDnG8BWJAlQBqVoT8MaDX3AXTckuEPcLoFYAmWAGk0vl56gJZ5GqDDagh/gK9aAJZkCZBG4ZTSAxTgaYAOqin8Ab7m0wBrEhG7AMcAjyw9y4J8iqC0gYj4Dv1+Uuhm/U9m7lt6CF2lxvC/AriWKwA1cSVAGryxrQLcMSLuVHoITdQY/gCnZ+ZWC0CNLAHSoH2x9AAFuBmwA2oOf4CvgQ8Dqp0lQBqssa0AgAWguAbCHywAzbEESIM0xgLgaYCCGgp/sAA0yxIgDUtmfh/4Sek5CnAVoIAGwx8sAM2zBEiDM8ZVAAtAyxoO/23AqWABaJwlQBqUMRaAO0bEwaWHGIuGwx/gpMy8DCwArbAESIPx1dIDFPLKiNi19BBD10L4A3xo9g8WgJZYAqRB+FbpAQq5M3Bk6SGGrKXwhxUFwDsBtsw7Bkr9FRG3As4qPEYpPwf2y8zvlh5kaFoM/x9k5k1nP3EFoGWuBEi9dpPSAxS0B/CFiDi89CBD0mL4Axy/8icWgAIsAVJv3b70AIXdGHhTRHw8InxOwJJaDn9YsfwPFoBiLAFSL/126QE64hDgSxFxXEQcHhF7lh6obwqE/zbgP3eYwT0AZbknQOqHiLgJ8B3A3fA72wr8B/Au4H2ZeUHheTqtQPgDfCIzD1n5C64AFOZKgNQbL8HwX8/uwIOANwE/nq4MPMqVgZ0VCn9YtfwPrgB0hisBUndFxFHAS0vP0UOzlYF3AseNfWWgYPgD/FJmfm2HeSwA3WEJkLonIh7J5O/lLqVn6blRl4HC4f+FzLz76l+0AHSMJUDqDsO/MVuBf2eyZ2DwZaBw+AM8NjPfuPoXLQAdZAmQyjP8WzPoMtCB8P8ZcPPMvHT1v7AAdJQlQCrH8C9mUGWgA+EP8PeZ+Yy1/oUFoMMsAVL7DP/O6HUZ6Ej4XwncLjPXvH21BaDjLAFSewz/zpqVgXcC7+96GehI+AN8MDPXvXmVBaAHLAFS8wz/3uh0GehQ+AP8ZmYev96/tAD0hCVAao7h31udKgMdC/8zgH1yg5C3APSIJUCqn+E/GFuBD3PVnoEL2zx4x8If4OmZ+eKNPsAC0DOWAKk+hv9gtVoGOhj+5wK3yczzNvogC0APWQKk5Rn+o9FoGehg+AM8LTNfUvVBFoCesgRIizP8R6vWMtDR8D8D2C8zL6v6QAtAj1kCpM0z/DV1KTtuIJy7DEy/9j4X+Eu6Ff4AD83Md8/zgRaAnrMESPMz/LWOuctAROwLvAo4pJ3RNuXEzDxo3g+2AAyAJUCqZvhrTpcCHwFOAv4bOAe4KXBL4DDgwHKjVbpnZn523g+2AAyEJUBan+GvEXhHZv7BZn6DBWBALAHSzgx/jcBWYN/17vm/ni0NDaMCMvMK4AjgLaVnWdAzI+IFpYfQcBj+GomXbzb8wRWAQXIlQDL8NRrfAe6cmedv9je6AjBArgRo7Ax/jcSVwKMWCX+wAAyWJUBjZfhrRP4uMz+56G/2FMDAeTpAY2L4a0Q+C9w7M7ct+gYWgBGwBGgMDH+NyIXAXTPzzGXexFMAI+DpAA2d4a+Recqy4Q8WgNGwBGioDH+NzFsz89g63shTACPj6QANieGvkfkWcJfMvKCON3MFYGRcCdBQ9Dz8zwT87kubcRnwyLrCHywAo2QJUN/1PPxPAvYHnoIlQPO5Enh0Zp5Y55taAEbKEqC+GkD4PyAzz8/Mf8ISoPn8SWa+o+43tQCMmCVAfTOU8J/9giVAc/jbzHxFE2/sJkC5MVC9MLTwXykingy8EohWp1LXvS4zH9/Um1sABFgC1G1DDv8ZS4BWOQ74velKbSMsANrOEqAuGkP4z1gCNPUp4P6ZeUmTB7EAaAeWAHXJmMJ/xhIwel9lco//85o+kJsAtQM3Bqorxhj+4MbAkfsak8+bxsMfLABagyVApY01/GcsAaP0ceCgzDy7rQNaALQmS4BKGXv4z1gCRuWtwAPr+LzZDAuA1mUJUNsM/x1ZAkbhhcCjMvOytg/sJkBVcmOg2mD4r8+NgYN0BfB/piWvCAuA5mIJUJMM/2oR8Xbg95s8hlpzMfDwzDyu5BC7ljy4+iMzr4iII6Y/7WMJeGZEYAnoHsO/2nQF4GFNHkOt+Qnw25n5udKDuAdAc3NPgOpm+Fdz+X9QPg3cowvhDxYAbZIlQHUx/KsZ/oNxGfAXwH0y86zSw8y4B0ALcU+AlmH4VzP8B+OrwOGZ+d+lB1nNFQAtxJUALcrwr2b4D8KVwIuBX+li+IMrAFqSKwHaDMO/muE/CN8GjsjMT5QeZCOuAGgprgRoXoZ/NcN/EI4B7tz18AcLgGpgCVAVw7+a4d97X2JyO9/HZOYFpYeZhwVAtbAEaD2GfzXDv9fOYHIK9G6Z+e+lh9kM9wCoVu4J0EqGfzXDv7d+CDwfeE1mXl56mEVYAFQ7S4DA8J+H4d9L5wN/D7wsMy8qPcwyLABqhCVg3Az/aoZ/71wKvAJ4QWaeU3qYOlgA1BhLwDgZ/tUM/145HXgd8IbM/FHpYepkAVCjLAHjYvhXM/x7YSvwXuA1wAk50KC0AKhxloBxMPyrGf6d93UmoX9sZv6s9DBNswCoFZaAYTP8qxn+nXUB0+/2M/PE0sO0yQKg1lgChsnwr2b4d8o24LPAR4D/BD6XmdvKjlSGBUCtsgQMi+FfbQDhfyFwHJPl8bOA6wG3BPYF9gduVm60uX2DSdh/hMk5/QsLz9MJFgC1zhIwDIZ/tZ6H/wXAXzHZ/b7urW0j4sbA3ZiUgdnrNq1MuLMEvgucCnwT+Dzwkcz8fqF5Os0CoCIsAf1m+Ffrefh/GTgsM09b5DdHxHWBuzIpA/sBNwJuuOJ1PZb7/3IeV4X87MdvAqdl5iVLvO+oWABUjCWgnwz/aj0P/08Bv5GZP2/qANO/+zdg51KwDbgYuGTF6+LV/9z3O/B1hQVARVkC+sXwr2b4qy98GqCK8imC/WH4VzP81ScWABVnCeg+w7+a4a++sQCoEywB3WX4VzP81UcWAHWGJaB7DP9qhr/6ygKgTrEEdIfhX83wV59ZANQ5loDyDP9qhr/6zgKgTrIElGP4VzP8NQQWAHWWJaB9hn81w19DYQFQp1kC2mP4VzP8NSQWAHWeJaB5hn81w19DYwFQL1gCmmP4VzP8NUQWAPWGJaB+hn81w19DZQFQr1gC6mP4VzP8NWQWAPWOJWB5hn81w19DZwFQL1kCFmf4VzP8NQYWAPWWJWDzDP9qhr/GIjKz9AzSUiJiFyah9sjSsyzojzPzn5o+iOFfzfDXmLgCoN7r+UrAScBbmz6I4V/N8NfYWAA0CD0tAW0Fm+FfwfDXGFkANBg9KwGGfzXDv5rhr4VZADQoPSkBhn81w7+a4a+lWAA0OB0vAYZ/NcO/muGvpVkANEgdLQGGfzXDv5rhr1pYADRYHSsBhn81w7+a4a/aWAA0aB0pAYZ/NcO/muGvWlkANHiFS4DhX83wr2b4q3YWAI1CoRJg+Fcz/KsZ/mqEBUCj0XIJMPyrGf7VDH81xgKgUWmpBBj+1Qz/aoa/GmUB0Og0XAIM/2qGfzXDX42zAGiUGioBhn81w7+a4a9WWAA0WjWXAMO/muFfzfBXaywAGrWaSoDhX83wr2b4q1UWAI3ekiXA8K9m+Fcz/NU6C4DEwiXA8K9m+Fcz/FWEBUCa2mQJMPyrGf7VDH8VYwGQVpizBBj+1Qz/aoa/irIASKtUlADDv5rhX83wV3EWAGkN65QAw7+a4V/N8FcnRGaWnkHqrIjYhUkY3w7Dv4rhX83wV2dYAKQK0xJwjaa/aBv+1Qx/qT4WAKkDDP9qhr9UL/cASIUZ/tUMf6l+FgCpIMO/muEvNcMCIBVi+Fcz/KXmWACkAgz/aoa/1CwLgNQyw7+a4S81zwIgtcjwr2b4S+2wAEgtMfyrGf5SeywAUgsM/2qGv9QuC4DUMMO/muEvtc8CIDXI8K9m+EtlWACkhhj+1Qx/qRwLgNQAw7+a4S+VZQGQamb4VzP8pfIsAFKNDP9qhr/UDRYAqSaGfzXDX+oOC4BUA8O/muEvdYsFQFqS4V/N8Je6xwIgLcHwr2b4S91kAZAWZPhXM/yl7rIASAsw/KsZ/lK3WQCkTTL8qxn+UvdZAKRNMPyrGf5SP1gApDkZ/tUMf6k/LADSHAz/aoa/1C8WAKmC4V/N8Jf6xwIgbcDwr2b4S/1kAZDWYfhXM/yl/rIASGsw/KsZ/lK/WQCkVQz/aoa/1H8WAGkFw7+a4S8NgwVAmjL8qxn+0nBYACQM/3kY/tKwWAA0eoZ/NcNfGh4LgEbN8K9m+FeLiCMj4oFNHkOqmwVAo2X4VzP8q0XEUcA/Av9mCVCfWAA0SoZ/NcO/2jT8Xzr96e5YAtQjFgCNjuFfzfCvtir8ZywB6g0LgEbF8K9m+FdbJ/xnLAHqBQuARsPwr2b4V6sI/xlLgDrPAqBRMPyrGf7V5gz/GUuAOs0CoMEz/KsZ/tU2Gf4zlgB1lgVAg2b4VzP8qy0Y/jOWAHWSBUCDZfhXM/yrLRn+M5YAdY4FQINk+Fcz/KvVFP4zlgB1igVAg2P4VzP8q9Uc/jOWAHWGBUCDYvhXM/yrNRT+M5YAdYIFQINh+Fcz/Ks1HP4zlgAVF5lZegZpaYZ/NcO/Wkvhv9JW4F6ZeUqLx5QAVwA0AIZ/NcO/WoHwBzgT+EbLx5QAC4B6zvCvZvhXKxT+24DDM/OSlo8rARYA9ZjhX83wr1Yo/AGel5knFziuBLgHQD1l+Fcz/KsVDP+TgIMy84oCx5YAC4B6yPCvZvhXKxj+AL/sxj+V5ikA9YrhX83wr1Y4/P/L8FcXWADUG4Z/NcO/WuHwp/Cxpe08BaBeMPyrGf7VOhD+ZwL7ZOaVBWeQAFcA1AOGfzXDv1oHwh/g5Ya/usIVAHWa4V/N8K/WkfAHuFlmnl16CAlcAVCHGf7VDP9qHQr/Mw1/dYkFQJ1k+Fcz/Kt1KPxh8t8sdYYFQJ1j+Fcz/Kt1LPzBAqCOsQCoUwz/aoZ/tQ6GP1gA1DFuAlRnGP7VDP9qHQ1/gF299a+6xBUAdYLhX83wr9bh8N9q+KtrLAAqzvCvZvhX63D4A1xUegBpNQuAijL8qxn+1Toe/mABUAdZAFSM4V/N8K/Wg/AHuLj0ANJqFgAVYfhXM/yr9ST8wa+16iCvAlDrDP9qhn+1HoU/wFbgmj4HQF1iK1WrDP9qhn+1noU/wO7AzUoPIa1kAVBrDP9qhn+1Hob/zG1LDyCtZAFQKwz/aoZ/tR6HP8BtSg8grWQBUOMM/2qGf7Wehz/AnUoPIK3kJkA1yvCvZvhXG0D4A3w7M29VeghpxhUANcbwr2b4VxtI+APcMiJ+pfQQ0owFQI0w/KsZ/tUGFP4zh5UeQJrxFIBqZ/hXM/yrDTD8AU7PzH1KDyGBKwCqmeFfzfCvNtDwB7hdRNy79BASWABUI8O/muFfbcDhP3N06QEksACoJoZ/NcO/2gjCH+BeEfF7pYeQ3AOgpRn+1Qz/aiMJ/5lTgV/MzG2lB9F4uQKgpRj+1Qz/aiMLf4DbA08sPYTGzRUALczwr2b4Vxth+M9cCNwrM79aehCNkwVACzH8qxn+1UYc/jNnAQdk5k9LD6Lx8RSANs3wr2b4VzP8Abg18J6IuFrpQTQ+FgBtiuFfzfCvZvjv4D7Aq0oPofGxAGhuhn81w7+a4b+mx0fEP0ZEH/9uqafcA6C5GP7VDP9qhn+ljwAPy8xzSw8yExHXafrvjspwBUCVDP9qhn81w38uvw58LiL2LT1IROwaEc8Bvh8RDy49j+rnCoA2ZPhXM/yrGf6bdgHwpMx8e4mDR8QdgGOBu09/6TLgoZl5XIl51AxXALQuw7+a4V/N8F/InsDbIuLEiLhXWweNiF0i4k+AL3JV+APsBrwrIh7U1ixqnisAWpPhX83wr2b41+bdwDMz84wm3jwi9gQeDxwJ3HKDD70MOCwz39/EHGqXBUA7MfyrGf7VDP/aXQ4cD7wXeH9mnrPsG0bErZiE/h8yWXWYhyVgICwA2oHhX83wr2b4N24bcAKTMvA54Mx5rhyIiNsBBwH3mv64H4t9HlsCBsACoO0M/2qGfzXDv5hzgTOnrwuBawN7rPjxZsCNajyeJaDnLAACDP95GP7VDP/RsQT0mFcByPCfg+FfzfAfpd2Ad3t1QD9ZAEbO8K9m+Fcz/EfNEtBTFoARM/yrGf7VDH9hCeglC8BIGf7VDP9qhr9WsAT0jAVghAz/aoZ/NcNfa7AE9IgFYGQM/2qGfzXDXxuwBPSElwHWJCJuBOw9ff0CcA3g6tPX7iv+eTfgIibX7J4LnLfWj5l5YQMzPgp4I4b/ugz/aoa/5uQlgh1nAdiEiLgBsP/0tR9XBf7NmYR7na5gUgi+yeTBHLPX1zLzss28UUTsChwNPK3mGdti+Fcz/NVFloAOswCsIyKuy+R2mfuveG30kIy2XA58jR1LwZfWWjGIiN2AhwF/CtytzSFrZPhXM/zVZZaAjrIATE2/Sz4AuP/0dQD9WSpP4Izp69vTX7s9cGfg+qWGqoHhX83wVx9YAjpo1AUgIm4M/B7wAOBQ4DplJ9IKhn81w199chnwkMz8QOlBNDG6AhAR1wR+BzgcuB+wa9mJtAbDv5rhrz6yBHTIKApARGxh8h3+4Uy+PiBeZgAAHANJREFU47922Ym0AcO/muGvPrMEdMSgC0BE7AE8HjiKbmzg08YM/2qGv4bAEtABgywAEXFT4EjgScB1C4+j+Rj+1Qx/DYkloLBBFYCIuBOTa90fzuSGO+oHw79aW+G/H/AVvEuo2mEJKGgQf8kj4rYR8XbgS8ARGP59YvhXayX8ATLz60xOm13Z9LEkJl+r3xMRv116kDHq9QrA9DK+vwKeCFyt8DjaPMO/Wmvhv1JEPBZ4LQP5JkGd50pAAb0sANPNfU8Dng7sUXgcLcbwr1Yk/Gci4jHA67AEqB2WgJb1rgBMH2jzD8BepWfRwgz/akXDf8YSoJZZAlrUmwIQETcH/hn4rdKzaCmGf7VOhP9MRBwBvB5LgNphCWhJL/5CR8QTmDwAx/DvN8O/WqfCHyAzjwEehxsD1Q43Brak0ysAEXFrJhuRfrX0LFqa4V+tc+G/UkQ8GngDPfnGQb3nSkDDOlsApl9sXgVcq/QsWprhX63T4T/TQAk4F/gc8FPg58CF0x8vAm4E3Ba4zfTlw7rGxxLQoM4VgIi4OvByJtciq/8M/2q9CP+ZiDgceCOLlYDvAScw+W/+FPD1nPOLUETcADgEeAiT04F7LnB89Y8loCGdKgARsQ/wLuAupWdRLQz/ar0K/5kFSsAngJcBx2Xm0nsJImJ34NeBw5jc+XP3Zd9TnWYJaEBnCkBEHMbkciNb/TAY/tV6Gf4z00tyj2H9EnAZ8HbgZZn5xQbnuBXwAuD36efngeZjCahZ8c08EbElIl7M5Dt/w384XmH4b6jX4Q+QmW9mcuvttb6jPwm4U2Ye0WT4T+f4VmY+HDgQ+GSTxyoogb9nsj9irGZXB3g1WF0ys9iLybLdO5l8cvsa1msr8OAGP3eezCR4Sv93LvL6JLBHyb97Nf9ZPBLYNv1vuwx4NrBL4Xku6sCfc12vK4HHTf/bDmayUbL0TCVfW4HfKv15P4RXsVMAEXEd4H3AfYsMoDZcBjw0M4+r8039zr97IuKRwJ8Dj8nMUzowz92YfH3Zu/QsS0rg8Zn5+tkvRMTBwPGM+zbolwG/l5kfLD1InxUpABFxM+DDwC+1fnC1rdYSYPh3V0RElvqOYg0RsRfwHuCg0rMsaKfwn7EEAJaApbW+ByAifhH4DIb/WOwGvCsiHrzsGxn+3dal8AfIzB8xuYnYm0rPsoB1wx8gMz8F/AbuCXivewIW1+oKQETcick1wNdv7aDqiqVWAgx/LSoidgE+ADyw9Cxz2jD8V3IlAHAlYGGtFYCIuAPwX8CNWzmgumihEmD4a1nTPUefBe5YepYKc4f/jCUAsAQspJVTANN7+n8Uw3/sNn06wPBXHXJySeqDgHNKz7KBTYc/eDpgytMBC2i8AEw3/H0UuFnTx1IvzF0CDH/VKTNPBx7K5JLFrlko/Lf/ZksAWAI2rdECEBE3ZhL+t27yOOqdyhJg+KsJmfkx4NWl51hlqfDf/iaWALAEbEpjewAi4ppMvhDerZEDaAjW3BNg+KtJ029MTgeuXXoWagr/ldwTALgnYC6NrABERDC5R7jhr43stBJg+Ktpmflj4EWl56CB8AdXAqZcCZhDIysAEfHXwHNrf2MN1WVMzs3eDMNfLZiuUJ4G3LTQCI2E/0quBACuBGyo9gIQEQ9h8mCfPn4RVzmXA7vSz88bw7+HIuKPmRTOEs4BDsrM/2nyIJYAwBKwrloLQETcBfg0cK3a3lTqNsO/pyLiBsAPmRTPEn4IHGoJaIUlYA217QGIiBsCx2H4azwM/x7LzJ8xuTNpKb8AfDwiGr05kXsCAB8lvKY6NwH+C3CLGt9P6jLDfxjeXfj4loD27M6kBPxm6UG6opZTABHxWKCxzSxSxxj+AzG9JPAHFHgw2io/BA7JzG82eRBPBwCwlcnpgA+VHqS0pQvA9Da/X6Ib19RKTTP8ByYiPg3cq/QcWALaZAlgydY7fcrWsRj+GgfDf5i+UXqAqdnpgDs0eRBPBwCT0wHvHfvpgGWXvf4cOKiOQaSOM/yH6/TSA6xwEywBbRl9CVi4AEwv+XtufaNInWX4D1uXCgBYAto06hKwzArAK4Cr1TWI1FGG//B1rQCAJaBNoy0BCxWAiHgkcHDNs0hdY/iPw1mlB1iHJaA9oywBm74KICL2AL5JuXtoS20w/EciIq4P/Kz0HBv4AZM7Bnp1QPNGdXXAIisAz8Hw17AZ/uPS9auYXAloz6hWAjZVAKafgE9taBapCwz/8enDd7yzEnD7Jg9iCQBGVAI2uwLwUtz4p+Ey/Mep6ysAMzcBTrAEtGIUJWDuAhARBzL5pJCGyPAfr74UALAEtGnwJWAzKwDPaWwKqSzDf9zuXHqATbIEtGfQJWCuAhAR+wOD/B+g0TP81cdLmt0T0J7BloB5VwD+stEppDIMf0F/b2d+UywBbRlkCai8D0BE/CLwFSBamUhqh+Gv2ZVN/1N6jiWdzeQ+Aac2eRDvEwAM7D4B86wA/CWGv4bF8NdMH5f/V3MloD2zlYBBbIjfcAUgIvZmcpvMXVqbqBsSeCDw5dKDbMLVgP8CblV4jq4z/LVdRHwCuE/pOWriSkB7tgL/KzOPLz3IMqoKwF8zzif+vTEzH1t6iM2KiN8B/q30HB1m+Gu76ebmk0vPUTNvG9ye3peAdQtARGwBvgXs3eZAHXAecIfM/HHpQRYRER/EKzbWYvhrBxHxJuDw0nM0wBLQnl6XgI32ADyA8YU/wHP6Gv5TRzL5pNRVDH/tICJ+Afj90nM0xGcHtGd34F/7uidgowLwhNam6I7/Bv6p9BDLyMwzgBeVnqNDDH+t5Uhgt9JDNMgS0J7eloA1TwFM2/F3gV1bn6icBA7KzM+UHmRZEXEN4Ou4IdDw104i4k7AFxh2AZjxdEB7enc6YL0VgMcwrvCHyca/3oc/QGZeAvxJ6TkK+zbwO4a/VoqIqwHHMo7wB1cC2tS7lYD1CsDDW52ivPOAPy89RJ0y8zhgEDerWMA24CGZeU7pQdQ5zwXuUnqIllkC2tOrErBTAYiIW9K/h2Ms69mZ+ZPSQzRgrBsC/y0zh3Z5l5Y0faLpoIr+JlgC2tObErDWCsCDWp+irC8C/1x6iCZMNwS+sPQcBbyy9ADqpL2Y7PUZK0tAe3pRAnbaBBgR/wHcr8w4rRvMxr/1TDcEfg24delZWrINuEZmbis9iLonIg4D3sb49jit9APgEO8Y2IpObwzcYQUgIvYE7ltolhLeMOTwh1FuCDzL8Nd6MvPdTPY4jflz5CbACT47oBWdXglYfQrgAYxnd+y5wDNLD9GGzHw/8MHSc7TkvNIDqNssAYAloE2dLQGrC8CDi0xRxlA3/q3nSODS0kO04BalB1D3TUvAI7AEWALa0ckSsLoA/FqRKdp3CgPd+LeezDyTcWwIvHFEXLP0EOq+zHwXlgBLQHs6VwK2F4CIuAWTT4ahS+ApmXll6UEKOJrJ452HLIBfLj2E+sESAFgC2tSpErByBeCexaZo1xsy87OlhyghMy9lHBsCDyg9gPrDEgBYAto0KwEPLD3I2ArAuYz3RiDA9g2BHyg9R8PuUXoA9YslALAEtGl34N9Kl4CVBeDAYlO05y8z86elh+iAP2HYGwItANo0SwBw1c2CLAHNK14CtgBExO7A3UoN0ZJTgFeXHqILphsCjy49R4NuMX2ipbQplgAAbooloC1FS8BsBWB/hn39fwJ/PNKNf+t5IXBm6SEa5D4ALcQSAFgC2lSsBMwKwNCfjvX6zDyp9BBdMoINgRYALWxaAh6JJcAS0I4iJWBWAPZp86AtO4eR3PFvszLzA8D7S8/RkEYfeKLhy8x3YgmwBLSn9RIwKwC3a+uABbjxb2ND3RA4locfqUGWAMAS0KZWS8DQC8DJwL+UHqLLMvMs4AWl52jAbUoPoGGwBACWgDa1VgJi+roYuHrTB2tZAgdm5udKD9J1EXF1Jo8MHlpoXjczzy89hIYhIh4GvIVxP0r4bOBQHyXciq3A72bmh5s6wBbg5gwv/AFeZ/jPZ7oh8MjSczRgaIVGBa1YCbii9CwFuRLQnsZXArYwzOX/c4BnlR6iTzLzg8BxpeeomfsAVKtpCXgElgBLQDsaLQGzFYCh+Qs3/i3kT4BLSg9RI1cAVDtLAGAJaFNjJWALcJ2637SwLwCvKT1EH2XmtxjWHQJvWHoADZOnAwBLQJsaKQFbgD3rfMPCxvyo37q8EDij9BA1GdLntjomM9+BJWBWAhq9l4wlAGigBAxtBeC1bvxbTmZuZTgbAq9degANmyUAmJSAEywBrai1BAypALjxryaZ+SHgfaXnqIErAGqcJQCwBLSpthIwpFMAz8rMn5UeYkCOov8bAl0BUCssAYAloE2zEnDoMm8ylBWAzwOvLT3EkEw3BPb9DoEWALXGEgBYAto0KwF3W/QNtgDXqG+eIq7EjX9NeRFweukhljCU1S31hCUAsAS0aU/g+Ii47SK/eQv9v7/1f2Tm50sPMUTTDYH/UHqOJexSegCNjyUAsAS0aS/gwxGx22Z/4xbg8vrnadWvNn0d6lhFxBbgiaXnWMLW0gNonKYl4FFYAiwBzUvgBZl52WZ/4xBWAHYDXl56iIF6ErB/6SGWsOm/EFJdMvPtWAIsAc1K4PGZ+fpFfvMQVgAA7h8RDyk9xJBExA2Bvy09x5JcAVBRlgDAEtCUpcIfhrECMPPSiLhm6SEG5GjgeqWHWJIFQMVZAgBLQN2WDn8YzgoAwN7As0sPMQQRcSDwuNJz1MACoE6wBACWgLrUEv4wKQB9v9nLSk9zQ+Byphv/XglE6Vlq4B4AdYYlALAELKu28IdJAfhRHW/UEW4IXF7fN/6tdH7pAaSVLAGADxBaVK3hD5MC8MO63qwj3BC4oIi4Ef3f+LfS90sPIK02LQGHM+4ScDMsAZtRe/jDMAsAuCFwUUPY+LeSBUCdlJlvwxJgCZhPI+EPwy0AbgjcpOnGv8eWnqNm3ys9gLQeSwBgCajSWPjDcAsAuCFwbgPb+LeSKwDqNEsAYAlYT6PhD8MuAG4InN8fMZyNfytZANR5lgDAErBaAk9oMvwBIjOJiHMY1rnflQ7LzPeUHqKrphv/vsnw/vyvBHbPzKHc6EoDFxEPB45l3A+x+j5waGae1uRBIuJg4HhgjyaPs6BZ+L+u6QNtmf74taYPVNBLI+JapYfosKFt/Jv5juGvPnElAHAloLXwh3EUADcErmOgG/9mvlJ6AGmzLAHAVSXgdk0epIMloNXwh6sKwFfbOmAhfxoRdyg9RJcMeOPfzJdKDyAtYloCHo0l4IQRlYDWwx/GUwDcELizoW78m/ly6QGkRWXmW7EEjKUEtBL+EXGdiHjVDr823QR4Q+AnTR68I9wQyKA3/q10x8z8ZukhpGVExCOAN+HGwEMy8/QmD1JoY2Br4Q/8O3AAcPPMPBumKwCZ+VOG9UyA9bghcGKoG/9mLgEa3UUstcGVAGC4KwFth/89mJzy/a3Zv9uy4uO+2OQQHTH6DYED3/g387XMvLL0EFIdLAHA8EpAW+G/J1eF/8yaBeCEJgfpkNFuCJxu/HsVw934N3NS6QGkOlkCgHZLwHOaPATthf9/sGP4A/x6ROwOOxaAjzc5TIeMeUPgHwF3Kz1ECz5aegCpbpYAoIUSMN0L8PyG3r50+ANcCzgUdiwAJwMXNjlUh9wvIg4rPUSbphv//m/pOVpwJeNZzdLITEvAEVgCGikBEXFvmtsImMATC4f/zG/BigKQmVcAn2xysI55ycg2BA5949/MKZl5bukhpKZk5luwBNReAloK/9c28N7bzRn+AL8JO64AwHhOA8CINgSOZOPfzMdKDyA1zRIA1FgCIuI+TMK/iW8Kuxb+ALeJiGuvLgAn1D5Vtw1+Q+CINv7NeP5fo2AJAGooAdPw/xDjCf+Z260uAKcw3McDr2UMGwLHsvEP4DLgU6WHkNpiCQCWKAERcV/GGf4A++xQAKbXTr+7rsF6YrAbAke08W/m3zPz4tJDSG2yBAALlIBp+H+QcYY/rLECAPDO5UbqpaFuCHwh49j4N/O20gNIJawoAWO+AdbcTxGMiEMYRvivvsnPZuyzVgH4FJN7L4/J4DYERsQ9gceUnqNFFwHHlR5CKmVaAh7NuEvAzakoAQML/wOXeJudC0BmJvCuJd60rwazIXAEj/pdy3GZeVHpIaSSXAkANigBK8L/mg0ct0/hD+ucAoBxngYY0obAJzOejX8zLv9LQGa+GUvATiUgIg7F8F9pr5h8w7/TQQI4C7hlDQfpm4dmZm83Qk43/p0KXLf0LC06F/iFzLys9CBSV0TEo4Bj2Pl+L2PyPSa3vd0b+ACG/w7W/MSYngb4l7oO0jN93xD4QsYV/gDvNPylHbkSAExWAv6LZsP/SX0Mf4A1VwCmB7wR8F1g9zoP2BNHZ+azSg+xWdONf59mXOf+Ae6cmV8pPYTURa4ENGYW/q9p8iBNhT9s8AmRmT8B3lH3AXuidxsCI2IXxrfxD+Djhr+0PlcCGtH78IcNVgCmB/8V4PNNHLgHLgW2lh5iE7YA1y49RAG/m5nvKz2E1HWuBNRmEOEPFQVgOsRnmhxAWsJZwO2md7CUVMESsLTBhD/M90kwlEvjNDyvMPyl+U1PBzwGTwcsYlDhD/OtAFwNOI1xXhKo7roIuFlmnl96EKlvIuJw4I24EjCvwYU/zPGHn5mXA89rYRZpM15u+EuLycxjcSVgXoMMf+CHlSsAABGxK/B1YJ/GR5KqnQvcJjPPKz2I1GeuBFRqM/w/DNyzyeOs8sm5/tAzcxvwNw0PI83raMNfWp4rARsacvgDnDbXCgBsf8DMV4D9Gh1J2tjZTHb+X1J6EGkoXAnYydDDH+CZc/9hT3db/1WDw0jz+BvDX6qXKwE7SOCPBh7+sJkVANj+kKCTgLs3NpK0vlOBX5yekpJUs4h4NPAGxrsSMAv/Rp+FExHXZrLhr1T4A9x5U3/I04cEPRlbosp4uuEvNScz3wQ8lnF+jR9T+Cdw+qZbXmaezOSe81Kb3pOZ7y89hDR0Iy0BYwp/gG9k5iWLLvM8G/hBndNIG7gAOLL0ENJYjKwEjC38AT4EC57nycwLgKNqHUda319k5tmlh5DGZCQlYIzhD/BBmONWwBuJiA8DD6hrImkNJwH38p7/UhkD3hg41vC/ALhhZl6+7B/oU4Cf1zCQtJZtwBMNf6mcga4EjDX8Af5jeov/5RpdZp7BpARITXheZn659BDS2A2sBIw5/GG6/A9LngLY/iYRbwIOX/qNpKt8FLi/3/1L3RERRwCvp7+nA8Ye/gncJDN/BPUVgD2AU/BhQarHj4C7ZuYPSw8iaUc9LgFjD3+Az2XmPWY/qeUPMDN/Dvw+cFkd76dRuxJ4pOEvdVNmHgM8jn6dDkjgyS2Ff8nb+1bZ4R4+tTW4zPwi8Iy63k+j9beZ+dHSQ0haX89KwCz8X93kQVaE/72aPM4SzgbevvIXal3Cycx/BN5R53tqVE7Ax05LvdCTEmD4X+XlmbnDKn0tewB2eMOIqwMfo7tLIOqm04B7ZubPSg8iaX4d3hNg+F/lImDvzDx35S/W/geWmZcCvwOcVfd7a7B+Cvym4S/1T0dXAgz/Hb1+dfhDAysA2984Yl/gROC6jRxAQ3EJ8GuZ+ZnSg0haXEQ8Bngd5VcCDP8dXQHcPjPPXP0vGvuDysxvAA8BLm/qGOq9K4FHGf5S/2XmG4E/pOxKgOG/s39dK/yh4aaWmR8DnsTkD0Va7emZ+d7SQ0iqR+ESYPjv7GI2uDqv8aWazHwD8GQsAdrR32XmS0sPIalehUqA4b+2v8rMdffjNbYHYKcDRTwR+GcgWjmguux5mfnXpYeQ1JwW9wQY/ms7GbhHZl6x3ge0VgAAIuIJwKuxBIzZX2Xm80sPIal5LZQAw39t24C7Z+Z/b/RBre7WzMzXAE/A0wFj9SzDXxqPhk8HJPDHhv+a/qEq/KHlFYDtB414HPAvwC6tH1ylPD0zX1x6CEnti4jHAq+lvm86Z+H/zzW935p6Gv6nA3ea3pNnQ0Wu18zM1wMPBi4scXy1ahvwRMNfGq/pZvDHU89KQJvhfzz9Cv9twOPmCX8oeMOGzPwQcDDw3VIzqHHnAPefnvqRNGI1lYC2w/+gJo/TgD/KzE/O+8FF79iUmV8GDgA+X3IONeKbwIGZ+fHSg0jqhiVLgOG/sRdk5us28xuK7AHYaYiIawBvAg4rPYtq8Z/AwzLzvNKDSOqeBfYEGP4bewfw8NxkoJe+ZzMAmXkJ8DDgeXTrgRLavFcyebCP4S9pTZtcCTD8N3Yi8JjNhj90ZAVgpYi4L3AssHfpWbQp5wJPysx3lR5EUj/MsRLQVvjvwWS3f9/C/wwmp1p/ushv7sQKwEqZ+QngLsC7S8+iuZ0A3Nnwl7QZ05WAP2TyxLqd/jWG/0Z+yGS1daHwhw4WAIDMPDczH8rkE+Oi0vNoXZcDz2LyON/vlR5GUv9Mbxb0ECaPBt/+yxj+G/kqk9v8nrrMm3TuFMBqEbEP8GYmVwuoO04FHpGZJ5ceRFL/RcRBwPuB6wJPycx/avh4fQ3//wQOy8wLln2jzhcAgIjYwuSJgn8LXKfwOGN3GfAPwN9m5sWlh5E0HBGxH3DAdFWgyeP0Nfxfy+TZB9vqeLNeFICZiNiLSfg8qvQsI/Vh4MjMPK30IJK0iJ6GfwJ/kZlH1/mmvSoAMxFxKJPLzfYtPctIfAt4amb+W+lBJGlRPQ3/S5hc5vfOut+4k5sAq0zvLncX4JlMLj9TMy4Bng/sZ/hL6rOehv9HmTzYp/bwh56uAKwUEXsCRwFPZbJ5RMu7CPhnJo+U/GHpYSRpGdPwP57J82f64GfA0zLzmCYP0vsCMBMR12FSAo7CjYKLupDJqZWXZOZPSg8jScvqYfi/hckp18a/Bg+mAMxExPWAPwWeAlyv8Dh9cT7w/4CXZeY5pYeRpDr0LPy/xeRpfv/e1gEHVwBmpg8YehiTywfvUXicrvoyk6X+N2fmhaWHkaS69Cj8zwBeCrx++lyc1gy2AKwUEXcF/gh4JLBH4XFKu5TJk6NenZmfKT2MJNWtJ+F/EpPL2t+bmUUegjeKAjAzfdrTI4CHAvcFdi07Uau+BLwROCYzvXJC0iB1PPwTOI7JButPlR5mVAVgpYi4PvBg4PeA+wFXLztR7bYBnwDeBxyXmd8uPI8kNS4i7sDk1O9vA7ctPA5MQv8U4IPAW5a9f3+dRlsAVpo2xt8AHsRkZeAWZSda2M+AjzAJ/eMz87zC80hSMdMy8NvT18G0t+p7AZN79n8I+FBXL6e2AKwhIm4J3GfF6/ZlJ1rXqcCnV7y+mf6BStJOppeKP4DJ1/R9pq9bALss+dYXM9nIdzrwP0y+CftkZl6+5Ps2zgIwh+kzCA5gcuvhO05f+9LejYfOZxL2s9eXgBO9Vl+SFhcRuwG3ZlIGbjf98fpMlu3Xel0J/Ag4jUngnw6c3ddvvCwAS5gWg32BWwE3BG40fd1wxY/XBmLFa8uKf94KnLPq9bPpj2czCfvTMvPHbf03SZLG4f8DvRFtdljjBKgAAAAASUVORK5CYII=;" parent="1" vertex="1">
          <mxGeometry x="474" y="474" width="52" height="52" as="geometry" />
        </mxCell>
        <mxCell id="ZyRGwzsniOqlc5HnI02d-44" value="" style="shape=image;imageAspect=0;aspect=fixed;verticalLabelPosition=bottom;verticalAlign=top;rounded=1;shadow=0;sketch=0;fontFamily=Tahoma;fontSize=16;strokeColor=#000000;strokeWidth=2;fillColor=#ffffff;gradientColor=#ffffff;image=data:image/png,iVBORw0KGgoAAAANSUhEUgAAAgAAAAIACAYAAAD0eNT6AAAABHNCSVQICAgIfAhkiAAAAAlwSFlzAAADUgAAA1IBEAAkSgAAABl0RVh0U29mdHdhcmUAd3d3Lmlua3NjYXBlLm9yZ5vuPBoAACAASURBVHic7d13uGV1fe/x93dAsCB2iQU7KiQ2EhEFFZJYUjS5EU0siBpLjPcSjMZooonRm4gmllxLYqyIvSViwSQWjIqigrFHqhU7VcrAwPf+sfcezpw556x99l5r/VZ5v55nP8MMZ/b6wpw5n8/5rd9aKzITSZLqFhF7AntPX7dY9c97AVuAXPFijZ+fDDwxM7e1N/k4hAVAkrSMiLgxcG/gYOAOXBX011nyrU8Bfj0zz13yfbSGXUscNCJuBDwbeElmfrvEDJKkxUTErYD7MAn9ezMJ/boZ/g1rfQVgGv4fBe4EXAq8GHhBZl7U6iCSpLlExB2BQ7kq8G/e8CEN/xa0WgBWhf9KPwCeBbwpPSchScVFxE2ARwCHA3dp8dCGf0taKwAbhP9KXwCOysxPtzKUJGm7iLgW8L+YhP6vAbu0PILh36JWCsCc4b/SO4BnZOZ3mptKkhQRW5iE/eFMwn+PQqMY/i1rvAAsEP4zlwL/ABzt/gBJqtf0a/NTgSOAmxYex/AvoNECsET4r3Q2k/0Bx7o/QJKWExE3AP4M+N/AtQqPA4Z/MY0VgJrCf6XPM9kfcGJN7ydJoxER1weeBhxJuWX+1Qz/ghopAA2E/0pvB/7c/QGSVC0irstkqf8oYM/C46x0MnA/w7+c2gtAw+E/cwmT/QEvdH+AJO1sehveo5iE/3ULj7Oa4d8BtRaAlsJ/JfcHSNIqEfFE4GjgeqVnWYPh3xG1FYAC4b+S+wMkjV5E3Bp4DZPL+rrI8O+QLXW8SeHwB7g78OmIeGtE3KLQDJJUREz8b+ArGP6a09IrAB0I/9XcHyBpNCJiH+B1TO7R31WGfwctVQA6GP4rfZ/J/oA3uz9A0tBM7+D3VOD5wDUKj7MRw7+jFi4AHQ//lT7HZH/AZ0oPIkl1iIh9gdcDB5aepcLJTK7zP6/0INrZQnsAehT+AAcAJ073B+xdehhJWkZEPILJDXQMfy1l0wWgZ+G/0sOBb0bE30TENUsPI0mbFRHPBd4CXL3wKFW+gOHfeZs6BdDj8F/t+8Azgbe4P0BS10XE1YE3AH9QepY5fIHJOX/Dv+PmLgADCv+VTmKyP+CzpQeRpLVExI2B99H9JX8w/HtlrlMAAw1/gHsw2R/wFvcHSOqaiPglJhuZDX/VrnIFYMDhv9rFwN8DL8rMi0sPI2ncIuKBwDvo1gN81mP499CGBWBE4b/S95jsD3ir+wMklTC9q9/LgF1KzzIHw7+n1j0FMNLwB7g58GbgMxHRh2U3SQMSEX8OvBzDXw1bcwVgxOG/WgJvBZ6Zmd8rPYykYZs+xe/VpeeYk+HfczsVAMN/TRcDLwL+3v0BkpoQEb/P5BuOWh7S1jDDfwB2KAARcQPg4xj+63F/gKTaRcRvMLnU72qlZ5nD54H7G/79t7ppXg78QolBemK2P+DEiLhH6WEk9V9EHAy8B8NfLduhAGTmBcCzC83SJwcy2SR4bETcvPQwkvopIu4KfIBuP81vxvAfmLX2AGwBvgjcuchE/TPbH/CizLyk9DCS+iEibg98Erhx6VnmYPgP0HpXARwKfKz9cXrtu0z2B7zN/QGSNjK98+ingFuUnmUOhv9ArXsjoIj4V+B32x1nEN6dmQ8tPYSkboqIqzEJ/wNKzzIHw3/ANioAtwW+DuzW6kT9dxlwXU8HSFpLRLwI+LPSc8zh80wu9Tu/9CBqxrrXm2bmGcA/tjjLUOwG3LP0EJK6JyIeADy99BxzMPxHoOqGE/8X+HEbgwzMIaUHkNQtEbEXcAwQpWepYPiPxIYFwMsCF3Zo6QEkdUdEBHAssFfpWSoY/iMyz+OAtwCnAHdpZaJhcB+ApO2mD/g5uvQcFT7HZMOf4T8SlfeczswrgaNamGVIdgPuVXoISeVN7xr6/NJzVDD8R2iuh05k5gnAvzY7yuB4GkAauYi4DvA2un2bX8N/pDbz1KmnA1ubGmSADik9gKTiXgXcuvQQGzD8R2zuApCZZ+JlgZtxQERcs/QQksqIiPsAjyg9xwYM/5Gr3AS4wwdHXBs4je7vZO2K+2fmf5YeQlK7prv+Pw/8culZ1mH4a1OnAMjMC/GywM04pPQAkoo4HMNfHbepFQDYflngycBdG5loWE7MzINKDyGpPdNTf6cCNys9yxoMf223qRUA8LLATbp7RFyr9BCSWvVnGP7qgU0XAIDM/ATwnppnGaKrAa4ASCMRETcFnlF6jjWchOGvVRYqAFN/hpcFzuOQ0gNIas3fAV27+udU4AGGv1ZbuABk5lnAS2ucZagOKT2ApOZFxP7Ao0vPscpW4A8Mf61lmRUAmLTdH9UxyIDdPSL2KD2EpMa9hO496e+FmfnF0kOom5YqANPLAv+yplmGalfcByANWkQcDNy39ByrXAm8tvQQ6q5lVwAA3gDYMDd2SOkBJDXqj0sPsIaPZeZ3Sw+h7lq6AHhZ4Fx8MJA0UBGxF3BY6TnW8I3SA6jb6lgBIDP/C3h3He81UL/sPgBpsJ5AN5/2d3bpAdRttRSAqWfgZYHr2RU4uPQQkuoVEbsATyo9xzrq/PquAartE2R6WeBL6nq/AfI0gDQ8vwPcvPQQ6/B27dpQ3Q3x74Af1vyeQ3FI6QEk1a6Lm/9m9i89gLqt1gKQmT8H/qLO9xyQX54+TlnSAETEHYFfKz3HBm4bEfuVHkLd1cQ5omOAUxp4377bBfcBSEPS5e/+Zx5WegB1V+0FwMsCN+Q+AGkApo/8PaL0HHN4aOkB1F2N7BLNzE8C72rivXvukNIDSKrFrwN7lh5iDvt5GkDrafIykWcAlzb4/n20f0T04YuGpI39RukBNsHTAFpTYwUgM7+FlwWutgtw79JDSFpanwqApwG0pqZvFPEC4AcNH6NvDik9gKTFRcS+wC1Lz7EJ+0XEL5YeQt3TaAHwssA1HVJ6AElL6dN3/zOuAmgnbdwq8hjg5BaO0xf7R8QtSg8haWEWAA1C4wUgMxMvC1xpC/D40kNI2ryIuBZwn9JzLMDTANpJKw+LyMxPAe9s41g98cSIuEHpISRt2q8Cu5UeYkGuAmgHbT4tyssCr7IX8OaIiNKDSNqU3yw9wBIsANpBawUgM78NvLit4/XAA4EXlh5C0qY8sPQAS/A0gHbQ9vOivSxwR38WES8oPYSkahGxF3Cr0nMsyVUAbddqAcjMi4BntXnMHnimJUDqhSHcUte7Amq7tlcAAN4EfKHAcbvMEiB13xCWz/f1NIBmWi8AXha4LkuA1G1DWAEATwNoqsQKAJn5aeAdJY7dcZYAqbuGUgA8DSAAYvINeYEDT+6G9z/ANYoM0G1HZ6Z7JaQOiYgfAzcqPUdNfikzv1Z6CJVVZAUAIDO/g5cFrseVAKlDIuKGDCf8wdMAomABmDoaOLvwDF1lCZC6YyjL/zOeBlDZAuBlgZUsAVI3DK0AeDWAiq8AABwLfL70EB1mCZDKG2JYugowcsULgJcFzsUSIJV1u9IDNMB9ACNXvAAAZOaJwNtKz9FxlgCpnGuXHqABngYYuU4UgKmnAs8BPgpcUniWrrIESGXsUXqAhngaYMSK3QdgIxGxG3AAcMj0dS+8X8BK3idAalFEnMYwTwN8IzOHtsFRc+pkAVhtRSE4lEkhuCcWAkuA1JKIOBu4Sek5GnKnzPxq6SHUvl4UgNWmheAeXLVCMNZCYAmQWhAR5wN7lp6jIc/LzL8uPYTaFRFP7mUBWG1FIVi5QnD1kjO1yBIgNSwitgG7lJ6jIZ4GGJmIeDLwykEUgNUiYnd2XiEYciGwBEgNiYirM/yNyZ4GGIlZ+AMxyAKw2opCMFshOJDhFQJLgNSAiLgB8NPSczTM0wAjsDL8oad7AJY1LQQHctUKwVAKgSVAqllE3BL4Vuk5GuZpgIFbHf4w0gKw2opCcD/g0cDeZSdaiiVAqlFE7AeM4dG5ngYYqLXCH7p1I6BiMnNrZn4iM58N3Ap4MPCdslMtzJsFSfXaVnqAlnhr4AFaL/zBArCTzLwyM98P3A04vvQ8C7IESPU5p/QALfGugAOzUfiDBWBdmXkO8CDgLaVnWZAlQKrHucAYzpXeMSJ+qfQQqkdV+IMFYEOZeQVwBJYAabSmXwcuKD1HSzwNMADzhD9whQWggiVAEp4GUE/MGf4AF1oA5mAJkEZvLAXA0wA9tonwB7jAAjAnS4A0amMpAOBpgF7aZPiDBWBzLAHSaI2pAHgaoGcWCH/wFMDmWQKkURpTAfA0QI8sGP7gCsBiLAHS6IypAICrAL2wRPgDnG8BWJAlQBqVoT8MaDX3AXTckuEPcLoFYAmWAGk0vl56gJZ5GqDDagh/gK9aAJZkCZBG4ZTSAxTgaYAOqin8Ab7m0wBrEhG7AMcAjyw9y4J8iqC0gYj4Dv1+Uuhm/U9m7lt6CF2lxvC/AriWKwA1cSVAGryxrQLcMSLuVHoITdQY/gCnZ+ZWC0CNLAHSoH2x9AAFuBmwA2oOf4CvgQ8Dqp0lQBqssa0AgAWguAbCHywAzbEESIM0xgLgaYCCGgp/sAA0yxIgDUtmfh/4Sek5CnAVoIAGwx8sAM2zBEiDM8ZVAAtAyxoO/23AqWABaJwlQBqUMRaAO0bEwaWHGIuGwx/gpMy8DCwArbAESIPx1dIDFPLKiNi19BBD10L4A3xo9g8WgJZYAqRB+FbpAQq5M3Bk6SGGrKXwhxUFwDsBtsw7Bkr9FRG3As4qPEYpPwf2y8zvlh5kaFoM/x9k5k1nP3EFoGWuBEi9dpPSAxS0B/CFiDi89CBD0mL4Axy/8icWgAIsAVJv3b70AIXdGHhTRHw8InxOwJJaDn9YsfwPFoBiLAFSL/126QE64hDgSxFxXEQcHhF7lh6obwqE/zbgP3eYwT0AZbknQOqHiLgJ8B3A3fA72wr8B/Au4H2ZeUHheTqtQPgDfCIzD1n5C64AFOZKgNQbL8HwX8/uwIOANwE/nq4MPMqVgZ0VCn9YtfwPrgB0hisBUndFxFHAS0vP0UOzlYF3AseNfWWgYPgD/FJmfm2HeSwA3WEJkLonIh7J5O/lLqVn6blRl4HC4f+FzLz76l+0AHSMJUDqDsO/MVuBf2eyZ2DwZaBw+AM8NjPfuPoXLQAdZAmQyjP8WzPoMtCB8P8ZcPPMvHT1v7AAdJQlQCrH8C9mUGWgA+EP8PeZ+Yy1/oUFoMMsAVL7DP/O6HUZ6Ej4XwncLjPXvH21BaDjLAFSewz/zpqVgXcC7+96GehI+AN8MDPXvXmVBaAHLAFS8wz/3uh0GehQ+AP8ZmYev96/tAD0hCVAao7h31udKgMdC/8zgH1yg5C3APSIJUCqn+E/GFuBD3PVnoEL2zx4x8If4OmZ+eKNPsAC0DOWAKk+hv9gtVoGOhj+5wK3yczzNvogC0APWQKk5Rn+o9FoGehg+AM8LTNfUvVBFoCesgRIizP8R6vWMtDR8D8D2C8zL6v6QAtAj1kCpM0z/DV1KTtuIJy7DEy/9j4X+Eu6Ff4AD83Md8/zgRaAnrMESPMz/LWOuctAROwLvAo4pJ3RNuXEzDxo3g+2AAyAJUCqZvhrTpcCHwFOAv4bOAe4KXBL4DDgwHKjVbpnZn523g+2AAyEJUBan+GvEXhHZv7BZn6DBWBALAHSzgx/jcBWYN/17vm/ni0NDaMCMvMK4AjgLaVnWdAzI+IFpYfQcBj+GomXbzb8wRWAQXIlQDL8NRrfAe6cmedv9je6AjBArgRo7Ax/jcSVwKMWCX+wAAyWJUBjZfhrRP4uMz+56G/2FMDAeTpAY2L4a0Q+C9w7M7ct+gYWgBGwBGgMDH+NyIXAXTPzzGXexFMAI+DpAA2d4a+Recqy4Q8WgNGwBGioDH+NzFsz89g63shTACPj6QANieGvkfkWcJfMvKCON3MFYGRcCdBQ9Dz8zwT87kubcRnwyLrCHywAo2QJUN/1PPxPAvYHnoIlQPO5Enh0Zp5Y55taAEbKEqC+GkD4PyAzz8/Mf8ISoPn8SWa+o+43tQCMmCVAfTOU8J/9giVAc/jbzHxFE2/sJkC5MVC9MLTwXykingy8EohWp1LXvS4zH9/Um1sABFgC1G1DDv8ZS4BWOQ74velKbSMsANrOEqAuGkP4z1gCNPUp4P6ZeUmTB7EAaAeWAHXJmMJ/xhIwel9lco//85o+kJsAtQM3Bqorxhj+4MbAkfsak8+bxsMfLABagyVApY01/GcsAaP0ceCgzDy7rQNaALQmS4BKGXv4z1gCRuWtwAPr+LzZDAuA1mUJUNsM/x1ZAkbhhcCjMvOytg/sJkBVcmOg2mD4r8+NgYN0BfB/piWvCAuA5mIJUJMM/2oR8Xbg95s8hlpzMfDwzDyu5BC7ljy4+iMzr4iII6Y/7WMJeGZEYAnoHsO/2nQF4GFNHkOt+Qnw25n5udKDuAdAc3NPgOpm+Fdz+X9QPg3cowvhDxYAbZIlQHUx/KsZ/oNxGfAXwH0y86zSw8y4B0ALcU+AlmH4VzP8B+OrwOGZ+d+lB1nNFQAtxJUALcrwr2b4D8KVwIuBX+li+IMrAFqSKwHaDMO/muE/CN8GjsjMT5QeZCOuAGgprgRoXoZ/NcN/EI4B7tz18AcLgGpgCVAVw7+a4d97X2JyO9/HZOYFpYeZhwVAtbAEaD2GfzXDv9fOYHIK9G6Z+e+lh9kM9wCoVu4J0EqGfzXDv7d+CDwfeE1mXl56mEVYAFQ7S4DA8J+H4d9L5wN/D7wsMy8qPcwyLABqhCVg3Az/aoZ/71wKvAJ4QWaeU3qYOlgA1BhLwDgZ/tUM/145HXgd8IbM/FHpYepkAVCjLAHjYvhXM/x7YSvwXuA1wAk50KC0AKhxloBxMPyrGf6d93UmoX9sZv6s9DBNswCoFZaAYTP8qxn+nXUB0+/2M/PE0sO0yQKg1lgChsnwr2b4d8o24LPAR4D/BD6XmdvKjlSGBUCtsgQMi+FfbQDhfyFwHJPl8bOA6wG3BPYF9gduVm60uX2DSdh/hMk5/QsLz9MJFgC1zhIwDIZ/tZ6H/wXAXzHZ/b7urW0j4sbA3ZiUgdnrNq1MuLMEvgucCnwT+Dzwkcz8fqF5Os0CoCIsAf1m+Ffrefh/GTgsM09b5DdHxHWBuzIpA/sBNwJuuOJ1PZb7/3IeV4X87MdvAqdl5iVLvO+oWABUjCWgnwz/aj0P/08Bv5GZP2/qANO/+zdg51KwDbgYuGTF6+LV/9z3O/B1hQVARVkC+sXwr2b4qy98GqCK8imC/WH4VzP81ScWABVnCeg+w7+a4a++sQCoEywB3WX4VzP81UcWAHWGJaB7DP9qhr/6ygKgTrEEdIfhX83wV59ZANQ5loDyDP9qhr/6zgKgTrIElGP4VzP8NQQWAHWWJaB9hn81w19DYQFQp1kC2mP4VzP8NSQWAHWeJaB5hn81w19DYwFQL1gCmmP4VzP8NUQWAPWGJaB+hn81w19DZQFQr1gC6mP4VzP8NWQWAPWOJWB5hn81w19DZwFQL1kCFmf4VzP8NQYWAPWWJWDzDP9qhr/GIjKz9AzSUiJiFyah9sjSsyzojzPzn5o+iOFfzfDXmLgCoN7r+UrAScBbmz6I4V/N8NfYWAA0CD0tAW0Fm+FfwfDXGFkANBg9KwGGfzXDv5rhr4VZADQoPSkBhn81w7+a4a+lWAA0OB0vAYZ/NcO/muGvpVkANEgdLQGGfzXDv5rhr1pYADRYHSsBhn81w7+a4a/aWAA0aB0pAYZ/NcO/muGvWlkANHiFS4DhX83wr2b4q3YWAI1CoRJg+Fcz/KsZ/mqEBUCj0XIJMPyrGf7VDH81xgKgUWmpBBj+1Qz/aoa/GmUB0Og0XAIM/2qGfzXDX42zAGiUGioBhn81w7+a4a9WWAA0WjWXAMO/muFfzfBXaywAGrWaSoDhX83wr2b4q1UWAI3ekiXA8K9m+Fcz/NU6C4DEwiXA8K9m+Fcz/FWEBUCa2mQJMPyrGf7VDH8VYwGQVpizBBj+1Qz/aoa/irIASKtUlADDv5rhX83wV3EWAGkN65QAw7+a4V/N8FcnRGaWnkHqrIjYhUkY3w7Dv4rhX83wV2dYAKQK0xJwjaa/aBv+1Qx/qT4WAKkDDP9qhr9UL/cASIUZ/tUMf6l+FgCpIMO/muEvNcMCIBVi+Fcz/KXmWACkAgz/aoa/1CwLgNQyw7+a4S81zwIgtcjwr2b4S+2wAEgtMfyrGf5SeywAUgsM/2qGv9QuC4DUMMO/muEvtc8CIDXI8K9m+EtlWACkhhj+1Qx/qRwLgNQAw7+a4S+VZQGQamb4VzP8pfIsAFKNDP9qhr/UDRYAqSaGfzXDX+oOC4BUA8O/muEvdYsFQFqS4V/N8Je6xwIgLcHwr2b4S91kAZAWZPhXM/yl7rIASAsw/KsZ/lK3WQCkTTL8qxn+UvdZAKRNMPyrGf5SP1gApDkZ/tUMf6k/LADSHAz/aoa/1C8WAKmC4V/N8Jf6xwIgbcDwr2b4S/1kAZDWYfhXM/yl/rIASGsw/KsZ/lK/WQCkVQz/aoa/1H8WAGkFw7+a4S8NgwVAmjL8qxn+0nBYACQM/3kY/tKwWAA0eoZ/NcNfGh4LgEbN8K9m+FeLiCMj4oFNHkOqmwVAo2X4VzP8q0XEUcA/Av9mCVCfWAA0SoZ/NcO/2jT8Xzr96e5YAtQjFgCNjuFfzfCvtir8ZywB6g0LgEbF8K9m+FdbJ/xnLAHqBQuARsPwr2b4V6sI/xlLgDrPAqBRMPyrGf7V5gz/GUuAOs0CoMEz/KsZ/tU2Gf4zlgB1lgVAg2b4VzP8qy0Y/jOWAHWSBUCDZfhXM/yrLRn+M5YAdY4FQINk+Fcz/KvVFP4zlgB1igVAg2P4VzP8q9Uc/jOWAHWGBUCDYvhXM/yrNRT+M5YAdYIFQINh+Fcz/Ks1HP4zlgAVF5lZegZpaYZ/NcO/Wkvhv9JW4F6ZeUqLx5QAVwA0AIZ/NcO/WoHwBzgT+EbLx5QAC4B6zvCvZvhXKxT+24DDM/OSlo8rARYA9ZjhX83wr1Yo/AGel5knFziuBLgHQD1l+Fcz/KsVDP+TgIMy84oCx5YAC4B6yPCvZvhXKxj+AL/sxj+V5ikA9YrhX83wr1Y4/P/L8FcXWADUG4Z/NcO/WuHwp/Cxpe08BaBeMPyrGf7VOhD+ZwL7ZOaVBWeQAFcA1AOGfzXDv1oHwh/g5Ya/usIVAHWa4V/N8K/WkfAHuFlmnl16CAlcAVCHGf7VDP9qHQr/Mw1/dYkFQJ1k+Fcz/Kt1KPxh8t8sdYYFQJ1j+Fcz/Kt1LPzBAqCOsQCoUwz/aoZ/tQ6GP1gA1DFuAlRnGP7VDP9qHQ1/gF299a+6xBUAdYLhX83wr9bh8N9q+KtrLAAqzvCvZvhX63D4A1xUegBpNQuAijL8qxn+1Toe/mABUAdZAFSM4V/N8K/Wg/AHuLj0ANJqFgAVYfhXM/yr9ST8wa+16iCvAlDrDP9qhn+1HoU/wFbgmj4HQF1iK1WrDP9qhn+1noU/wO7AzUoPIa1kAVBrDP9qhn+1Hob/zG1LDyCtZAFQKwz/aoZ/tR6HP8BtSg8grWQBUOMM/2qGf7Wehz/AnUoPIK3kJkA1yvCvZvhXG0D4A3w7M29VeghpxhUANcbwr2b4VxtI+APcMiJ+pfQQ0owFQI0w/KsZ/tUGFP4zh5UeQJrxFIBqZ/hXM/yrDTD8AU7PzH1KDyGBKwCqmeFfzfCvNtDwB7hdRNy79BASWABUI8O/muFfbcDhP3N06QEksACoJoZ/NcO/2gjCH+BeEfF7pYeQ3AOgpRn+1Qz/aiMJ/5lTgV/MzG2lB9F4uQKgpRj+1Qz/aiMLf4DbA08sPYTGzRUALczwr2b4Vxth+M9cCNwrM79aehCNkwVACzH8qxn+1UYc/jNnAQdk5k9LD6Lx8RSANs3wr2b4VzP8Abg18J6IuFrpQTQ+FgBtiuFfzfCvZvjv4D7Aq0oPofGxAGhuhn81w7+a4b+mx0fEP0ZEH/9uqafcA6C5GP7VDP9qhn+ljwAPy8xzSw8yExHXafrvjspwBUCVDP9qhn81w38uvw58LiL2LT1IROwaEc8Bvh8RDy49j+rnCoA2ZPhXM/yrGf6bdgHwpMx8e4mDR8QdgGOBu09/6TLgoZl5XIl51AxXALQuw7+a4V/N8F/InsDbIuLEiLhXWweNiF0i4k+AL3JV+APsBrwrIh7U1ixqnisAWpPhX83wr2b41+bdwDMz84wm3jwi9gQeDxwJ3HKDD70MOCwz39/EHGqXBUA7MfyrGf7VDP/aXQ4cD7wXeH9mnrPsG0bErZiE/h8yWXWYhyVgICwA2oHhX83wr2b4N24bcAKTMvA54Mx5rhyIiNsBBwH3mv64H4t9HlsCBsACoO0M/2qGfzXDv5hzgTOnrwuBawN7rPjxZsCNajyeJaDnLAACDP95GP7VDP/RsQT0mFcByPCfg+FfzfAfpd2Ad3t1QD9ZAEbO8K9m+Fcz/EfNEtBTFoARM/yrGf7VDH9hCeglC8BIGf7VDP9qhr9WsAT0jAVghAz/aoZ/NcNfa7AE9IgFYGQM/2qGfzXDXxuwBPSElwHWJCJuBOw9ff0CcA3g6tPX7iv+eTfgIibX7J4LnLfWj5l5YQMzPgp4I4b/ugz/aoa/5uQlgh1nAdiEiLgBsP/0tR9XBf7NmYR7na5gUgi+yeTBHLPX1zLzss28UUTsChwNPK3mGdti+Fcz/NVFloAOswCsIyKuy+R2mfuveG30kIy2XA58jR1LwZfWWjGIiN2AhwF/CtytzSFrZPhXM/zVZZaAjrIATE2/Sz4AuP/0dQD9WSpP4Izp69vTX7s9cGfg+qWGqoHhX83wVx9YAjpo1AUgIm4M/B7wAOBQ4DplJ9IKhn81w199chnwkMz8QOlBNDG6AhAR1wR+BzgcuB+wa9mJtAbDv5rhrz6yBHTIKApARGxh8h3+4Uy+PiBeZgAAHANJREFU47922Ym0AcO/muGvPrMEdMSgC0BE7AE8HjiKbmzg08YM/2qGv4bAEtABgywAEXFT4EjgScB1C4+j+Rj+1Qx/DYkloLBBFYCIuBOTa90fzuSGO+oHw79aW+G/H/AVvEuo2mEJKGgQf8kj4rYR8XbgS8ARGP59YvhXayX8ATLz60xOm13Z9LEkJl+r3xMRv116kDHq9QrA9DK+vwKeCFyt8DjaPMO/Wmvhv1JEPBZ4LQP5JkGd50pAAb0sANPNfU8Dng7sUXgcLcbwr1Yk/Gci4jHA67AEqB2WgJb1rgBMH2jzD8BepWfRwgz/akXDf8YSoJZZAlrUmwIQETcH/hn4rdKzaCmGf7VOhP9MRBwBvB5LgNphCWhJL/5CR8QTmDwAx/DvN8O/WqfCHyAzjwEehxsD1Q43Brak0ysAEXFrJhuRfrX0LFqa4V+tc+G/UkQ8GngDPfnGQb3nSkDDOlsApl9sXgVcq/QsWprhX63T4T/TQAk4F/gc8FPg58CF0x8vAm4E3Ba4zfTlw7rGxxLQoM4VgIi4OvByJtciq/8M/2q9CP+ZiDgceCOLlYDvAScw+W/+FPD1nPOLUETcADgEeAiT04F7LnB89Y8loCGdKgARsQ/wLuAupWdRLQz/ar0K/5kFSsAngJcBx2Xm0nsJImJ34NeBw5jc+XP3Zd9TnWYJaEBnCkBEHMbkciNb/TAY/tV6Gf4z00tyj2H9EnAZ8HbgZZn5xQbnuBXwAuD36efngeZjCahZ8c08EbElIl7M5Dt/w384XmH4b6jX4Q+QmW9mcuvttb6jPwm4U2Ye0WT4T+f4VmY+HDgQ+GSTxyoogb9nsj9irGZXB3g1WF0ys9iLybLdO5l8cvsa1msr8OAGP3eezCR4Sv93LvL6JLBHyb97Nf9ZPBLYNv1vuwx4NrBL4Xku6sCfc12vK4HHTf/bDmayUbL0TCVfW4HfKv15P4RXsVMAEXEd4H3AfYsMoDZcBjw0M4+r8039zr97IuKRwJ8Dj8nMUzowz92YfH3Zu/QsS0rg8Zn5+tkvRMTBwPGM+zbolwG/l5kfLD1InxUpABFxM+DDwC+1fnC1rdYSYPh3V0RElvqOYg0RsRfwHuCg0rMsaKfwn7EEAJaApbW+ByAifhH4DIb/WOwGvCsiHrzsGxn+3dal8AfIzB8xuYnYm0rPsoB1wx8gMz8F/AbuCXivewIW1+oKQETcick1wNdv7aDqiqVWAgx/LSoidgE+ADyw9Cxz2jD8V3IlAHAlYGGtFYCIuAPwX8CNWzmgumihEmD4a1nTPUefBe5YepYKc4f/jCUAsAQspJVTANN7+n8Uw3/sNn06wPBXHXJySeqDgHNKz7KBTYc/eDpgytMBC2i8AEw3/H0UuFnTx1IvzF0CDH/VKTNPBx7K5JLFrlko/Lf/ZksAWAI2rdECEBE3ZhL+t27yOOqdyhJg+KsJmfkx4NWl51hlqfDf/iaWALAEbEpjewAi4ppMvhDerZEDaAjW3BNg+KtJ029MTgeuXXoWagr/ldwTALgnYC6NrABERDC5R7jhr43stBJg+Ktpmflj4EWl56CB8AdXAqZcCZhDIysAEfHXwHNrf2MN1WVMzs3eDMNfLZiuUJ4G3LTQCI2E/0quBACuBGyo9gIQEQ9h8mCfPn4RVzmXA7vSz88bw7+HIuKPmRTOEs4BDsrM/2nyIJYAwBKwrloLQETcBfg0cK3a3lTqNsO/pyLiBsAPmRTPEn4IHGoJaIUlYA217QGIiBsCx2H4azwM/x7LzJ8xuTNpKb8AfDwiGr05kXsCAB8lvKY6NwH+C3CLGt9P6jLDfxjeXfj4loD27M6kBPxm6UG6opZTABHxWKCxzSxSxxj+AzG9JPAHFHgw2io/BA7JzG82eRBPBwCwlcnpgA+VHqS0pQvA9Da/X6Ib19RKTTP8ByYiPg3cq/QcWALaZAlgydY7fcrWsRj+GgfDf5i+UXqAqdnpgDs0eRBPBwCT0wHvHfvpgGWXvf4cOKiOQaSOM/yH6/TSA6xwEywBbRl9CVi4AEwv+XtufaNInWX4D1uXCgBYAto06hKwzArAK4Cr1TWI1FGG//B1rQCAJaBNoy0BCxWAiHgkcHDNs0hdY/iPw1mlB1iHJaA9oywBm74KICL2AL5JuXtoS20w/EciIq4P/Kz0HBv4AZM7Bnp1QPNGdXXAIisAz8Hw17AZ/uPS9auYXAloz6hWAjZVAKafgE9taBapCwz/8enDd7yzEnD7Jg9iCQBGVAI2uwLwUtz4p+Ey/Mep6ysAMzcBTrAEtGIUJWDuAhARBzL5pJCGyPAfr74UALAEtGnwJWAzKwDPaWwKqSzDf9zuXHqATbIEtGfQJWCuAhAR+wOD/B+g0TP81cdLmt0T0J7BloB5VwD+stEppDIMf0F/b2d+UywBbRlkCai8D0BE/CLwFSBamUhqh+Gv2ZVN/1N6jiWdzeQ+Aac2eRDvEwAM7D4B86wA/CWGv4bF8NdMH5f/V3MloD2zlYBBbIjfcAUgIvZmcpvMXVqbqBsSeCDw5dKDbMLVgP8CblV4jq4z/LVdRHwCuE/pOWriSkB7tgL/KzOPLz3IMqoKwF8zzif+vTEzH1t6iM2KiN8B/q30HB1m+Gu76ebmk0vPUTNvG9ye3peAdQtARGwBvgXs3eZAHXAecIfM/HHpQRYRER/EKzbWYvhrBxHxJuDw0nM0wBLQnl6XgI32ADyA8YU/wHP6Gv5TRzL5pNRVDH/tICJ+Afj90nM0xGcHtGd34F/7uidgowLwhNam6I7/Bv6p9BDLyMwzgBeVnqNDDH+t5Uhgt9JDNMgS0J7eloA1TwFM2/F3gV1bn6icBA7KzM+UHmRZEXEN4Ou4IdDw104i4k7AFxh2AZjxdEB7enc6YL0VgMcwrvCHyca/3oc/QGZeAvxJ6TkK+zbwO4a/VoqIqwHHMo7wB1cC2tS7lYD1CsDDW52ivPOAPy89RJ0y8zhgEDerWMA24CGZeU7pQdQ5zwXuUnqIllkC2tOrErBTAYiIW9K/h2Ms69mZ+ZPSQzRgrBsC/y0zh3Z5l5Y0faLpoIr+JlgC2tObErDWCsCDWp+irC8C/1x6iCZMNwS+sPQcBbyy9ADqpL2Y7PUZK0tAe3pRAnbaBBgR/wHcr8w4rRvMxr/1TDcEfg24delZWrINuEZmbis9iLonIg4D3sb49jit9APgEO8Y2IpObwzcYQUgIvYE7ltolhLeMOTwh1FuCDzL8Nd6MvPdTPY4jflz5CbACT47oBWdXglYfQrgAYxnd+y5wDNLD9GGzHw/8MHSc7TkvNIDqNssAYAloE2dLQGrC8CDi0xRxlA3/q3nSODS0kO04BalB1D3TUvAI7AEWALa0ckSsLoA/FqRKdp3CgPd+LeezDyTcWwIvHFEXLP0EOq+zHwXlgBLQHs6VwK2F4CIuAWTT4ahS+ApmXll6UEKOJrJ452HLIBfLj2E+sESAFgC2tSpErByBeCexaZo1xsy87OlhyghMy9lHBsCDyg9gPrDEgBYAto0KwEPLD3I2ArAuYz3RiDA9g2BHyg9R8PuUXoA9YslALAEtGl34N9Kl4CVBeDAYlO05y8z86elh+iAP2HYGwItANo0SwBw1c2CLAHNK14CtgBExO7A3UoN0ZJTgFeXHqILphsCjy49R4NuMX2ipbQplgAAbooloC1FS8BsBWB/hn39fwJ/PNKNf+t5IXBm6SEa5D4ALcQSAFgC2lSsBMwKwNCfjvX6zDyp9BBdMoINgRYALWxaAh6JJcAS0I4iJWBWAPZp86AtO4eR3PFvszLzA8D7S8/RkEYfeKLhy8x3YgmwBLSn9RIwKwC3a+uABbjxb2ND3RA4locfqUGWAMAS0KZWS8DQC8DJwL+UHqLLMvMs4AWl52jAbUoPoGGwBACWgDa1VgJi+roYuHrTB2tZAgdm5udKD9J1EXF1Jo8MHlpoXjczzy89hIYhIh4GvIVxP0r4bOBQHyXciq3A72bmh5s6wBbg5gwv/AFeZ/jPZ7oh8MjSczRgaIVGBa1YCbii9CwFuRLQnsZXArYwzOX/c4BnlR6iTzLzg8BxpeeomfsAVKtpCXgElgBLQDsaLQGzFYCh+Qs3/i3kT4BLSg9RI1cAVDtLAGAJaFNjJWALcJ2637SwLwCvKT1EH2XmtxjWHQJvWHoADZOnAwBLQJsaKQFbgD3rfMPCxvyo37q8EDij9BA1GdLntjomM9+BJWBWAhq9l4wlAGigBAxtBeC1bvxbTmZuZTgbAq9degANmyUAmJSAEywBrai1BAypALjxryaZ+SHgfaXnqIErAGqcJQCwBLSpthIwpFMAz8rMn5UeYkCOov8bAl0BUCssAYAloE2zEnDoMm8ylBWAzwOvLT3EkEw3BPb9DoEWALXGEgBYAto0KwF3W/QNtgDXqG+eIq7EjX9NeRFweukhljCU1S31hCUAsAS0aU/g+Ii47SK/eQv9v7/1f2Tm50sPMUTTDYH/UHqOJexSegCNjyUAsAS0aS/gwxGx22Z/4xbg8vrnadWvNn0d6lhFxBbgiaXnWMLW0gNonKYl4FFYAiwBzUvgBZl52WZ/4xBWAHYDXl56iIF6ErB/6SGWsOm/EFJdMvPtWAIsAc1K4PGZ+fpFfvMQVgAA7h8RDyk9xJBExA2Bvy09x5JcAVBRlgDAEtCUpcIfhrECMPPSiLhm6SEG5GjgeqWHWJIFQMVZAgBLQN2WDn8YzgoAwN7As0sPMQQRcSDwuNJz1MACoE6wBACWgLrUEv4wKQB9v9nLSk9zQ+Byphv/XglE6Vlq4B4AdYYlALAELKu28IdJAfhRHW/UEW4IXF7fN/6tdH7pAaSVLAGADxBaVK3hD5MC8MO63qwj3BC4oIi4Ef3f+LfS90sPIK02LQGHM+4ScDMsAZtRe/jDMAsAuCFwUUPY+LeSBUCdlJlvwxJgCZhPI+EPwy0AbgjcpOnGv8eWnqNm3ys9gLQeSwBgCajSWPjDcAsAuCFwbgPb+LeSKwDqNEsAYAlYT6PhD8MuAG4InN8fMZyNfytZANR5lgDAErBaAk9oMvwBIjOJiHMY1rnflQ7LzPeUHqKrphv/vsnw/vyvBHbPzKHc6EoDFxEPB45l3A+x+j5waGae1uRBIuJg4HhgjyaPs6BZ+L+u6QNtmf74taYPVNBLI+JapYfosKFt/Jv5juGvPnElAHAloLXwh3EUADcErmOgG/9mvlJ6AGmzLAHAVSXgdk0epIMloNXwh6sKwFfbOmAhfxoRdyg9RJcMeOPfzJdKDyAtYloCHo0l4IQRlYDWwx/GUwDcELizoW78m/ly6QGkRWXmW7EEjKUEtBL+EXGdiHjVDr823QR4Q+AnTR68I9wQyKA3/q10x8z8ZukhpGVExCOAN+HGwEMy8/QmD1JoY2Br4Q/8O3AAcPPMPBumKwCZ+VOG9UyA9bghcGKoG/9mLgEa3UUstcGVAGC4KwFth/89mJzy/a3Zv9uy4uO+2OQQHTH6DYED3/g387XMvLL0EFIdLAHA8EpAW+G/J1eF/8yaBeCEJgfpkNFuCJxu/HsVw934N3NS6QGkOlkCgHZLwHOaPATthf9/sGP4A/x6ROwOOxaAjzc5TIeMeUPgHwF3Kz1ECz5aegCpbpYAoIUSMN0L8PyG3r50+ANcCzgUdiwAJwMXNjlUh9wvIg4rPUSbphv//m/pOVpwJeNZzdLITEvAEVgCGikBEXFvmtsImMATC4f/zG/BigKQmVcAn2xysI55ycg2BA5949/MKZl5bukhpKZk5luwBNReAloK/9c28N7bzRn+AL8JO64AwHhOA8CINgSOZOPfzMdKDyA1zRIA1FgCIuI+TMK/iW8Kuxb+ALeJiGuvLgAn1D5Vtw1+Q+CINv7NeP5fo2AJAGooAdPw/xDjCf+Z260uAKcw3McDr2UMGwLHsvEP4DLgU6WHkNpiCQCWKAERcV/GGf4A++xQAKbXTr+7rsF6YrAbAke08W/m3zPz4tJDSG2yBAALlIBp+H+QcYY/rLECAPDO5UbqpaFuCHwh49j4N/O20gNIJawoAWO+AdbcTxGMiEMYRvivvsnPZuyzVgH4FJN7L4/J4DYERsQ9gceUnqNFFwHHlR5CKmVaAh7NuEvAzakoAQML/wOXeJudC0BmJvCuJd60rwazIXAEj/pdy3GZeVHpIaSSXAkANigBK8L/mg0ct0/hD+ucAoBxngYY0obAJzOejX8zLv9LQGa+GUvATiUgIg7F8F9pr5h8w7/TQQI4C7hlDQfpm4dmZm83Qk43/p0KXLf0LC06F/iFzLys9CBSV0TEo4Bj2Pl+L2PyPSa3vd0b+ACG/w7W/MSYngb4l7oO0jN93xD4QsYV/gDvNPylHbkSAExWAv6LZsP/SX0Mf4A1VwCmB7wR8F1g9zoP2BNHZ+azSg+xWdONf59mXOf+Ae6cmV8pPYTURa4ENGYW/q9p8iBNhT9s8AmRmT8B3lH3AXuidxsCI2IXxrfxD+Djhr+0PlcCGtH78IcNVgCmB/8V4PNNHLgHLgW2lh5iE7YA1y49RAG/m5nvKz2E1HWuBNRmEOEPFQVgOsRnmhxAWsJZwO2md7CUVMESsLTBhD/M90kwlEvjNDyvMPyl+U1PBzwGTwcsYlDhD/OtAFwNOI1xXhKo7roIuFlmnl96EKlvIuJw4I24EjCvwYU/zPGHn5mXA89rYRZpM15u+EuLycxjcSVgXoMMf+CHlSsAABGxK/B1YJ/GR5KqnQvcJjPPKz2I1GeuBFRqM/w/DNyzyeOs8sm5/tAzcxvwNw0PI83raMNfWp4rARsacvgDnDbXCgBsf8DMV4D9Gh1J2tjZTHb+X1J6EGkoXAnYydDDH+CZc/9hT3db/1WDw0jz+BvDX6qXKwE7SOCPBh7+sJkVANj+kKCTgLs3NpK0vlOBX5yekpJUs4h4NPAGxrsSMAv/Rp+FExHXZrLhr1T4A9x5U3/I04cEPRlbosp4uuEvNScz3wQ8lnF+jR9T+Cdw+qZbXmaezOSe81Kb3pOZ7y89hDR0Iy0BYwp/gG9k5iWLLvM8G/hBndNIG7gAOLL0ENJYjKwEjC38AT4EC57nycwLgKNqHUda319k5tmlh5DGZCQlYIzhD/BBmONWwBuJiA8DD6hrImkNJwH38p7/UhkD3hg41vC/ALhhZl6+7B/oU4Cf1zCQtJZtwBMNf6mcga4EjDX8Af5jeov/5RpdZp7BpARITXheZn659BDS2A2sBIw5/GG6/A9LngLY/iYRbwIOX/qNpKt8FLi/3/1L3RERRwCvp7+nA8Ye/gncJDN/BPUVgD2AU/BhQarHj4C7ZuYPSw8iaUc9LgFjD3+Az2XmPWY/qeUPMDN/Dvw+cFkd76dRuxJ4pOEvdVNmHgM8jn6dDkjgyS2Ff8nb+1bZ4R4+tTW4zPwi8Iy63k+j9beZ+dHSQ0haX89KwCz8X93kQVaE/72aPM4SzgbevvIXal3Cycx/BN5R53tqVE7Ax05LvdCTEmD4X+XlmbnDKn0tewB2eMOIqwMfo7tLIOqm04B7ZubPSg8iaX4d3hNg+F/lImDvzDx35S/W/geWmZcCvwOcVfd7a7B+Cvym4S/1T0dXAgz/Hb1+dfhDAysA2984Yl/gROC6jRxAQ3EJ8GuZ+ZnSg0haXEQ8Bngd5VcCDP8dXQHcPjPPXP0vGvuDysxvAA8BLm/qGOq9K4FHGf5S/2XmG4E/pOxKgOG/s39dK/yh4aaWmR8DnsTkD0Va7emZ+d7SQ0iqR+ESYPjv7GI2uDqv8aWazHwD8GQsAdrR32XmS0sPIalehUqA4b+2v8rMdffjNbYHYKcDRTwR+GcgWjmguux5mfnXpYeQ1JwW9wQY/ms7GbhHZl6x3ge0VgAAIuIJwKuxBIzZX2Xm80sPIal5LZQAw39t24C7Z+Z/b/RBre7WzMzXAE/A0wFj9SzDXxqPhk8HJPDHhv+a/qEq/KHlFYDtB414HPAvwC6tH1ylPD0zX1x6CEnti4jHAq+lvm86Z+H/zzW935p6Gv6nA3ea3pNnQ0Wu18zM1wMPBi4scXy1ahvwRMNfGq/pZvDHU89KQJvhfzz9Cv9twOPmCX8oeMOGzPwQcDDw3VIzqHHnAPefnvqRNGI1lYC2w/+gJo/TgD/KzE/O+8FF79iUmV8GDgA+X3IONeKbwIGZ+fHSg0jqhiVLgOG/sRdk5us28xuK7AHYaYiIawBvAg4rPYtq8Z/AwzLzvNKDSOqeBfYEGP4bewfw8NxkoJe+ZzMAmXkJ8DDgeXTrgRLavFcyebCP4S9pTZtcCTD8N3Yi8JjNhj90ZAVgpYi4L3AssHfpWbQp5wJPysx3lR5EUj/MsRLQVvjvwWS3f9/C/wwmp1p/ushv7sQKwEqZ+QngLsC7S8+iuZ0A3Nnwl7QZ05WAP2TyxLqd/jWG/0Z+yGS1daHwhw4WAIDMPDczH8rkE+Oi0vNoXZcDz2LyON/vlR5GUv9Mbxb0ECaPBt/+yxj+G/kqk9v8nrrMm3TuFMBqEbEP8GYmVwuoO04FHpGZJ5ceRFL/RcRBwPuB6wJPycx/avh4fQ3//wQOy8wLln2jzhcAgIjYwuSJgn8LXKfwOGN3GfAPwN9m5sWlh5E0HBGxH3DAdFWgyeP0Nfxfy+TZB9vqeLNeFICZiNiLSfg8qvQsI/Vh4MjMPK30IJK0iJ6GfwJ/kZlH1/mmvSoAMxFxKJPLzfYtPctIfAt4amb+W+lBJGlRPQ3/S5hc5vfOut+4k5sAq0zvLncX4JlMLj9TMy4Bng/sZ/hL6rOehv9HmTzYp/bwh56uAKwUEXsCRwFPZbJ5RMu7CPhnJo+U/GHpYSRpGdPwP57J82f64GfA0zLzmCYP0vsCMBMR12FSAo7CjYKLupDJqZWXZOZPSg8jScvqYfi/hckp18a/Bg+mAMxExPWAPwWeAlyv8Dh9cT7w/4CXZeY5pYeRpDr0LPy/xeRpfv/e1gEHVwBmpg8YehiTywfvUXicrvoyk6X+N2fmhaWHkaS69Cj8zwBeCrx++lyc1gy2AKwUEXcF/gh4JLBH4XFKu5TJk6NenZmfKT2MJNWtJ+F/EpPL2t+bmUUegjeKAjAzfdrTI4CHAvcFdi07Uau+BLwROCYzvXJC0iB1PPwTOI7JButPlR5mVAVgpYi4PvBg4PeA+wFXLztR7bYBnwDeBxyXmd8uPI8kNS4i7sDk1O9vA7ctPA5MQv8U4IPAW5a9f3+dRlsAVpo2xt8AHsRkZeAWZSda2M+AjzAJ/eMz87zC80hSMdMy8NvT18G0t+p7AZN79n8I+FBXL6e2AKwhIm4J3GfF6/ZlJ1rXqcCnV7y+mf6BStJOppeKP4DJ1/R9pq9bALss+dYXM9nIdzrwP0y+CftkZl6+5Ps2zgIwh+kzCA5gcuvhO05f+9LejYfOZxL2s9eXgBO9Vl+SFhcRuwG3ZlIGbjf98fpMlu3Xel0J/Ag4jUngnw6c3ddvvCwAS5gWg32BWwE3BG40fd1wxY/XBmLFa8uKf94KnLPq9bPpj2czCfvTMvPHbf03SZLG4f8DvRFtdljjBKgAAAAASUVORK5CYII=;" parent="1" vertex="1">
          <mxGeometry x="474" y="587" width="52" height="52" as="geometry" />
        </mxCell>
        <mxCell id="ZyRGwzsniOqlc5HnI02d-45" value="Question Service" style="text;html=1;strokeColor=none;fillColor=none;align=center;verticalAlign=middle;whiteSpace=wrap;rounded=0;shadow=0;sketch=0;fontFamily=Tahoma;fontSize=16;flipH=0;flipV=0;spacing=3;spacingTop=0;" parent="1" vertex="1">
          <mxGeometry x="430" y="321" width="140" height="20" as="geometry" />
        </mxCell>
        <mxCell id="ZyRGwzsniOqlc5HnI02d-46" value="Exam Service" style="text;html=1;strokeColor=none;fillColor=none;align=center;verticalAlign=middle;whiteSpace=wrap;rounded=0;shadow=0;sketch=0;fontFamily=Tahoma;fontSize=16;flipH=0;flipV=0;spacing=3;spacingTop=0;" parent="1" vertex="1">
          <mxGeometry x="440" y="434" width="120" height="20" as="geometry" />
        </mxCell>
        <mxCell id="ZyRGwzsniOqlc5HnI02d-47" value="Sign Service" style="text;html=1;strokeColor=none;fillColor=none;align=center;verticalAlign=middle;whiteSpace=wrap;rounded=0;shadow=0;sketch=0;fontFamily=Tahoma;fontSize=16;flipH=0;flipV=0;spacing=3;spacingTop=0;" parent="1" vertex="1">
          <mxGeometry x="450" y="547" width="100" height="20" as="geometry" />
        </mxCell>
        <mxCell id="ZyRGwzsniOqlc5HnI02d-48" value="Tip Service" style="text;html=1;strokeColor=none;fillColor=none;align=center;verticalAlign=middle;whiteSpace=wrap;rounded=0;shadow=0;sketch=0;fontFamily=Tahoma;fontSize=16;flipH=0;flipV=0;spacing=3;spacingTop=0;" parent="1" vertex="1">
          <mxGeometry x="450" y="660" width="100" height="20" as="geometry" />
        </mxCell>
      </root>
    </mxGraphModel>
  </diagram>
  <diagram id="ZHSFay_bjs1TdufPDFPW" name="UseCase">
    <mxGraphModel dx="2391" dy="2043" grid="1" gridSize="10" guides="1" tooltips="1" connect="1" arrows="1" fold="1" page="1" pageScale="1" pageWidth="827" pageHeight="1169" math="0" shadow="0">
      <root>
        <mxCell id="a93Q3gz6tKEj2bYpAAod-0" />
        <mxCell id="a93Q3gz6tKEj2bYpAAod-1" parent="a93Q3gz6tKEj2bYpAAod-0" />
        <mxCell id="a93Q3gz6tKEj2bYpAAod-3" value="USER" style="shape=umlActor;verticalLabelPosition=bottom;verticalAlign=top;html=1;outlineConnect=0;fontSize=16;fontStyle=0" vertex="1" parent="a93Q3gz6tKEj2bYpAAod-1">
          <mxGeometry x="170" y="-170" width="30" height="60" as="geometry" />
        </mxCell>
        <mxCell id="a93Q3gz6tKEj2bYpAAod-8" value="Main Screen" style="ellipse;whiteSpace=wrap;html=1;fontSize=16;fontStyle=1" vertex="1" parent="a93Q3gz6tKEj2bYpAAod-1">
          <mxGeometry x="125" y="20" width="130" height="70" as="geometry" />
        </mxCell>
        <mxCell id="a93Q3gz6tKEj2bYpAAod-11" value="Xem danh sách bài thi" style="ellipse;whiteSpace=wrap;html=1;fontSize=16;fontStyle=0" vertex="1" parent="a93Q3gz6tKEj2bYpAAod-1">
          <mxGeometry x="-96" y="200" width="166" height="100" as="geometry" />
        </mxCell>
        <mxCell id="a93Q3gz6tKEj2bYpAAod-13" value="Xem danh sách biển báo" style="ellipse;whiteSpace=wrap;html=1;fontSize=16;fontStyle=1" vertex="1" parent="a93Q3gz6tKEj2bYpAAod-1">
          <mxGeometry x="330.5" y="280.5" width="150" height="99" as="geometry" />
        </mxCell>
        <mxCell id="a93Q3gz6tKEj2bYpAAod-16" value="Xem danh sách lời khuyên" style="ellipse;whiteSpace=wrap;html=1;fontSize=16;fontStyle=1" vertex="1" parent="a93Q3gz6tKEj2bYpAAod-1">
          <mxGeometry x="520" y="231" width="170" height="109" as="geometry" />
        </mxCell>
        <mxCell id="a93Q3gz6tKEj2bYpAAod-18" value="Lọc" style="ellipse;whiteSpace=wrap;html=1;fontSize=16;fontStyle=1" vertex="1" parent="a93Q3gz6tKEj2bYpAAod-1">
          <mxGeometry x="-400" y="140" width="80" height="60" as="geometry" />
        </mxCell>
        <mxCell id="a93Q3gz6tKEj2bYpAAod-19" value="Tìm Kiếm" style="ellipse;whiteSpace=wrap;html=1;fontSize=16;fontStyle=1" vertex="1" parent="a93Q3gz6tKEj2bYpAAod-1">
          <mxGeometry x="-400" y="220" width="80" height="60" as="geometry" />
        </mxCell>
        <mxCell id="a93Q3gz6tKEj2bYpAAod-20" value="Sắp Xếp" style="ellipse;whiteSpace=wrap;html=1;fontSize=16;fontStyle=1" vertex="1" parent="a93Q3gz6tKEj2bYpAAod-1">
          <mxGeometry x="-400" y="300" width="80" height="60" as="geometry" />
        </mxCell>
        <mxCell id="a93Q3gz6tKEj2bYpAAod-22" value="&amp;lt;&amp;lt; extend &amp;gt;&amp;gt;" style="endArrow=open;startArrow=none;endFill=0;startFill=0;endSize=8;html=1;verticalAlign=bottom;dashed=1;labelBackgroundColor=none;fontFamily=Tahoma;fontSize=16;fontStyle=0" edge="1" parent="a93Q3gz6tKEj2bYpAAod-1">
          <mxGeometry x="0.1202" y="10" width="160" relative="1" as="geometry">
            <mxPoint x="-310" y="172" as="sourcePoint" />
            <mxPoint x="-100" y="222" as="targetPoint" />
            <mxPoint as="offset" />
          </mxGeometry>
        </mxCell>
        <mxCell id="a93Q3gz6tKEj2bYpAAod-23" value="&amp;lt;&amp;lt;extend &amp;gt;&amp;gt;" style="endArrow=open;startArrow=none;endFill=0;startFill=0;endSize=8;html=1;verticalAlign=bottom;dashed=1;labelBackgroundColor=none;fontFamily=Tahoma;exitX=1;exitY=0.5;exitDx=0;exitDy=0;fontSize=16;fontStyle=0" edge="1" parent="a93Q3gz6tKEj2bYpAAod-1" source="a93Q3gz6tKEj2bYpAAod-19">
          <mxGeometry width="160" relative="1" as="geometry">
            <mxPoint x="-230" y="210" as="sourcePoint" />
            <mxPoint x="-110" y="250" as="targetPoint" />
          </mxGeometry>
        </mxCell>
        <mxCell id="a93Q3gz6tKEj2bYpAAod-24" value="&amp;lt;&amp;lt;extend&amp;gt;&amp;gt;" style="endArrow=open;startArrow=none;endFill=0;startFill=0;endSize=8;html=1;verticalAlign=bottom;dashed=1;labelBackgroundColor=none;fontFamily=Tahoma;exitX=1;exitY=0.5;exitDx=0;exitDy=0;fontSize=16;fontStyle=0" edge="1" parent="a93Q3gz6tKEj2bYpAAod-1" source="a93Q3gz6tKEj2bYpAAod-20">
          <mxGeometry x="-0.1827" width="160" relative="1" as="geometry">
            <mxPoint x="-230" y="210" as="sourcePoint" />
            <mxPoint x="-100" y="280" as="targetPoint" />
            <mxPoint x="1" as="offset" />
          </mxGeometry>
        </mxCell>
        <mxCell id="a93Q3gz6tKEj2bYpAAod-26" value="&amp;lt;&amp;lt;extend&amp;gt;&amp;gt;" style="endArrow=open;startArrow=none;endFill=0;startFill=0;endSize=8;html=1;verticalAlign=bottom;dashed=1;labelBackgroundColor=none;fontFamily=Tahoma;fontSize=16;fontStyle=0;exitX=0.5;exitY=0;exitDx=0;exitDy=0;entryX=0.5;entryY=1;entryDx=0;entryDy=0;" edge="1" parent="a93Q3gz6tKEj2bYpAAod-1" source="a93Q3gz6tKEj2bYpAAod-63" target="a93Q3gz6tKEj2bYpAAod-62">
          <mxGeometry x="-0.0941" y="39" width="160" relative="1" as="geometry">
            <mxPoint x="-20" y="400" as="sourcePoint" />
            <mxPoint x="-20" y="310" as="targetPoint" />
            <mxPoint as="offset" />
          </mxGeometry>
        </mxCell>
        <mxCell id="a93Q3gz6tKEj2bYpAAod-27" value="&amp;lt;&amp;lt;extend&amp;gt;&amp;gt;" style="endArrow=open;startArrow=none;endFill=0;startFill=0;endSize=8;html=1;verticalAlign=bottom;dashed=1;labelBackgroundColor=none;fontFamily=Tahoma;entryX=0.5;entryY=1;entryDx=0;entryDy=0;fontSize=16;fontStyle=0;exitX=0.5;exitY=0;exitDx=0;exitDy=0;" edge="1" parent="a93Q3gz6tKEj2bYpAAod-1" source="a93Q3gz6tKEj2bYpAAod-60" target="a93Q3gz6tKEj2bYpAAod-63">
          <mxGeometry x="-0.0941" y="39" width="160" relative="1" as="geometry">
            <mxPoint x="-31" y="590" as="sourcePoint" />
            <mxPoint x="-31.09" y="480" as="targetPoint" />
            <mxPoint as="offset" />
          </mxGeometry>
        </mxCell>
        <mxCell id="a93Q3gz6tKEj2bYpAAod-29" value="&amp;lt;&amp;lt;extend&amp;gt;&amp;gt;" style="endArrow=open;startArrow=none;endFill=0;startFill=0;endSize=8;html=1;verticalAlign=bottom;dashed=1;labelBackgroundColor=none;fontFamily=Tahoma;entryX=1;entryY=1;entryDx=0;entryDy=0;exitX=0.24;exitY=0.071;exitDx=0;exitDy=0;fontSize=16;fontStyle=0;exitPerimeter=0;" edge="1" parent="a93Q3gz6tKEj2bYpAAod-1" source="a93Q3gz6tKEj2bYpAAod-59" target="a93Q3gz6tKEj2bYpAAod-60">
          <mxGeometry x="-0.4984" y="-27" width="160" relative="1" as="geometry">
            <mxPoint x="101.12272658291522" y="742.5632920290645" as="sourcePoint" />
            <mxPoint x="36.882466613496035" y="666.560356637423" as="targetPoint" />
            <mxPoint as="offset" />
          </mxGeometry>
        </mxCell>
        <mxCell id="a93Q3gz6tKEj2bYpAAod-31" value="&amp;lt;&amp;lt;extend&amp;gt;&amp;gt;" style="endArrow=open;startArrow=none;endFill=0;startFill=0;endSize=8;html=1;verticalAlign=bottom;dashed=1;labelBackgroundColor=none;fontFamily=Tahoma;entryX=0;entryY=1;entryDx=0;entryDy=0;fontSize=16;fontStyle=0" edge="1" parent="a93Q3gz6tKEj2bYpAAod-1" target="a93Q3gz6tKEj2bYpAAod-60">
          <mxGeometry x="-0.4883" y="27" width="160" relative="1" as="geometry">
            <mxPoint x="-160" y="750" as="sourcePoint" />
            <mxPoint x="-77.88246661349604" y="666.560356637423" as="targetPoint" />
            <mxPoint as="offset" />
          </mxGeometry>
        </mxCell>
        <mxCell id="a93Q3gz6tKEj2bYpAAod-38" value="&amp;lt;&amp;lt; extend &amp;gt;&amp;gt;" style="endArrow=open;startArrow=none;endFill=0;startFill=0;endSize=8;html=1;verticalAlign=bottom;dashed=1;labelBackgroundColor=none;fontFamily=Tahoma;exitX=1;exitY=0.5;exitDx=0;exitDy=0;fontSize=16;fontStyle=0" edge="1" parent="a93Q3gz6tKEj2bYpAAod-1" source="a93Q3gz6tKEj2bYpAAod-41" target="a93Q3gz6tKEj2bYpAAod-13">
          <mxGeometry x="0.1247" y="18" width="160" relative="1" as="geometry">
            <mxPoint x="190" y="202" as="sourcePoint" />
            <mxPoint x="350" y="250" as="targetPoint" />
            <mxPoint x="-1" as="offset" />
          </mxGeometry>
        </mxCell>
        <mxCell id="a93Q3gz6tKEj2bYpAAod-39" value="&amp;lt;&amp;lt;extend &amp;gt;&amp;gt;" style="endArrow=open;startArrow=none;endFill=0;startFill=0;endSize=8;html=1;verticalAlign=bottom;dashed=1;labelBackgroundColor=none;fontFamily=Tahoma;exitX=1;exitY=0.5;exitDx=0;exitDy=0;fontSize=16;fontStyle=0" edge="1" source="a93Q3gz6tKEj2bYpAAod-42" parent="a93Q3gz6tKEj2bYpAAod-1" target="a93Q3gz6tKEj2bYpAAod-13">
          <mxGeometry x="0.1072" y="2" width="160" relative="1" as="geometry">
            <mxPoint x="270" y="240" as="sourcePoint" />
            <mxPoint x="350" y="290" as="targetPoint" />
            <mxPoint as="offset" />
          </mxGeometry>
        </mxCell>
        <mxCell id="a93Q3gz6tKEj2bYpAAod-40" value="&amp;lt;&amp;lt;extend&amp;gt;&amp;gt;" style="endArrow=open;startArrow=none;endFill=0;startFill=0;endSize=8;html=1;verticalAlign=bottom;dashed=1;labelBackgroundColor=none;fontFamily=Tahoma;exitX=1;exitY=0.5;exitDx=0;exitDy=0;entryX=0.075;entryY=0.83;entryDx=0;entryDy=0;entryPerimeter=0;fontSize=16;fontStyle=0" edge="1" source="a93Q3gz6tKEj2bYpAAod-43" parent="a93Q3gz6tKEj2bYpAAod-1" target="a93Q3gz6tKEj2bYpAAod-13">
          <mxGeometry x="-0.0661" y="6" width="160" relative="1" as="geometry">
            <mxPoint x="270" y="240" as="sourcePoint" />
            <mxPoint x="350" y="320" as="targetPoint" />
            <mxPoint x="1" as="offset" />
          </mxGeometry>
        </mxCell>
        <mxCell id="a93Q3gz6tKEj2bYpAAod-41" value="Lọc" style="ellipse;whiteSpace=wrap;html=1;fontSize=16;fontStyle=1" vertex="1" parent="a93Q3gz6tKEj2bYpAAod-1">
          <mxGeometry x="120" y="240" width="80" height="60" as="geometry" />
        </mxCell>
        <mxCell id="a93Q3gz6tKEj2bYpAAod-42" value="Tìm Kiếm&amp;nbsp;" style="ellipse;whiteSpace=wrap;html=1;fontSize=16;fontStyle=1" vertex="1" parent="a93Q3gz6tKEj2bYpAAod-1">
          <mxGeometry x="110" y="320" width="95" height="60" as="geometry" />
        </mxCell>
        <mxCell id="a93Q3gz6tKEj2bYpAAod-43" value="Sắp Xếp" style="ellipse;whiteSpace=wrap;html=1;fontSize=16;fontStyle=1" vertex="1" parent="a93Q3gz6tKEj2bYpAAod-1">
          <mxGeometry x="110" y="400" width="98" height="60" as="geometry" />
        </mxCell>
        <mxCell id="a93Q3gz6tKEj2bYpAAod-45" value="Xem chi tiết biển báo" style="ellipse;whiteSpace=wrap;html=1;fontFamily=Tahoma;fontSize=16;fontStyle=1" vertex="1" parent="a93Q3gz6tKEj2bYpAAod-1">
          <mxGeometry x="341" y="470" width="129" height="80" as="geometry" />
        </mxCell>
        <mxCell id="a93Q3gz6tKEj2bYpAAod-46" value="&amp;lt;&amp;lt;extend&amp;gt;&amp;gt;" style="endArrow=open;startArrow=none;endFill=0;startFill=0;endSize=8;html=1;verticalAlign=bottom;dashed=1;labelBackgroundColor=none;fontFamily=Tahoma;exitX=0.5;exitY=0;exitDx=0;exitDy=0;entryX=0.5;entryY=1;entryDx=0;entryDy=0;fontSize=16;fontStyle=0" edge="1" parent="a93Q3gz6tKEj2bYpAAod-1" source="a93Q3gz6tKEj2bYpAAod-45" target="a93Q3gz6tKEj2bYpAAod-13">
          <mxGeometry x="-0.0941" y="39" width="160" relative="1" as="geometry">
            <mxPoint x="386.5" y="410" as="sourcePoint" />
            <mxPoint x="395.5" y="310" as="targetPoint" />
            <mxPoint as="offset" />
          </mxGeometry>
        </mxCell>
        <mxCell id="a93Q3gz6tKEj2bYpAAod-50" value="" style="endArrow=none;html=1;fontFamily=Tahoma;exitX=0.5;exitY=0;exitDx=0;exitDy=0;fontSize=16;fontStyle=0" edge="1" parent="a93Q3gz6tKEj2bYpAAod-1" source="a93Q3gz6tKEj2bYpAAod-8">
          <mxGeometry width="50" height="50" relative="1" as="geometry">
            <mxPoint x="220" y="340" as="sourcePoint" />
            <mxPoint x="185" y="-80" as="targetPoint" />
          </mxGeometry>
        </mxCell>
        <mxCell id="a93Q3gz6tKEj2bYpAAod-53" value="&amp;lt;&amp;lt;extend&amp;gt;&amp;gt;" style="html=1;verticalAlign=bottom;labelBackgroundColor=none;endArrow=open;endFill=0;dashed=1;fontFamily=Tahoma;fontSize=16;fontStyle=0" edge="1" parent="a93Q3gz6tKEj2bYpAAod-1">
          <mxGeometry x="0.1294" y="29" width="160" relative="1" as="geometry">
            <mxPoint x="-30" y="190" as="sourcePoint" />
            <mxPoint x="110" y="70" as="targetPoint" />
            <mxPoint as="offset" />
          </mxGeometry>
        </mxCell>
        <mxCell id="a93Q3gz6tKEj2bYpAAod-54" value="&amp;lt;&amp;lt;extend&amp;gt;&amp;gt;" style="html=1;verticalAlign=bottom;labelBackgroundColor=none;endArrow=open;endFill=0;dashed=1;fontFamily=Tahoma;fontSize=16;fontStyle=0" edge="1" parent="a93Q3gz6tKEj2bYpAAod-1" source="a93Q3gz6tKEj2bYpAAod-13">
          <mxGeometry x="0.0361" y="42" width="160" relative="1" as="geometry">
            <mxPoint x="360" y="280" as="sourcePoint" />
            <mxPoint x="220" y="90" as="targetPoint" />
            <mxPoint as="offset" />
          </mxGeometry>
        </mxCell>
        <mxCell id="a93Q3gz6tKEj2bYpAAod-55" value="&amp;lt;&amp;lt;extend&amp;gt;&amp;gt;" style="html=1;verticalAlign=bottom;labelBackgroundColor=none;endArrow=open;endFill=0;dashed=1;fontFamily=Tahoma;fontSize=16;fontStyle=0;exitX=0;exitY=0;exitDx=0;exitDy=0;" edge="1" parent="a93Q3gz6tKEj2bYpAAod-1" source="a93Q3gz6tKEj2bYpAAod-16">
          <mxGeometry x="0.0023" y="-16" width="160" relative="1" as="geometry">
            <mxPoint x="560" y="210" as="sourcePoint" />
            <mxPoint x="270" y="60" as="targetPoint" />
            <Array as="points" />
            <mxPoint as="offset" />
          </mxGeometry>
        </mxCell>
        <mxCell id="a93Q3gz6tKEj2bYpAAod-59" value="Thực hiện bài thi" style="ellipse;whiteSpace=wrap;html=1;fontSize=14;fontStyle=1" vertex="1" parent="a93Q3gz6tKEj2bYpAAod-1">
          <mxGeometry x="80" y="740" width="160" height="79.54" as="geometry" />
        </mxCell>
        <mxCell id="a93Q3gz6tKEj2bYpAAod-60" value="Xem danh sách câu hỏi" style="ellipse;whiteSpace=wrap;html=1;fontSize=16;fontStyle=1" vertex="1" parent="a93Q3gz6tKEj2bYpAAod-1">
          <mxGeometry x="-101" y="600" width="176" height="90" as="geometry" />
        </mxCell>
        <mxCell id="a93Q3gz6tKEj2bYpAAod-61" value="Chấm điểm" style="ellipse;whiteSpace=wrap;html=1;fontSize=14;fontStyle=1" vertex="1" parent="a93Q3gz6tKEj2bYpAAod-1">
          <mxGeometry x="-280" y="740" width="150" height="79.54" as="geometry" />
        </mxCell>
        <mxCell id="a93Q3gz6tKEj2bYpAAod-62" value="Xem danh sách bài thi" style="ellipse;whiteSpace=wrap;html=1;fontSize=16;fontStyle=1" vertex="1" parent="a93Q3gz6tKEj2bYpAAod-1">
          <mxGeometry x="-96" y="200" width="166" height="100" as="geometry" />
        </mxCell>
        <mxCell id="a93Q3gz6tKEj2bYpAAod-63" value="Xem chi tiết bài thi" style="ellipse;whiteSpace=wrap;html=1;fontFamily=Tahoma;fontSize=16;fontStyle=1" vertex="1" parent="a93Q3gz6tKEj2bYpAAod-1">
          <mxGeometry x="-86" y="420" width="146" height="90" as="geometry" />
        </mxCell>
        <mxCell id="a93Q3gz6tKEj2bYpAAod-64" value="" style="endArrow=none;html=1;fontFamily=Tahoma;fontSize=16;" edge="1" parent="a93Q3gz6tKEj2bYpAAod-1">
          <mxGeometry width="50" height="50" relative="1" as="geometry">
            <mxPoint x="-560" as="sourcePoint" />
            <mxPoint x="-550" as="targetPoint" />
            <Array as="points">
              <mxPoint x="-560" y="840" />
              <mxPoint x="760" y="840" />
              <mxPoint x="760" />
            </Array>
          </mxGeometry>
        </mxCell>
        <mxCell id="a93Q3gz6tKEj2bYpAAod-66" value="Use case for User" style="text;html=1;strokeColor=none;fillColor=none;align=center;verticalAlign=middle;whiteSpace=wrap;rounded=0;fontFamily=Tahoma;fontSize=25;fontStyle=1" vertex="1" parent="a93Q3gz6tKEj2bYpAAod-1">
          <mxGeometry x="490" y="10" width="230" height="20" as="geometry" />
        </mxCell>
      </root>
    </mxGraphModel>
  </diagram>
</mxfile>
=======
<mxfile host="app.diagrams.net" modified="2021-04-30T05:57:06.136Z" agent="5.0 (Windows NT 10.0; Win64; x64) AppleWebKit/537.36 (KHTML, like Gecko) Chrome/90.0.4430.93 Safari/537.36" etag="8dYcbiljfDzqNXa5SZ-O" version="14.6.9" type="device" pages="2"><diagram id="Y8R3UVB2cNtYBamJNuuW" name="System Diagram">7LzZlqtIli36NfFYNegk4NGMHtEKIUBviF6iE4hGfP01w33v2JERdbNuncw8Ne7IHeHuEjKsWc1ccy0z9BstNKsyxH1pdmlW/0YR6fobLf5GUSRJsugPvvL5unKkmK8LxVCl341+v+BVW/Z9kfi+OlVpNv6h4bvr6nfV//Fi0rVtlrz/cC0ehm75Y7O8q/84ah8X2Z8ueElc//lqUKXv8usqR7G/X1ezqih/jEwe+a9PmvhH4++VjGWcdssvl2jpN1oYuu799apZhazGwvshl6/75P/i058TG7L2/d+54fY5K8s2tpX9qpOD2moElf7Hdy9zXE/fC/6e7PvzQwJDN7VphjshfqPhUlbvzOvjBH+6IJ2ja+W7qdE7Er387i4b3tn6X86T/Ll6ZDZZ12Tv4YOarH/U/LfBkMfv98vv4qd/tCl/Ef3hR8P4W+XFz65/lwp68S2Y/w9Cov8kJHno2vd/ZG36J2mhdb//KJLxPXTPTOjqbkBX2q5FLWFe1fXfXIrrqmjR2wTJKUPXIZZihSwRfH/QVGmKh/lLHfxRSzmanhw3VY2FeInLrom/r357GMn9Y5RF/42yuD8ri/8LXVH/LFUd/749/xCrEd+z2unG6l11WLz37v3umr+Q+7v7GyP/6clY1Gk8lj/l/qXrH0BBfbXt8cDNWmCA/M+4TYeuSv+zL5HWqT+Zx28UnRD4P/zJM3sn5XfP6O60Qkr5pWG+//vH6JH/ox5/vv9FjyT1V4r8p2mS/ZMmQd+jC78J9G8806JXl7JCvxXHCP8bXviP8i7yb5z3Vz38fa87/slG/owQqEdi//ercZHfb5z4jabf7lco4h+EuNzhD8o/0H+hfPqvEPefpXvuHxyV/uCwf3Cr/4nKqP8XE/gnuyl9/PvBkeL+pcGR/5OuYJw8/x0aKZpl/m5s/CtV/dMQ9Qdp+rdb/a2qjtz/Orei/6wsMX7H93jM/pc61v+JNfyDXI4l/j4dZf+VLkf/N/KrP3vBH13sD/Qxr7slKePh/Z/pD2v47zCW/1Pd/E/8Mq+rXv0xCnp9/TE8mmjVFugd/fu7C+bY+8f/pQX+I+yD4/9Ic/+C6Rz/wj7+eV5O/ck+3CkbcUYyossi/P+hrx//57bxjzAB9o8QQRN/QXaJfylG/Lm88G+M+K/t4D+ofzFI0If/2yDB/MlAPLTsfwPEPwcguON//jEfZqi/MAD2X4kQh38jxP9mhGDY/9sI8eeyp7TGzb8R4p+EEOTfIMSB+Ys841+KEH+ulv4bIf4XIcThL+rp/1qE+HNJ9YK3UP8NEP8MgPib3ZTjX5ST/kr7/zR4YP47ZYhvBKiafUcc7n/B2H9tqmPJxD/e5NWKtQT/hztp/zjIOP7JNH/dPPnHlBe/5SFiHPyNBl9vKblHFkQJ1RXa54U4KUUH0D/L80vJL9Ar/AM0IIAI/RWJzLoc8RWoWoJ3dTUBFFoOymeFL4J68eR6ww33e0kNSgA8Pfwa1sT5WhI+xTepmpZJ44OUTmmjqaeYth5RCGuj4T+3wzw5EM1BAMDzz/CqVgmbkvSkXMkcT3fl6RSMAqQq12dPlUtJpSTLNz3yH95B8omxgr3xcBLvYd66rmvPDVM0db0a0eujzd61Wjw3eGivqhhk9VX67DUZwOLkv1FwzJNs65fD4bjyfH0Y0GhXNJ/DoXU407yht/fjgj5vEQTJhyHl49OmXbyb8ZJLmQXt2wnZNOITngXXCYSOXD3QTTAXxWU12Yy00G1PpgRX8Bw8szKKNVHQpSKygR3CkCDJ9jP4HMwfxLaR9Ce/e0roj4kl6BMUl3sm1U0+zJKon56rf5GGSGRN0PLZZup4ch2eYkEOuXstlJnJYcZIIXhxilrCW836x0rweqOWVkhBl32iD1D7jBMkPLE1JoICBmXOn5xFyOB96R0vKb3kKq8SBc6LoAI67blUUHLiHZ8WcC8d/hQugv0ZV+e9nXxdaVi0qoAz0Kqj0jnO4D4RjmaU9FEPhFFImDsaybMZ2N7sG93079OzdM/BoZLwTGRzadGdjvsyI/S+IocZgFFymK1eUJcygNsbrxDqr3dOxOildSk8GzRrhBAOfT53liSM0oUZaJd6oisEXNkO/XX1UyCtEg0cxkQj4PWCt/tyAINFZkbEtdAHIT+Gjsk/80TRLfaT6t0qnckly2C56lMQohtJd8MTKLseAArPmehnhLMym+BBFO8qENUwvp+vnOsiNJIsMMeVMFuAXi6I2cCEKt5gQS/wzcnSXPB90pyq6BLQbXLMyjnrvuRB+8aDtWMm5eD7HIN6xErW80T1LO0l5bLEKI8ie13bIHJKelVIOQICljD00M9iPh/Xg0TDnhFvDtbIMGicjf66RhhwXqYukC1Yzm60THlL9MlwRV33z9LG4S7AoDjHmOC1AUBCQwPzYaJ+YI9sscKTheTFZs80GSj5kryvLjgqDjPkWJx4mh2gp40HxBuaeNkifbXFwyL6pwdrnndJPOSKAaqLwwEl1xdWvalYKzeic7RnTVZayRdpIsJDnPWJoV9O7OYcscQ1a7i57Qiy8oLnCRKgEyyOdnBNs7LUg+dNQjani6Fr5h+yJpagwG6IjZ0YbXgn7hJNXCTLHx2NaO7yWXVgygihQS8nOUAtC1vNs9t4hKn44PD0kNVBDmzFPWMcAnokEUpkhKxJ5d2sjw65puo2Mg9ZnLH5NkYBRAG/vF6a08dBL4Std7Nzb1ylVaMgz6u8HnLIDGT1XQ+1CcBCYrtSx4U6Y1ORZ6Rl+xVXTlHr5XQTce/XodXkyBTLmR/kxeJEgxvMikCroNpEm05wEeeOLCyObByG5wUFBlD68jj+8BhFuhq+7KK+CPwL0TrZKGTytG2aumukJR+EbFoGtosDp9wLc1XPJeXTnmt6UsjZM9zEcCHvyXItVhvLMyj0Gd6OtyblBif6PKPbiPWAcfraZ1mEfBCqebKNV2Bip7ucE9HAvgzpmYDPvnMlPD/nACc7KFmPfIhivkDqBMA5cZ2CWR+o7ZHGSihOl/icnGfTaH2WetW3QyseGJXF82D5N9v3ITJnt6th1pwoLHVRqoxSPQbSk7/ykgo+HOSs3EinEiiXBibCJnC0py/Jh/LOzF26JLPjLs+567WJOeUanByOnNcZ5I0RUkBZ4Fw8kikpsXdenDs2WKHajM+TFwXsc5VU3Quek4ZyPV7bJnIKh1D7EIHnKT9tfBIO74nYKMhu1hdeWI8Tz+Eb20Ke/LbxbaRcMITjo9MezBX7GU2tZCtZx7RxubcTec9799Jem4S9bLG+tEdjz7GqDrwXbL/itAXH54VP13oJfU715N44GwvyYmggTOe2kiOWib9M2K0F+FqHIWyoe6MkGKfej4fh24tCGw4h6aej/tEyIH54Hq6b6axqZ78ULAAOA6Iq3YtlM7XYV5+W+5buUpiAxe0D5BdO5axaJC/mKMj0rTu60jP1UwmqYBzlvA+8bkd584MwFdpo7kIL1LS/xXqZYHcGvU01Itb8YZrdRMYYYdo5c+G8Os+QUS1DEVtxo1y1tHCma9hpXna12HXAOGHp21UUuTNVTSVxeB6KFsxbxH4myChPEE9RxYgzoKaWuoccVkcv3jfy1LSAnO5K4wGxevLI5qqwCBM0vqtsuLdtAr1ww3ii18XtvbrSORmxMt3n+NIqZwSPT8Gvy47+B2WggccsS6qGcGQeGTvfbOqEbqbyJj9EmVuf2H7YUQOjAZdM9Y1sVCYm7RaYDxOTZOWzmATTOy54dh2jmlau3rNedsUor9vik8BUOdRdILHmplkn8aP0Tmpd8mMiWJ+R/6ydmVMU/Tr7gDMMcLn37Fn+DDwUvGC+torDvgqfCIEm4hmDy9L2favEpwHEDPAE84zcQm5r+fh4BElpK/P1HL2AjCVW9om8TbZLFJYWj3QOrvgwKZxSnwGKMpO3+wTg81C3wKOm5BYX9ulCIa3e5NVhQUfMzpj0AQM4Mz+SdYNm2BiXVOX99aOJqeMZ1EmkpN6M+dJm+CNCFSg3eSsTT7trDmgWlmMALLxPXzdKXOcJ/AAreLqJaH1oHn6GEDTcG+nu+DrU1wUAuhARgKaUZz8hChCvB0LPUYudW3ajPRyWS7Z+HYFa3hh55UwdED5UVpmG0fHSBpxGe+D4uB/rAmqig72fLmk140gf05PRKWA/6gdgHdA7KqXvPUjP7/fZA68gL26ROlBnn5kcZCtTd5XuI7h8On7dhhfGwNcE4uEtUedjkEHj2OKLINeIQnS5eXEwNrnYsCHFpr1Lu/TKMiAn50/m0rKGvYuMj0aDfbrhK44vjNebLE5uc+EwUL0Mm18/bnhg0DIvdesB6SKpkYyAiVZhg+Avn67q00jJxD10jQ38tWdolr1DJFZPcrxDtsdqeFsPQVZAEqMTsXu3hUkFdljkWD2mW5wTG4SqWkyM5EzKlMVCw9okTmCpoZrDeXpamuidBnlYLLYuD5U4vw/KUxziXPs8gwTU2x1NU24pIicuBBNNSq/R/Hl6QmtUL0DuL9HiFzu1kOslmN7Fe2F5XURIF7fLC/SLQvSv2yw7ksCAxFKP1vztz/I52emRQBobi1EUomhuYF9805cYqMs4AlK96kcg1cYxtTC2bvYEmqK9p8uLKx/FAcY2sebsmXPfXsGVcSAFKNkRGDyn1ZwFcu2x54oMgRZKDR9tgrel5fXNMMULsHr9hG3N+JirAzJ+ZEgUNBJPmyS117zzm3pxwnTwUfhU8Ljq/cK8P+MoDKyGonCsVcjNPevl05+FX6A2oh5hvMuDs2ajemPRhQAg8o9kKxCviBsRenjYngjUm8vPdjV763KmuUDyuA5HlbjEdi4MRGuOn6sP7mn6AsnDrBBXf4etqbZVo/viq/TUxH9nLGhe7LtOUKbISPlJBcl9NqUKkvQqBJgj56SlwSaoOBCWMWM8J0AqpBgACSGM1b1G9wT0FnE7kOoRmya3CLzuk4KyRk70AIhmzcoiScQM76jw2x7fos4kFFJFdIPVY9euoiIHW/Jy/NTKq+eG8OYo6NfrDfgIzOw9biTyMGZXcKpFxI8UUci5JTVB1wDYiF1sG/MiymQt3IRj9HkYu6YzWIs3MEGE7v4IrhotngiQoZlXLw5lsYuRGywhQbIRbuJJofRoKrolGX2j0BEajr6n6Vdy4jXRMiEPBCtEOQy42bG+WG/EAeS1LgQEsFOovgBsiyiafMYvcNwZOegUfeK3VYCouoRyv9EPX6BsizgyvRPtpoW2KqtCI85rPogUmzEXcvBEVymIa1lqzWhB0uW0zVbfIzJ01KB/gmuJIEhiaulZTkISAKwL/aTZcGK87HlQ2lO7Oevr6Kn+XKO5WEFTZiALjatgWjchAo0blOB8wL7aHx8aznWMzeAmJ7rE8ll22MaHAUo/tGt1cFuRfD5s8gO1wvKW6l0obK2ju26Mougo10D87/OU0Ch+FbUpFVZSlFSIWkmFVUXVgIPQx/rg1lqNwyww1w84LVTXC6Y8lrYuliidM1DnAOWaiNAhRrNdTGIBiOIaXBenLNAj0nBdNXn7pwVpv/Cu4FXXKBcymOuEVjzd+kKT72rOLETx1XeyEw0iEbObl8ZVhe+QJRZkJoPiK9bTywgFle1J7Qgrs0VJSMtU5oGzaNAzpiOkY22+N32UvTyMr+0L1G05MECOd7NC+ZRw2dDSTZ5zaEAw8+wiOERadvxDj/kDMHJlKoC9+XklIuaeNuHT5gSxMFBvwQ3U7mlQpwREWx9mpoeB65W77uuZYiDWTDmS7FvmXheoRyC+e024JNNJJFVvWywTiFsp8kvpBkWB1ib1jOJjEmcqOZoj2YFDA/SndJsNEAIkS/7dtSgPeADwAK3HACJuzB7YsC9kNr45+ww3A6herFE9UIu4U5JAUPfcxRSbwD09/XN/ATkgXI0bEcsohBFW+I6j9umBJgzAoJazU4itwsFAR+uDr2t34cxYDGkQXpLnJDmJ0aGktglQZCHm+nAs9NtBeYliXJR7RsDHQL89hRtUmNvFA+sFuQqwX1XLgTvbEAscpFJhgZkgVrbwH0bnqpdAFNEDcT+UcUF/KnHA9PmGrd9HQabqdcbIDYYqOC2ATJDlKMNnHVwjMT0DBchOu6Qu5q2F0GLzvAUCIVh4XZ1KrTwA8gSbBVAdIqrCXLic+OoJvLZxjAlQgKCYwF1QPwvY7pLkaSaxFgaatSAoBbaDEQDis2qF6L+bHC9y91HEjK+dhjKQlRuBSW1QqkSTu10BeAPE8DDYUTRiGQAinMGj+eY5BjbKdJc4UBVtQnfiOffmhxOFBQx3gMZ2VjLVRNkxTpVVkTyEIkkYDKDXji84lNphUD5jJi4jJuO+DiYNn0dPUYZTuJSrLy/iCN/jwsLnwMtnhEsj83KkqHeWnPpw24yizzOWO3Ov2j0PT7J1aEnulGBC8+fT3kEa8whcPxHkSkSURYAi0aAZrB9MIqokKACKbld9pu8sAbQwVdTyclYXTmtXe9H1WGz5aMwXR+6wbcke9jWSQlzoyJRi4a3yGkpuopYyYhnH7r68sM1v98KhMwSVBLjdn61rv1SEJDoHaYA4LEstA4fnBCZGpW6Zr5bZ5fVGyaiYC9omku1BOCKfsW+nwnLvBqcuIa4HTotmA2vBA7QvBAjm61rciKuAZvhGMxwKSJTVCP02lVdZBR5iv4Rvb3UkI7llVh4EBcoXMQrJepM3lJp5C6ADSX8aXauVrH7AWq6N17U93utzzagCg4uW8oZ4zLHGPAYZoYljtDjipuZ1gjmVfW6UuNxiuOxYylkPJ5+cLjRckN4Qsn8eDhdsTme+Bcg53C1xHHNWL+TMAhSa3doVBpUT+MZXkDJw3crhnAwbfvTBJYvOR/o1kY4MdifE9lH1b0fpwYRLmxgPJ5xVioSx+MDayRYcyLceSSZMBEze+KOSlTgvBRZniqh12FwhImG4Nbe3plH2htrs9BJNr4mymccs+A1EohSuIO7Ykian9FSYKfZcbitU8lMcBBo4KBT7wqv9rrYpyDNF2rm2nWRQ28qsnJYzdoPXkp0slLgJhGgH4IRrFigLL97XTrFLXH84LCf6k2ybNXeFQAAHo9vhjPvteGTOWVl8yda4WLk/X6HcCdlYnLVqc7jzcQ7Mt3jmRE6kBG4zjvPRRV77IJ9CbxJ4ieKVPF3ek6Z/WFHCls8j8eFJT0cZobPI0WaKLWwrkE+3g4lihonvMwJ7St7gbC/GDDqm1+mzNYXSJq4djWdEAfABWAK3uRwufSKoi2yDmbnbIGNOIQqGolgs6ulxvfftrT1QP++SdB/GeH3KLIWleptZeGuPGPMBRrqtwGDySGAQ4TSQZGcMom1FWGJsCuZsnhjw+IpbKdiwejW5j3I3gViaSteE9+3OLecAuKFWuyhqW+chB9kxabJ05h/ZETxQwCzOHQu+RvKuy8kMBCwVlMV9AjS/xy0vh7PDTFgW8HDEZSBk9CLILj2IKIOJCWw0Ar+wJpvgCl4RBQVETEMpTBGXMK2PFqJA42ybEmarbAI8UxFXdlMmRi/PWfL6MC5CQgvfVXVfd23yuKHs6kiP5QUIzgOp06oyZX7mKHPRc3M+CbZFo3isnBMhhS4vbty2XDj2Od2Tc7t8jGHH/45ydX+Xn+OgPGCO1LZD0nDsg9SWxK0/RIfDOwbS/SS9BCy3p8g4H7Bt2BbMnNO8zmk5L8BTRUkXZOi3K5gN8on8Yvscrg/xONZjuva4b+oqS3jzbdSfwsG8CrxpXJbw86za4sNJXRn0pBHOHrOpuDLoN+QIIApymLWLM3fzGBjYLsvMWX26e8jjrcGWXmBSng6zkYVgOX7POEeEl80FshKIQRYANdSbfWtiLbUlq/k66b7qvdwBz/ipj+Dtoqjy6oZ19zTGvINnPsZPXBS7r6OZGyikFZ8r6CMC442SjCB2iCQTik38sINrxcBwGzS7kxLO+0zOU/BegINrncZ2EwFiu42PJD3ucYi8gee9LBPhYc725118SQRek8YuqEZkBjyyVUQWAXMcBfoqmAXUx6FBYKKbuA+qO3PhveAPI1fW/Wbm4oLmMh2gwNaPD06vK3MbmErTjpgosIGpZ8pNikDbqTsyU60rM4psqU8b26XbLtShPSAMEyeQgoS2nMLuG4ztKbbtkEfBh066ZS7FNQL3G7IS1ceOcRpxvb2zViUH4aISH+64eQv3YVAsMBIfo1LdqMwV4RAO4/aw2ArGuxT91JBsLUQ736vuo8bDMlB3RuRO1wVlq9jR6mrnlQOQX95pUWPRxHNvJoylgsUpj/FhXg5udhNQdozIC/bXcN+CshJs1pLGQPa9kRxIjELpC2SY173OHDMpz4aU/rGxpak3O0LokN1KRNXfiJfEIqXkWyjOfG5HqnbileOO0XhKJf80+UXorhOjE9Lrqx2LlyOIS55JZBMilthI1wjILusxIsB+AFU0ooHyFwy27DIiEvRyEuSIAL5QDClogOE03ufOkstpBjrjBnHm06/IrgtAwtJYRLyJIL99bAEkc1DDIuW0O34nq2j6OM8SUJRTH9FchrupsZE3LyEyvwU8D8QJRY5TudYdXE3nMyj5MeVpv+lCfrzNx5EXoTWilcm3GEQXh3utGH/b0IcE+ouNBvfpSMRoEx/3VJAojSzHdtdaynUUYzjgzGD6AMVj2KTz6VF7CvSF91i4JlalnN9dscw/8qLqTs2hKHBcFBo6EYKJdLo2R2IKKdFLMekszSeuYbmjsfGmjmFgQx4sarsIbsed5yPs3NR9U5SdhoB4MOMd0LfKL9J2sF6kORmmNBdTIrQLTuPFbXkmG5e/5IM9EkInIGaXk7uV50O2U13lUowmwd8PYqquagCnTetxRXqE1qJPk62Tzu3OYlKgZVcm5FgzncErrQ/V1ZjxzlaHCLD/EIKi3blD/CAwJyE4OB+Um4PR7wUs+6uMtaXFgTwt4r2IJuUiHzFcXDFmbjRuAcnSvYLz9Ymhdwx3Ob8+PKe8hBNXNZhqBF+eRXoop4bXVshw+Py28HhXGhxdoZM+C6SD8Kutj9qqgaLHEPEl/lXiPebjpzgVl0GSUi0vQ45ergf+Biz3UHfi5/dW295Kk2rF2fuyXBf3FaC++LLlyIXkxciV3R4xC6r5buPtbTLU5vCzzSK7BsLJ5kcbH7Vx9jlh5vPd6oZ6GlCr449Wwd7K1oPfe7rtPT0Fucm/ZxThNoEeiNvPeSva47TxYPP8Sq/kT1zy48MbP1v32Jyt3eNAZcv5lothYxRCZ7EYuf0BeAm8N9tRw9sgssVZOeocEIJIvEFAyF+Gs6C7FPkJLFjwp0X5woPDgBLv6w2Ibud4z68V/a6VGvdiQ2IG0RdWfaGaMvdX1I9UpIb7Sz9kHwHxHKne+Df9yDHuJ4ZE/7f9BDXqR61khD67NnfLodHkNVLozjo2EjnZfqJ385KQlz6IUNO/cIG9iipHrkjbftD0cOdMX/vOcYcHVhqECXaBS/Z7NPpCwZChNqBUPqIpf5gpH+B5Bo8gBN/4jWUNwxgxEGUIYq/7ZZakj2ZJZ88qBNyJb37O1PKPAiNKy99elwM895hq3F/nfo0Wxb321fbnuVeDBrzT26+BuMt3t3Zawvm9dTy44HvWXxqXk/asxEH7VF+D9ohK/xnRCyvOzPd9VBqBk3siVn15xLtK4LyPh0Pj68JgLi9+2SG/F+gT4Gn+N4rne8qEkK3XfsS12UpMQYPX6ncNhU0AhCcofl8BKSwGyvs+3zP1OHJbtOKdPHYJ4pIctQCpeJs5lsfBy5Cc/WL81tTMuxOSpG/+HPOdcIImhtq3XKV3jUcsy8fvKznvI/6QDR7ienMVN27uu9f1OUJS+WT99DgfGSx4efGXXWBYtAUG+oD7MWYajbKLovq3nPXsuKI1GIn6tQaefIIbCG7OVxz71CzWGhiXnzZbn+jAFZ6Xi/Edp/wZJZOns/VlBQfPIQvQi8+fssZnMQwgeir4VZIc0lAj/JhFvs/inog/JCnjeYhBlP+YB/qFZ6L8YSYYiNFcrr9YGaly2KLknzqyCsQtmseP2RItjIDg4k7pJ6Zo79OCvST7wV5ypWSMQrpbP6w9MyrBfDDdztleDeqto74Q/UWEkr/vm4KZR+RbyHFPXvc7JlCPCxduA3/MDhGiuw9kc9Zj90JhflcDd0Px4VgQeDz5x3jpfWfNLeITL+hO4Dw6u1SuxxGfxVhroxAHB7zg+YffHXYbVfwJ7NHVlH5HmLePCBWz1QVEpOEKCurLbl4fAq/9YeMI4SE/Fm8/JD0Ye3ZrogmnESO7mvX83Sfmq+x89VbtvX3FhxfvJz97w7xD/MGDPoN1vvzsTcO9lb9gIKnuvYGrfKhvWXHr41/wNHjOKBXXA0bGmcXLWBFGXBdAAO2XNp26wK3AQ0j3vQWy9uM2CzPKe8PTij+gUKqL52J7dccNAPkHf3t84R4Z4ZwEKFl9eLbyVk3QKFRXJOtf5njFtQ14KTTEHJlOWA/RPsbH+TEG9law7wHuL6+H6gn4aPgxAt6QwUzEQJgWBkD0FeaX+U/qgit/wtpniKrEMPuhU7sUcYVxMdibHV9hkLkAYRgJ7K/4RKKF72XQQ4Stfhq1K5L9D/TcHeOZA3WS66atyaMA6gRxVHVHaYQVqovBwtxPnqTRU3Z18hctv8mTs5bcmxvTKMKfPX79zHA2CF6CjfmNv/zOnt/uUcG+T4ryBOoz3l3+Hms/3yJTPI9j8HFFcJRGxpd8+HvJWfwLXT+9BwOA1w/dHWmRAeTqZwXsLeQF1U8PJi8d3o1sAO7nBmTP/HXVOKlD6zYeBLD0l4xs6yeGDLx34RY8B/JYCTOoxWHHzb1TtfMxsZXvRfNgVFcmqxMZ/PJ5+/W5zYLN7xwtRvh0hX+4Hx9m2RTSED/CG03LPf0qm/NRRXkY3jEshsCFvm3+iN9skJX7HleL+z3RT/0JyM+3FBQCSQEFPpPir1lR9mvpAyu5f+HB+t6rZ05iVjjR6XPXJTpEyzTid4x8+wr22PLgZ64+rLIGX/jyD4mIF5EDPutsKolPD8DTIrya7AufrLe4QLZMz9aH5SHwML/WuB88AmF16dAWgfeeRyB0+q+oVzyE/ZxYJuUyixIklwZ20e+48s0Iqr00cKgvBdaduSlUDXmZmVB2058fv7Yzcka8A4IbneiibGecr24/1o+xxOQTwVoGk+XjrBSsJ8JnYVN/2Iof7chktcBNn4cnb4hHY+XOHrDGL96D8QvcC5LTj9okD717cXduAN/VN07f5sfMiCx4EZ3T5coKlHL6hWXhA3PNSuSSQ9wknBzx0yvOE3AUDj88YLeQ+rEA58Ote5IurWoY58P8GPsF4eV3K9QnzU3zcuCMyqCMC6md7SWWEpTDlNxZ/DA8lszQCh2gfkZonE3e0wLhiLlyGdOIZ85NC8WGE4FT7OPFKLpbfQi1+kCCNQSGO/2RaaHfWjuKd20y8JmpMFgyq5KJinnuwEbr193KRjgsg1ayPlmtr7YaQdA7P9kj3k+5p4tobhyzNPRjqfjCzcR10Wn1JIosYdrCstF4QpKqvELkuuwXS2J3fJXj0GUSlJ+Hmco37eCMCnGXhtt+FrLkPkEYROXnWmgC3l5Rf45rUcw9AaeLOYMDY66IVX60yhohXFS6mY+Myrx5tR4FiE3UJn7hzPOhRHHDbodlgvGCEg/nsd5GwYofnwzvLSAsEpBWvnWI7juP7oVo5AQi5M93Io+sA+R9SoGUfpOuiPI26W7/gSNLuSW94UXuwPmHrjBL5kuUL9YCB7UfeIxYajCCC/EA16L8pSKB+UjMAonXCjlS3F85/zot0PGkelEDHZ8Rthc+zwkhAXRxxIeRK8yHs0teaNU9ZHXGaI08eBzqQ+Sam1P0jLYfD5x+4beHya2LkmxBWkl4f3XcM+j3mQ9hzlpNdGbb+FD4BSbJn+wCVcMJyc3YxpHifP8yCuViOSe6UdL37zzausp1h4jJIoza5zR9cHGVavJpzhSaeGofKgQH7nEmjeWWB8FDQfqjQLlgsxTen/fmycMPW9+ut1sMHogHXvZyprcxYNrnmCLxB17vMNrWH/n5ErIjnyi7ml6B8vq2mOvKR+DRdyRi5VqDTwPLkF2ADV1G7Gud107f2S2flO3yRMbs2jW0ROUISnAmlzPGtK1IJpwsLzHf6G9w/8oVt+MHqhftBHpwVlDsLGlc0fTxap0KZrcCABUFpLMk+wzLU1TUEOBn1ugMppSaXiEQUELK5tRHdULpb0Fw0Y/cgbkD6Q1ggTIKKZQvjPQoUI5MCrjiiEHh/HvOIEbPujMglCNBQ2ZxiXki3yZP2Ysk6oJwEp8TxCXz/dDtdZamjmok/aQUbs49H8wQ7TVOj0NLcQ485nLxJ+TAxdiOxGo3JH3jDempY5Y00Kt5nkny+BTVF+8OgBfxEbd5OWWC/Hlz4iN29nwnaBCbI3XJgTfGcJ2D/lTSA0qgwZ0YgeVYuc+JbcGOflgkBo5wJD5AKitJxTxUcERieUEqKPQ7ORTQVKnHJnIw64P8vHxZ8DMUcy7yOv12A/XgN4vmSpcEL7FsmSE9bbHQfBErhzfPcIEzPKDcqi+FoNQxfTsICDkvjbjs+w7ibO2xLnjlgvoB22ORsnIdRdJlaDjET+IzYk0Mejmd8yEkDPm1Iyp8J9/S9Z8up7SF6OSt4t7p1kMJqV2PoK/5MSyuCT7j5Y5BP2Cyc2HwafCLC57Mft414WSnOHCCTKzcDBpGohFgb/mlXthBWVfD7RDrQa7N2DP86O+kwr1xX9bCC5ix3iqxSDLBNupInIGX4D1ApHhc/pIdkWwd2/CRgIBYSBmoLgQjs0YLOT7i6k5Q0lOBEg98QnsxJjD1QXo2viLyQGCedXjK3gjaQk/gSoUN0Y661ug0Y2VwOTywCEKHvqX8pQ0iPZZgKzyhpJr3Z1JZGHYuYM+9rkecnRDE+/OgVF5qwY1T78Xt1h5W995OMFzAJNLHLG+L7PYQ4vLGJQQn3aVaq1nzIOJHAlDMZMJGZe7HR8jg4O02Ad8k0/x+o0vO0jA+FWVEsIsY5sy1iXBZWCxwW8W7rJ+uK+58Oz74alBuIaQLMpCRfvnK+NyN1D7UXDKPMdmMA2cDxaGzbBPOjDfztDEbR92A6ufOs1bO3xxoRNZMztOyMtYADSZ8TsdRyBOSmk+Mql5yNOG72MQf/24QF+GaB4yan2by4DDncLyayKaklFFpkEej2Ym3BD4WwsRePnAEzaNUktWm03nRkWdxrelv3bLxVJSr9G3a7ckjhoJD8sOW+JzP5gUujoKfe9juXb1gu0S5Tm6IpNaufg+gvOIPRXHBtU4ybwVySCMPP1RwJc5SPb/sqCDO4zlf1EkoiMEc41O+tKwkAT0G/R1jCfyAKi9VRtSwagN7UWZhrNRhG5WdhdFpXHMg1zbIrVPUIuxDAb6D5LJyBQJZbPDgPglhNWeLFmAu0Z2w81bJk1ysdGZj8VW9rgHY9x4Nr6vSQsKkRPwsvLBu1EPkrrRWI4itI0V578gHnCXkBCvYmmJqqlJqRCYm24vjZzlE2XjWR6cEb6LLD8EHI3DHXr9egGXtp+E5fz9XPVotcVwcGKqh/vGyl1io1mljT/Cy08pM7IvP24QCVXFA2u9QCX+S28tKavMmEwLeNZSvp4vlwJU9HXRDHuonzjkNPPINMecAaNSQSoIEJfpW4tPxb4r92PYr/ZR7vfA06k3+ROYUIAJX1q9cxLdWcQAMxDek/pEtoGL63pxLMRtukogiZEBDa7/3rRMUb16KbArDLogLnPXV6XIBRtFGwtEaAJTOonA4s49yYOjxDb/GfPdNXj8YCY15FCAH0hC8bolwK0UN416uhotqDTllWmRwNbeRzkTTyo1bNfk6o9DGxRW0r2dkXhMEwgSVT8cXCJFdvuQaIXda5nzdmhCws7dx3H1npCqybKc5X2xpZKA47sfBqPaj6RFYUGYyoKiGrQLmBZGc6JiuLy9r31PrP0aFGB6+15FaRlOVTo81v44ARbIuYhRwFFZKZeJt+dqcMTYdWeLF6k93ZJfiUikDcXiGowAgV8+n6GgtOH8RaMFQ3rxzfBhivj6yMH8wdSdSrHl8Qmdtjr5y7PrbBUB1DU7IEL3VW7/qAZvC6w5QZbVYqAorHAJW3xSOys7QgYuw1Enb74cqrurLI3p3RpETc7DwqN1J/ny6XFC++IkqvPu3R4oEKTxGoa34pBGbJ0Mw7jFfKZBBHDDdwucFXynqVRyJ71EuxKLOaj73hRKEc84k9qmy3dizdzaq4rMUFw8c1wXvU9zPNS9cKwZZMqaO4XvKY0trg5ARySkUChiBd0ccS5TXggGcGGEgL4FGyoqyRxUZkoMrIFCAVvchoLAGoFKLZ6KK1kiU6X7c31nIpoZkpSLo4Ds0ZsMyJ00wKGAc9Cl8dx61565SUmkvBjO700aocGbAzWRh25OuYylpGAIN5R8bpy4kCzBNnhyPj6coBHW3HcsAPG5XcIrzQuLfMYx7Yc/EuawVU/azSa3I6gVfCS5Ursj7psVY/PfG9LiIhI9gmFl/RFZubgm8DIh2KZqvB+KEOSDcjEOvC8rHAfnAMj72wbfSLnoAttMiOnGwnF7eJub8th/yvNw19Hnu6oGw3495o71v1KFXBYF0TCap0byJC6GzsO7g4brgus/4lvpe1MycwJK9U3iX0//S0VOIK04k9mMtgrHIHowbv3zhVFiZqdt1P1VgHR9VkG7ZfnQmTpDVibO0AJMVGcgdF1yyFALMKmXOSk31gCHlSpvYuLc6gvCuPVAKi1jyfGuSfjbD6+v+gqOXCeJySE/i3TSuhcMJ9/rKPF7MfiLlmp7VRdi3iHs7GCrvCdl3YexKtB1jozXz1Z0Wmdu2Ch9emi/SppLvY2VSp8raj129aKTtfV9Qmdhjdm+exOz4F2tW+E9G9xlI3TcipfhZnBBhzg2oIcgSLcfmrKq9e47OEn6GSjpt9wDx1gGu6qpP4kK0JrFAw23rY1hoNIUiB+CivaKjOkdlPlzOWLPW+boj9lsTcEUF5A8e37kqifpWUnqnZuyEok+HbKa04uao4S1JOB97HorGx1y2AmbX9mWJ+3mR98Evizevi5ZZeEjDGcqEyMsimzh7keniSt7bY5UgbDhtOAz7anO+IQZgMfbEaKm4kASD8nAWyGtJgdtjTSXIZm1yjAziWpjJMsyInCYYN+ju6zHEWwbmVT9enqc95i/2vmF1xc8NLapqduwCyUSg3h6LeCEpjKIYHKhqdmxcnODPOvHhtrKQUCgJTEAxAurQZ3s3dQ/bEk5++9JqZILU2x6kASIWV2kBjwlhSZnjkd9PVN0cz93OxYBQF8MMsZX0DeedRB4bfafhLT69LnAfKMUX8bOhYoCdrxoEDt9BrsdKuJnWgrc7RsdN4P3z4YH46g0qYh3/diLeAJnDGbT3GMJif2pOTQZuYYbzbK44yJEXMZHygmLSrL4Fg2ZN0q25V5jTda1WMCI93hn+Ub154BSSzUWU1tv3ZUsiF1t9JLH1u6tLIzPty1KS8iSIm4F85WjOTnpxIuaR19tBuAPhwrAdDNKwqKPcHQoQrfhLQ+HnsIiWIfKKsqn74z2m6iXs5TlbmojC1ggiBFYShXcc8bLFiljPaw3o3QtazxY94mkTDIwRXor0xZ+BhnIgHAOI5OmNRod9WH6dT2lPC4WDhzQQLxU/lyRYtFmVpRA/w2Xj0iqaQVgXyPzV8XhdTpTMYH4UXC5MXGIZg74J6/roSydbH3TmQKmGBnPjgSM4HCUPyFhbXo80/oGZkK3xrSPX8cOxdl1+itL88LWKtC1+Cr5wBlH6jhWnRXIMkdYoFC+maKPPlQj4AgV61O7MOZMfdoCPxvoLRWuUPfCnmhGuMBNBVNvEAdkid8xqjG0VcCg1UhbtDayO8Ba4kAklGAARMpIR3gWUVpsFtN9ZxE2/FHKG4Fcz+nIUHh+GPzPWZIZU1d/dvka5+L3rUJZDyh4HRxjAPUmk+XzBRUnHOln57rxaCJujJ8UHkQFG4n7JofZGaC6nxRLyxxwekcSR78PU7DSrOEfACNYYlEddT4BHaEylBzAAzq3njuBtM9mZduR53IwNcCLr4dNc56cU5dnJKD/cSkdFg2DKa/mzhoYQaFysngC8P9Y7ZYn0GSD+keQvXwmAifo/3QKPE12BE/X9wUpffRmGOZsjAxBzox7g7ndOpyDABEJQiDF5LXRMFYYumtThAqn3DRRpsx8/4nUS5bOk3iFLrfsufCTbhhCh1KJSKxll1q6rQwzM3Yau+glRwkkDlro35WE8orhUHArMGmQg4wOi8sO5sV3JmQ8vQUgQa1cFxmQk3KuKFxZ5QrlkO95CMETLtj88mzCwrc/H6oIkU3Bw7bOsa/IRXBETFcJC2q1XHGPkLRti99gg3BH7SkU/LwySGDIojUzAVXwbQEEkRLYeKCYbiU4dadZDaC3MpwspqShXfa+PQHX1OVA7IN7sFuDAoKO0xpXvhUgPuekI6/zpaPbFSWL14CEgldRo34+uMXmc7uw6LV98zSw1UKoCgvWN/IK8z+v90tym26W4gxefZgWwmo8PGt0DmGENcUVC8OmB8ViHT4yx0lOLPA4RqkoDUF6J7gpY//271JZeNhHHGcx2fxpIsLuZu4OagL7wEz0wl+nMhvvUaELbYs/GhZaeKBOBzp0XOwwXofK7N8o0LgC41rsQw5eCy4Pai5UeIW9lZ3nJpmdZo2SI9Giy3HMij4hxiMQZgVYxrIdxPnNnfsZBj8ypS3MgRsf0LxcxwmETmZ+tZ6uX4V3Oz3cPeDO3WFZlpShsGcx6L7h5aOM0mFF2lR7rUl6R/VRICoFpBERhde0pqhlZjkC1wM2fC3hDxhx83Y0WqkYiPulVafIRIRKucXtKMNr4HKok6ylC6HeAz44n5Ilx9jNveS/ns+lekeezeyX9ya86QgyAWMiH4NcD8tYrPNeFiIBI8HtEKcpBEkzH8SqjxBigHPbn7QM10DXZNa/Ib5DVWFQgtly0FR1YLBaMWBque048cZksfSNNIHTS8cv7jMGXZmY5uZCf+dbwnvzm7rlzX2LHQfFDOl7rFwMZkEbRjonGaaI4LdVBXp5VrDpfChgtlNkck7zjO1XZHsTeFZu8uML4eqJL8WAKnGkf6dfyoKHAdEhzUk5jQDNyj8dPjJ8ICvmRigkH4yWiOYLb+4y31B6iiXQ2CfLi+060RxS8N5zWej0vq16g/M/BW06Ss3wIcC8eSW+3ysxlAWI8Df0Z+cJwM4TNhRA/vMB5iMl3f/fCuX/1h1jyy5J2A44uR6cUOXMCCqO1Fpebt4+VfxAmWefDrosBxuDJd+a8QO1h65VqRuTQ5rWLMjgnQ+Z2Gr6kN48tDrLzZ4bq3dlOanKUOlFeJQcyh5rGedaKK6WHJVbijJzOUJv0glHL4vGJnfEIsZVgBJ2OyD2anGXeceRcLWjg9epxH+XdeMLfBSDr8+GBa7attNcbOiNcSlryAeIbQ2MXOBnim7nWj0Bp8FMy4OqFRfoksl5D/NpCrY8jcsX8bjegzNfunOJoqCdmZjv5piMk/oB3hKKT2hE1o7lnxNOC/QkOxV/QIEa1dQHLYWuvP0dXeZ6DsAlYSXqcfOm9L0IKlbRSH1dx4CjaPe9FMdBezkdO4xf3c/piGSSxovB6Q17fK1dpFWyAn+VUlUUyPzgwuY2IokGEogXuQOZs/OyZ45gOnBoUm7DErrbC+x/A34syUU7d19qNQopp3x/fCUqvFIFBi8UbdTLHN/qG86uYvs389GEmXJGmbNdVL+pRjCQRT6ugOTY0Z8MgJFlLsfw4qQc/KtY6me1HiD8xwltJL/L+aSFupq+4+KWO14VHJIK2PCwXG/HUQr0Zi2rHDri8yxxvP42Kw2DqtB7P9mLbKFg/tuRw0TIz851CRRh52khJ2A4xQrH+3keg03zPtAiDcz4KPeCv0YTASoSt8NNqAfpihtaj9kt+mRGvHBzfu3/ZJC7u77nQtV/0zLptqaFdpBlI10JQqifSkjw371FrTHDZH+eQN7xEWOHndq8JaKn1M2qHwydBlAkceAZP3zwhLLxjnZ1uz0M9LdA6Z8gKMTTzCcVZ7H3b91mBwen2kQGLWtqAExA58ewbtjBztzByO2uARHxGm7CFX0zcQRVwp2ndvwHEyPRKmWajAC0pHq5vfFJgf84X9TSzVuYc8o4COlC6DqT78+ur+BAwytyoIzGBU7LQZiIOlG8qi6GOs+QwolH4x0B9Wj3KvYXgBKRzgvcgFfwc2m/7mcnVBad7eMEpAjuM8jEawB08M4LD6NfQm7Mxb130FOoDATBqDeK8AWdabhLhCsNgSAJwRPvg3199jCxDXUpE8xmMlzaFn1XX46UDAbY8kN6Ty6qYlWRG57maEYY4t+mzXQuVkXWLNfDJDZ1BhnkeXb5IMpT8WDLKNNT6fBBOzRXxPBblFTPY4mcHXBOnuosdZvqUCgRs9FmY9PRIDEu8aSGQHtgY0g+NMqqr2mux54XgCSxEH074S3PkpiCSN4GpKK4ATAno4IqfPSS6O9A3O3uE3GbMPIJuzAoVlBFcKpSrFKzMyXw/HEoOV9Hki+tqjMCWtejmfcOkza3haPfJYOfqiVNo5IQhEEdsnpW8GQi0BehdiYvUMfBBOXhTx6Ccj+PF9JwSuzEI2C4XFuvA9KK2uDM129nEw+LpVWTcMcJaLMTZcj61en8isrMGYD4at30D0QsJEymYvC5CA9nlzMlkwW+dQ0ELHyGG8eZhhrEGqW3lB74JbWxG+xMhV653oot/jhnJUiI8/ovvuQpa5YUfOdCcmwsH6VqlQYiy8nUUNEoL1yFfsQTFBz4RBwmnTgTlrbKclljI9RrMGLgr41iWahTo/4DCT6FLbARInCkAvNjm0M6njZJINZiQhzWSLTky4g/2eG6bcgXBqN8Wm2pSVvCvpoTysQvEapNNnngutTQ/LPEzmw4+twZ90oHbolyWZIxqcW9mv4G8WLZGrmF56tih075O6vBH6VTPKDYtjEYx0kOYl71KsTmK2h6aEHD8EJ1vvUkeJgz0k/FJVvyITBF2ponlJqgoQQEAKutpr8lFOKVRzofTq3XnRH84DlqXRirZBOXzCxdOsPOK1mf7ZPbIjQ0++/0GW7LOi7UQjsbRQ2xaedAzAziPcTIXYivecT1wzDnRvDIoxy1JnXo/bhcVm0tI6kdJeXYhaKNP+lUIEW64OsGXFzrFWwRkIC7EAz/fAGcxPL5ClCmyni04sMSF4FF/XoGFq5vPk3ApjJG2+hMx1zYMD5/s2ev+yJSM5QBlHUbPxF8DIZ8xEsj4XMVtMMqBvDAA8TofW71GMInknOt7N/bMhM96oqyEXlyubvFu2OPM440hIcU7ZK/bPWzibLO9jCNPd7q3byzOgsQzoX0IGO2ntQqFfx6qwDBmc/8arRK2qaUpbAFsHLcsPXqgBT0EmgMXRhIObPtJFqM4WS/VT2OaRHe/G2R0onIT3DrStt0mIGxsK1jgpFcoORSP5aA1T0tfVJrrsWP75VOky4Ihv55SNcryVuOT6yw26M5nhJzcBPet394LRAo7NkmB/OYhhhzID4+sw1I6nPv01rOwB2ftEpbZrT0eeCh6FKBGqC2HHY1xWRjwRlsYe9E2Ot8Xbc/SXkgNb042Klxvwmo06LN0PqPcqt93TQAXYRpZtIkuYsSFjn8tRApgC4alGw/qAyHTbYocb+Gq2E94o0Ckk94L5igzcwI84AsFYnO/X5yxShL5mbLH9DytOtPb0pxerUYtTO7RHlPx+Sg+HiXnXItNj7zfmDPeLHtfAmZzlorTPkcan2N58Pf9ycVU9VyijEOORxRm40KefrrXGNcsWSp2TMbDX/Q0z1oY17SAfAvP3DqcD/T7dZVYsBIHY06FC95Nwqdrw7q5t+KpJd7ZAqnMtLXXYuYd+zY0+9UQDESrvTtegVYbMild7rsy+5deaY04b+JKH3B+hJGtyILmliCHt5NrnrIxVisU5k/zdRz2QqTh11lk9Y5jcZqXIviMgOI5JsKnY4uzLRwf5xW4tKRzyrRX4lqvwKuVXA62RXq4JoLocGnoqomDkCB0iFmZJ/EzrjMAHNy/QOSl2C/+xMgqPsuL3iO9KMxXUXc9Ffs3P400n2J0+ZRMHAfNmRPb8fIUiWvMZnsFMGWRlKsXLndLXuQ8ZlbRqEl8zVwcxJu6iJzijiAdzjTq3cM5SVxnpf8C+2kqakZZb5rnD+seqdEpEc+X/eiFkhTBoymmaT00eRvic2WkvgSI0mKzaUZWuZcq8omVLjIC53qI2+gLYjRQ224hGon7Gulg3Fyw0PybwtaIxYRux7B0hkPGBpu5oWiNfYBY5AfvbWK4vpzyyam6I6qY2kFcUn1JeFvmpNZyJL4hQzKqA+ZFOL5V8lM7IrGF5HoUpPa9H2DAZbh6brj9cSacK29bwNOH/qjMxxbQWUz3VusSwURym0kuiGRXzJiEHzIu5+WM3FnBo/W3WVR9ZLuuPpf5tvHCzL8X22mEkOuQ9SnI5t1EFBf6qm0vVW2Bk+Xt/DpbikbWkUAtOy+FhY63pC77E8enDa8VEyJOllm+8lHUVcR9ayqkNdvKTsj9v7JoFVnT41VWV+PbDs7p8zCNFLdOJxal5XFUafECZ4B5cPR+cViwYNmMbcbfWmK/MphHEiLg92zJF85an52OH+26bSZowqeOUK/IEPsrzkY8y8knuwsO4/H9/9PenWwpqgRhAH4a98ggsAQcERQBFdkpMwqiCKhPfzOtrj5d7T2nNz1s/l2ppQxGRkZo8un6t0Bzh9KC22WSni/SXGZ8ZZNUu4w3OKWup3G1PawqodMtEsscqc9Ga1pumbVtrDZt3nZbh3uV/zR1dl1R9Wkeb+q0FesVydV0UaS6Ihmv1l6fyqlZ4zMKtyi7k7jyGWGrWKz7uBuXkLbJ2xcnR5/ymDj9cE+KzI7fUkXJGgbPqXQ90g9OlxnTLs6eHwyfrPFY0oTWkj0jhZtsHu4HZqTtLfX28YY8Xt8a0pc9Xo5yK5XXq1lwbjM21cvoMLKkya7YdA0pusjArCa+LgSRPaZVox3Yamc16oAe+ytf7duUj1fcRwfSrZYPqTNOJZs/00BJZvmuaxw9KSXDm8fdcrLgJrFidQu5EOotmZNGzJTUDlNuqITjbfKILGYR32O6jsn1Vbm9RMYiGs80P1tkhhMn0qVdvZalb1LezE1rzjEzfc5k+mDy8Wnq0T9N6frfomids2Lex/e5bhnPeHezgtssVm78vqCDnnZ4J1WfnGzrte+OkAZCGy8bepUkfxRq5cI8W6MMPF4/mUYuu+aDV8vXNZyvFa3G4LqM0laeFu5zR9/dQ5cKA9KJdOuRV2t2N7b8gy7YZiNqVlrSEaDSiWkyrXaOXU1IF2MJoi6x8YAnp4QhUVtoO5Iha81UTbtPdkk5i1q+mxtNNdQv/tbzlz7N7bkTtJddTGfFNDhWfYmmB5Vm+oIc8OhukejptqRLe7TSMJUDV6TDkNc8P9oJJIvZ1fDKGBZtje/kRkwn6qifjKabTi2qhEyqaeY+urhde1lwbc+P44DOPQs2LtI96af2zkDWcunZkZ74ev9opE6PoJ882I+jD15LilKerlThvfG8EVz9OFhEpV/Ec5c19cX2pn+bmEaVZbD0nB+K9TpK8miu5MozDq8u6SqmShuMw4wR13tafqpGRyad3bP1dI3J1L5lde5yJupqc7NIpBebb2PUatWEtyKaUrqxZzxvtnjYqWU3jNT7wytCqSFl5nHh8JlYD4/9pdwqYnCzFMFctdKan1nKVtjLMa0TQvtUK5vqzN5vkjKt7aMfKVuqttBLJFXSyys06CLzKYlPTWJSxwzNh7Ro3b40YehhVaLiL0S5lGjbO1Y9YxDRs5TOCl4nQ4FeCzj2T3r/6l0CrdyINPKLeKA6N31ZVdGctLE6jWdbri7yQTFqih6GO8+Uy1n4vHYWQ5+hxbfjR3UmWDX7TGZ0sb56fGqKkARNmy4Z+pWrKhtRvouX/t1gaznyEnUpb2jH4JBAsptuwvmn2eSQx7IUV+ap4bzoxNDjIwk2X5dJ2Q0CLgzbVusUR0i2CUfGUTfi1AnPxGG/u9N50VMLY7yXmnks8/PSsMheW1XOBk8tbl2ztaaHmOEc35jwpJxv7fEtPOW5On/Rv4qz3iztuaDtZjMKCv8WV5r/6RflWF56c6UF9t2V/rzv97vS7z9fBFcarjRc6R5cabjScKXhSsOVhisNVxquNFxpuNJwpeFKw5WGKw1XGq40XGm40nCl4UrDlYYrDVcarjRcabjScKXhSsOVhisNVxquNFxpuNJwpXtwpeFKw5WGKw1XGq40XGm40nCle3Cl4UrDlYYrDVcarjRcabjScKXhSsOVhisNVxquNFxpuNJwpeFKw5WGKw1XGq40XGm40nCl4UrDlYYrDVcarjRcabjScKXhSsOVhisNVxquNFxpuNJwpeFK/+RKc4P+P3alObjScKXhSsOVhisNV7oHVxquNFxpuNJwpeFKw5WGKw1XGq40XGm40nCl4UrDlYYrDVcarjRcabjScKXhSsOVhisNVxquNFxpuNJwpeFKw5WGKw1XGq40XGm40nCl4UrDlYYrDVcarjRcabjScKXhSsOVhivdgysNVxquNFxpuNJwpeFKw5WGKw1XGq40XGm40nCl4UrDlYYrDVcarjRcabjScKXhSsOVhisNVxquNFxpuNJwpXtwpeFKw5WGKw1X+leu9Pfb/8yV5uFKw5WGKw1XGq40XOkeXGm40nCl4UrDlYYrDVcarjRcabjScKXhSsOVhisNVxquNFxpuNJwpeFKw5WGKw1XGq40XGm40nCl4UrDlYYrDVcarjRcabjScKXhSsOVhisNVxquNFxpuNJwpeFKw5WGKw1XGq50D640XGm40nCl4UrDlYYrDVcarjRcabjScKXhSsOVhisNVxquNFxpuNJwpeFKw5WGKw1XGq40XGm40nCl4UrDle7BlYYrDVcarjRc6V+50oIk/mNXWnhzpVdNVL8YaJZxomubBdGbNE1OANkxNSWV/KcB/cVwLs9l9BPW/O2u/TdHOiAnLLr+DzBdZGFIN6N2aXaLnGof0G121/1Xd5r5De50fMqq6eczyN+bz5ciG81IduVIdf79lkvh69fDvyMMOOZLGHCfL/FDGPR55j0OWOZPxcHgLQ5G932BGPhzMcB/jQGeeyfm++xfjQHxLQYc+oYgBv5YDAhfY0Dg36eDPvNXY0B6iwE3qxACfy0EBgPmj4UA/ZLgfL798NiEnMzUPIcR/Y//AA==</diagram><diagram id="9JBNn3bpi1O8jat9aQ4g" name="Mockup">ldFRD4IgEADgX8NjW0JTe9XK1mpr2dYzExQ29AxpWb8+HZqxXuqFwcdxcAcicdkmmtbiAIwrhOesRWSFMA5C3I09PCwsSGCh0JJZ8iZI5ZMPOB/0JhlvnEADoIysXcygqnhmHKNaw90Ny0G5t9a04F+QZlR960UyI6yGOJh8y2Uhxps9f2l3SjoGD5U0gjK4fxBZIxJrAGNnZRtz1fdu7MvxFCW+0LM0311lLs/RXixmNtnmnyPvEjSvzK+pu8n0tG7h/C9ZvwA=</diagram></mxfile>
>>>>>>> Stashed changes
